<mxfile host="app.diagrams.net" modified="2023-01-26T05:42:30.505Z" agent="5.0 (Windows NT 10.0; Win64; x64) AppleWebKit/537.36 (KHTML, like Gecko) Chrome/109.0.0.0 Safari/537.36" etag="wbcJT5CloWVKUuzRl0EO" version="20.6.0" type="github">
  <diagram name="Page-1" id="f1b7ffb7-ca1e-a977-7cf5-a751b3c06c05">
    <mxGraphModel dx="2888" dy="2461" grid="1" gridSize="10" guides="1" tooltips="1" connect="1" arrows="1" fold="1" page="1" pageScale="1" pageWidth="826" pageHeight="1169" background="none" math="0" shadow="0">
      <root>
        <mxCell id="0" />
        <mxCell id="1" parent="0" />
        <mxCell id="nsCz9Y8PYD3TY0NwCHBe-138" value="Logout" style="ellipse;shape=cloud;whiteSpace=wrap;html=1;strokeColor=default;fontSize=13;fontColor=#808080;dashed=1;" vertex="1" parent="1">
          <mxGeometry x="-560" y="30" width="150" height="45" as="geometry" />
        </mxCell>
        <mxCell id="nsCz9Y8PYD3TY0NwCHBe-133" value="&amp;nbsp;" style="swimlane;horizontal=0;whiteSpace=wrap;html=1;dashed=1;strokeColor=default;fontSize=13;fontColor=#808080;startSize=180;" vertex="1" parent="1">
          <mxGeometry x="-800" y="115" width="740" height="390" as="geometry" />
        </mxCell>
        <mxCell id="nsCz9Y8PYD3TY0NwCHBe-137" value="" style="rounded=0;whiteSpace=wrap;html=1;dashed=1;strokeColor=#d79b00;fontSize=24;fillColor=#ffe6cc;" vertex="1" parent="nsCz9Y8PYD3TY0NwCHBe-133">
          <mxGeometry x="220" y="145" width="390" height="25" as="geometry" />
        </mxCell>
        <mxCell id="nsCz9Y8PYD3TY0NwCHBe-136" value="" style="rounded=0;whiteSpace=wrap;html=1;dashed=1;strokeColor=#b85450;fontSize=24;fillColor=#f8cecc;" vertex="1" parent="nsCz9Y8PYD3TY0NwCHBe-133">
          <mxGeometry x="10" y="80" width="170" height="35" as="geometry" />
        </mxCell>
        <mxCell id="nsCz9Y8PYD3TY0NwCHBe-134" value="&lt;ul style=&quot;font-size: 24px;&quot;&gt;&lt;li style=&quot;font-size: 24px;&quot;&gt;Breakfast&lt;/li&gt;&lt;li style=&quot;font-size: 24px;&quot;&gt;Lunch&lt;/li&gt;&lt;li style=&quot;font-size: 24px;&quot;&gt;Dinner&lt;/li&gt;&lt;li style=&quot;font-size: 24px;&quot;&gt;Snacks&lt;/li&gt;&lt;li style=&quot;font-size: 24px;&quot;&gt;Desserts&lt;/li&gt;&lt;li style=&quot;font-size: 24px;&quot;&gt;Appetizers&lt;/li&gt;&lt;li style=&quot;font-size: 24px;&quot;&gt;Soups&lt;/li&gt;&lt;li style=&quot;font-size: 24px;&quot;&gt;Salads&lt;/li&gt;&lt;/ul&gt;" style="text;strokeColor=none;fillColor=none;html=1;whiteSpace=wrap;verticalAlign=middle;overflow=hidden;dashed=1;fontSize=24;fontColor=#808080;" vertex="1" parent="nsCz9Y8PYD3TY0NwCHBe-133">
          <mxGeometry y="45" width="153" height="310" as="geometry" />
        </mxCell>
        <mxCell id="nsCz9Y8PYD3TY0NwCHBe-135" value="&lt;ol&gt;&lt;li&gt;Eggs Benedict&lt;/li&gt;&lt;li&gt;Old Fashioned Pancakes&lt;/li&gt;&lt;li&gt;Strawberry Stuffed French Toast&lt;/li&gt;&lt;/ol&gt;" style="text;strokeColor=none;fillColor=none;html=1;whiteSpace=wrap;verticalAlign=middle;overflow=hidden;dashed=1;fontSize=24;fontColor=#808080;" vertex="1" parent="nsCz9Y8PYD3TY0NwCHBe-133">
          <mxGeometry x="210" y="45" width="490" height="170" as="geometry" />
        </mxCell>
        <mxCell id="nsCz9Y8PYD3TY0NwCHBe-119" value="Logout" style="ellipse;shape=cloud;whiteSpace=wrap;html=1;strokeColor=default;fontSize=13;fontColor=#808080;dashed=1;" vertex="1" parent="1">
          <mxGeometry x="263" y="27.5" width="150" height="45" as="geometry" />
        </mxCell>
        <mxCell id="nsCz9Y8PYD3TY0NwCHBe-117" value="" style="whiteSpace=wrap;html=1;aspect=fixed;strokeColor=default;fontSize=24;fontColor=#808080;" vertex="1" parent="1">
          <mxGeometry x="2840.5" width="340" height="340" as="geometry" />
        </mxCell>
        <mxCell id="nsCz9Y8PYD3TY0NwCHBe-116" value="" style="whiteSpace=wrap;html=1;aspect=fixed;strokeColor=default;fontSize=24;fontColor=#808080;" vertex="1" parent="1">
          <mxGeometry x="2478" width="340" height="340" as="geometry" />
        </mxCell>
        <mxCell id="nsCz9Y8PYD3TY0NwCHBe-63" value="https://www.jqueryscript.net/form/populate-select-Options.html" style="ellipse;shape=cloud;whiteSpace=wrap;html=1;" vertex="1" parent="1">
          <mxGeometry x="556" y="-200" width="270" height="100" as="geometry" />
        </mxCell>
        <mxCell id="nsCz9Y8PYD3TY0NwCHBe-62" value="Alternate - sequelize based on keyword &amp;amp; result in relevant recipe titles" style="whiteSpace=wrap;html=1;aspect=fixed;" vertex="1" parent="1">
          <mxGeometry x="645" y="-70" width="120" height="120" as="geometry" />
        </mxCell>
        <mxCell id="13" value="" style="verticalLabelPosition=bottom;verticalAlign=top;strokeWidth=1;shape=mxgraph.mockup.graphics.iconGrid;strokeColor=#CCCCCC;gridSize=1,1;" parent="1" vertex="1">
          <mxGeometry x="20" y="120" width="570" height="480" as="geometry" />
        </mxCell>
        <mxCell id="2" value="Recipe Book" style="text;spacingTop=-5;fontSize=18;fontStyle=0" parent="1" vertex="1">
          <mxGeometry x="70" y="30" width="230" height="20" as="geometry" />
        </mxCell>
        <mxCell id="3" value="" style="line;strokeWidth=1" parent="1" vertex="1">
          <mxGeometry x="20" y="60" width="780" height="10" as="geometry" />
        </mxCell>
        <mxCell id="4" value="" style="line;strokeWidth=1" parent="1" vertex="1">
          <mxGeometry x="20" y="90" width="780" height="10" as="geometry" />
        </mxCell>
        <mxCell id="5" value="Home" style="text;spacingTop=-5;" parent="1" vertex="1">
          <mxGeometry x="20" y="70.00000000000009" width="30" height="20" as="geometry" />
        </mxCell>
        <mxCell id="6" value="About" style="text;spacingTop=-5;" parent="1" vertex="1">
          <mxGeometry x="59.999999999999936" y="70.00000000000016" width="30" height="20" as="geometry" />
        </mxCell>
        <mxCell id="8" value="Recipe 1" style="text;spacingTop=-5;" parent="1" vertex="1">
          <mxGeometry x="20" y="120" width="30" height="20" as="geometry" />
        </mxCell>
        <mxCell id="9" value="Lorem ipsum dolor sit amet, consectetur adipisicing elit, sed do eiusmod tempor incididunt ut labore et dolore magna aliqua. Ut enim ad minim veniam, quis nostrud exercitation ullamco laboris nisi ut aliquip ex ea commodo consequat. Duis aute irure dolor in reprehenderit in voluptate velit esse cillum dolore eu fugiat nulla pariatur. Excepteur sint occaecat cupidatat non proident, sunt in culpa qui officia deserunt mollit anim id est laborum.&#xa;Sed ut perspiciatis unde omnis iste natus error sit voluptatem accusantium doloremque laudantium, totam rem aperiam, eaque ipsa quae ab illo inventore veritatis et quasi architecto beatae vitae dicta sunt explicabo. Nemo enim ipsam voluptatem quia voluptas sit aspernatur aut odit aut fugit, sed quia consequuntur magni dolores eos qui ratione voluptatem sequi nesciunt. Neque porro quisquam est, qui dolorem ipsum quia dolor sit amet, consectetur, adipisci velit, sed quia non numquam eius modi tempora incidunt ut labore et dolore magnam aliquam quaerat voluptatem. Ut enim ad minima veniam, quis nostrum exercitationem ullam corporis suscipit laboriosam, nisi ut aliquid ex ea commodi consequatur? Quis autem vel eum iure reprehenderit qui in ea voluptate velit esse quam nihil molestiae consequatur, vel illum qui dolorem eum fugiat quo voluptas nulla pariatur?" style="text;spacingTop=-5;whiteSpace=wrap;align=left" parent="1" vertex="1">
          <mxGeometry x="20" y="150" width="530" height="250" as="geometry" />
        </mxCell>
        <mxCell id="22" value="Tentative add&#39;tl navigation" style="text;spacingTop=-5;" parent="1" vertex="1">
          <mxGeometry x="99.99999999999997" y="70.00000000000026" width="30" height="20" as="geometry" />
        </mxCell>
        <mxCell id="25" value="" style="verticalLabelPosition=bottom;verticalAlign=top;strokeWidth=1;shape=mxgraph.mockup.graphics.iconGrid;strokeColor=#CCCCCC;gridSize=1,1;" parent="1" vertex="1">
          <mxGeometry x="100" y="370" width="360" height="200" as="geometry" />
        </mxCell>
        <mxCell id="26" value="Article&#xa;Picture" style="text;spacingTop=-5;align=center;verticalAlign=middle;fontSize=36;fontColor=#CCCCCC" parent="1" vertex="1">
          <mxGeometry x="100" y="370" width="360" height="200" as="geometry" />
        </mxCell>
        <mxCell id="27" value="" style="verticalLabelPosition=bottom;verticalAlign=top;strokeWidth=1;shape=mxgraph.mockup.graphics.iconGrid;strokeColor=#CCCCCC;gridSize=1,1;" parent="1" vertex="1">
          <mxGeometry x="20" y="620" width="570" height="480" as="geometry" />
        </mxCell>
        <mxCell id="28" value="Recipe 2" style="text;spacingTop=-5;" parent="1" vertex="1">
          <mxGeometry x="20" y="620" width="30" height="20" as="geometry" />
        </mxCell>
        <mxCell id="29" value="Lorem ipsum dolor sit amet, consectetur adipisicing elit, sed do eiusmod tempor incididunt ut labore et dolore magna aliqua. Ut enim ad minim veniam, quis nostrud exercitation ullamco laboris nisi ut aliquip ex ea commodo consequat. Duis aute irure dolor in reprehenderit in voluptate velit esse cillum dolore eu fugiat nulla pariatur. Excepteur sint occaecat cupidatat non proident, sunt in culpa qui officia deserunt mollit anim id est laborum.&#xa;Sed ut perspiciatis unde omnis iste natus error sit voluptatem accusantium doloremque laudantium, totam rem aperiam, eaque ipsa quae ab illo inventore veritatis et quasi architecto beatae vitae dicta sunt explicabo. Nemo enim ipsam voluptatem quia voluptas sit aspernatur aut odit aut fugit, sed quia consequuntur magni dolores eos qui ratione voluptatem sequi nesciunt. Neque porro quisquam est, qui dolorem ipsum quia dolor sit amet, consectetur, adipisci velit, sed quia non numquam eius modi tempora incidunt ut labore et dolore magnam aliquam quaerat voluptatem. Ut enim ad minima veniam, quis nostrum exercitationem ullam corporis suscipit laboriosam, nisi ut aliquid ex ea commodi consequatur? Quis autem vel eum iure reprehenderit qui in ea voluptate velit esse quam nihil molestiae consequatur, vel illum qui dolorem eum fugiat quo voluptas nulla pariatur?" style="text;spacingTop=-5;whiteSpace=wrap;align=left" parent="1" vertex="1">
          <mxGeometry x="20" y="650" width="530" height="250" as="geometry" />
        </mxCell>
        <mxCell id="30" value="" style="verticalLabelPosition=bottom;verticalAlign=top;strokeWidth=1;shape=mxgraph.mockup.graphics.iconGrid;strokeColor=#CCCCCC;gridSize=1,1;" parent="1" vertex="1">
          <mxGeometry x="100" y="870" width="360" height="200" as="geometry" />
        </mxCell>
        <mxCell id="31" value="Article&#xa;Picture" style="text;spacingTop=-5;align=center;verticalAlign=middle;fontSize=36;fontColor=#CCCCCC" parent="1" vertex="1">
          <mxGeometry x="100" y="870" width="360" height="200" as="geometry" />
        </mxCell>
        <mxCell id="32" value="" style="verticalLabelPosition=bottom;verticalAlign=top;strokeWidth=1;shape=mxgraph.mockup.graphics.iconGrid;strokeColor=#CCCCCC;gridSize=1,1;" parent="1" vertex="1">
          <mxGeometry x="20" y="1120" width="570" height="480" as="geometry" />
        </mxCell>
        <mxCell id="33" value="Recipe 3" style="text;spacingTop=-5;" parent="1" vertex="1">
          <mxGeometry x="20" y="1120" width="30" height="20" as="geometry" />
        </mxCell>
        <mxCell id="34" value="Lorem ipsum dolor sit amet, consectetur adipisicing elit, sed do eiusmod tempor incididunt ut labore et dolore magna aliqua. Ut enim ad minim veniam, quis nostrud exercitation ullamco laboris nisi ut aliquip ex ea commodo consequat. Duis aute irure dolor in reprehenderit in voluptate velit esse cillum dolore eu fugiat nulla pariatur. Excepteur sint occaecat cupidatat non proident, sunt in culpa qui officia deserunt mollit anim id est laborum.&#xa;Sed ut perspiciatis unde omnis iste natus error sit voluptatem accusantium doloremque laudantium, totam rem aperiam, eaque ipsa quae ab illo inventore veritatis et quasi architecto beatae vitae dicta sunt explicabo. Nemo enim ipsam voluptatem quia voluptas sit aspernatur aut odit aut fugit, sed quia consequuntur magni dolores eos qui ratione voluptatem sequi nesciunt. Neque porro quisquam est, qui dolorem ipsum quia dolor sit amet, consectetur, adipisci velit, sed quia non numquam eius modi tempora incidunt ut labore et dolore magnam aliquam quaerat voluptatem. Ut enim ad minima veniam, quis nostrum exercitationem ullam corporis suscipit laboriosam, nisi ut aliquid ex ea commodi consequatur? Quis autem vel eum iure reprehenderit qui in ea voluptate velit esse quam nihil molestiae consequatur, vel illum qui dolorem eum fugiat quo voluptas nulla pariatur?" style="text;spacingTop=-5;whiteSpace=wrap;align=left" parent="1" vertex="1">
          <mxGeometry x="20" y="1150" width="530" height="250" as="geometry" />
        </mxCell>
        <mxCell id="35" value="" style="verticalLabelPosition=bottom;verticalAlign=top;strokeWidth=1;shape=mxgraph.mockup.graphics.iconGrid;strokeColor=#CCCCCC;gridSize=1,1;" parent="1" vertex="1">
          <mxGeometry x="100" y="1370" width="360" height="200" as="geometry" />
        </mxCell>
        <mxCell id="36" value="Article&#xa;Picture" style="text;spacingTop=-5;align=center;verticalAlign=middle;fontSize=36;fontColor=#CCCCCC" parent="1" vertex="1">
          <mxGeometry x="100" y="1370" width="360" height="200" as="geometry" />
        </mxCell>
        <mxCell id="37" value="" style="verticalLabelPosition=bottom;verticalAlign=top;strokeWidth=1;shape=mxgraph.mockup.misc.rating;strokeColor=#999999;fillColor=#ffff00;emptyFillColor=#ffffff;grade=4;ratingScale=5;ratingStyle=star;" parent="1" vertex="1">
          <mxGeometry x="510.00000000000006" y="585.0000000000002" width="77.5" height="10" as="geometry" />
        </mxCell>
        <mxCell id="38" value="Rate this recipe" style="text;spacingTop=-5;" parent="1" vertex="1">
          <mxGeometry x="410.0000000000001" y="580.0000000000001" width="30" height="20" as="geometry" />
        </mxCell>
        <mxCell id="41" value="" style="verticalLabelPosition=bottom;verticalAlign=top;strokeWidth=1;shape=mxgraph.mockup.misc.rating;strokeColor=#999999;fillColor=#ffff00;emptyFillColor=#ffffff;grade=4;ratingScale=5;ratingStyle=star;" parent="1" vertex="1">
          <mxGeometry x="509.99999999999994" y="1085" width="77.5" height="10" as="geometry" />
        </mxCell>
        <mxCell id="42" value="Rate this recipe" style="text;spacingTop=-5;" parent="1" vertex="1">
          <mxGeometry x="410.00000000000006" y="1080" width="30" height="20" as="geometry" />
        </mxCell>
        <mxCell id="43" value="" style="verticalLabelPosition=bottom;verticalAlign=top;strokeWidth=1;shape=mxgraph.mockup.misc.rating;strokeColor=#999999;fillColor=#ffff00;emptyFillColor=#ffffff;grade=4;ratingScale=5;ratingStyle=star;" parent="1" vertex="1">
          <mxGeometry x="510.0000000000001" y="1584.9999999999998" width="77.5" height="10" as="geometry" />
        </mxCell>
        <mxCell id="44" value="Rate this recipe" style="text;spacingTop=-5;" parent="1" vertex="1">
          <mxGeometry x="410.00000000000017" y="1579.9999999999998" width="30" height="20" as="geometry" />
        </mxCell>
        <mxCell id="47" value="Tags: Tag1 Tag2 Tag3 Tag4" style="text;spacingTop=-5;" parent="1" vertex="1">
          <mxGeometry x="20" y="580.0000000000002" width="210" height="20" as="geometry" />
        </mxCell>
        <mxCell id="48" value="Tags: Tag1 Tag2 Tag3 Tag4" style="text;spacingTop=-5;" parent="1" vertex="1">
          <mxGeometry x="20" y="1080" width="210" height="20" as="geometry" />
        </mxCell>
        <mxCell id="49" value="Tags: Tag1 Tag2 Tag3 Tag4" style="text;spacingTop=-5;" parent="1" vertex="1">
          <mxGeometry x="20" y="1579.9999999999998" width="210" height="20" as="geometry" />
        </mxCell>
        <mxCell id="nsCz9Y8PYD3TY0NwCHBe-61" value="Search Bar - Auto-fill Dropdown, clickable" style="rounded=1;whiteSpace=wrap;html=1;" vertex="1" parent="1">
          <mxGeometry x="570" y="65" width="230" height="30" as="geometry" />
        </mxCell>
        <mxCell id="nsCz9Y8PYD3TY0NwCHBe-64" value="Search Results" style="rounded=0;whiteSpace=wrap;html=1;" vertex="1" parent="1">
          <mxGeometry x="55" y="-180" width="445" height="130" as="geometry" />
        </mxCell>
        <mxCell id="nsCz9Y8PYD3TY0NwCHBe-65" value="Contribute New Recipes" style="rounded=0;whiteSpace=wrap;html=1;" vertex="1" parent="1">
          <mxGeometry x="870" y="-180" width="445" height="130" as="geometry" />
        </mxCell>
        <mxCell id="nsCz9Y8PYD3TY0NwCHBe-66" value="Ingredient 1" style="rounded=1;whiteSpace=wrap;html=1;" vertex="1" parent="1">
          <mxGeometry x="870" y="50" width="420" height="30" as="geometry" />
        </mxCell>
        <mxCell id="nsCz9Y8PYD3TY0NwCHBe-70" value="Ingredient 4" style="rounded=1;whiteSpace=wrap;html=1;" vertex="1" parent="1">
          <mxGeometry x="870" y="170" width="420" height="30" as="geometry" />
        </mxCell>
        <mxCell id="nsCz9Y8PYD3TY0NwCHBe-71" value="Ingredient 3" style="rounded=1;whiteSpace=wrap;html=1;" vertex="1" parent="1">
          <mxGeometry x="870" y="130" width="420" height="30" as="geometry" />
        </mxCell>
        <mxCell id="nsCz9Y8PYD3TY0NwCHBe-72" value="Ingredient 2" style="rounded=1;whiteSpace=wrap;html=1;" vertex="1" parent="1">
          <mxGeometry x="870" y="90" width="420" height="30" as="geometry" />
        </mxCell>
        <mxCell id="nsCz9Y8PYD3TY0NwCHBe-73" value="User Provided&#xa;Image" style="text;spacingTop=-5;align=center;verticalAlign=middle;fontSize=36;fontColor=#808080;strokeColor=#666666;fillColor=#f5f5f5;" vertex="1" parent="1">
          <mxGeometry x="1320" y="30" width="290" height="190" as="geometry" />
        </mxCell>
        <mxCell id="nsCz9Y8PYD3TY0NwCHBe-74" value="logged_In=true" style="ellipse;shape=cloud;whiteSpace=wrap;html=1;strokeColor=default;fontColor=#808080;" vertex="1" parent="1">
          <mxGeometry x="1360" y="-150" width="250" height="80" as="geometry" />
        </mxCell>
        <mxCell id="nsCz9Y8PYD3TY0NwCHBe-75" value="Recipe Description" style="rounded=0;whiteSpace=wrap;html=1;strokeColor=default;fontColor=#808080;" vertex="1" parent="1">
          <mxGeometry x="880" y="260" width="720" height="120" as="geometry" />
        </mxCell>
        <mxCell id="nsCz9Y8PYD3TY0NwCHBe-76" value="Shopping List" style="rounded=0;whiteSpace=wrap;html=1;strokeColor=default;fontColor=#808080;dashed=1;fontStyle=2" vertex="1" parent="1">
          <mxGeometry x="920" y="10" width="330" height="30" as="geometry" />
        </mxCell>
        <mxCell id="nsCz9Y8PYD3TY0NwCHBe-79" value="Will need a handler to ignore blank fields on submit&lt;br&gt;-validator? if-blank, do nothing&lt;br&gt;2nd handler to add more blank fields on request&lt;br&gt;&lt;br&gt;Also applies to the ingredients list" style="ellipse;shape=cloud;whiteSpace=wrap;html=1;dashed=1;strokeColor=default;fontColor=#808080;" vertex="1" parent="1">
          <mxGeometry x="1099" y="385" width="501" height="190" as="geometry" />
        </mxCell>
        <mxCell id="nsCz9Y8PYD3TY0NwCHBe-80" value="&lt;font style=&quot;font-size: 18px;&quot;&gt;Add more.... &lt;i style=&quot;&quot;&gt;(button)&lt;/i&gt;&lt;/font&gt;" style="text;strokeColor=none;fillColor=none;html=1;fontSize=24;fontStyle=1;verticalAlign=middle;align=center;dashed=1;fontColor=#808080;" vertex="1" parent="1">
          <mxGeometry x="1035" y="190" width="100" height="40" as="geometry" />
        </mxCell>
        <mxCell id="nsCz9Y8PYD3TY0NwCHBe-81" value="&lt;font style=&quot;font-size: 18px;&quot;&gt;Add more.... &lt;i style=&quot;&quot;&gt;(button)&lt;/i&gt;&lt;/font&gt;" style="text;strokeColor=none;fillColor=none;html=1;fontSize=24;fontStyle=1;verticalAlign=middle;align=center;dashed=1;fontColor=#808080;" vertex="1" parent="1">
          <mxGeometry x="950" y="700" width="100" height="40" as="geometry" />
        </mxCell>
        <mxCell id="nsCz9Y8PYD3TY0NwCHBe-82" value="Selected from Category/Search" style="rounded=0;whiteSpace=wrap;html=1;" vertex="1" parent="1">
          <mxGeometry x="1720" y="-180" width="445" height="130" as="geometry" />
        </mxCell>
        <mxCell id="nsCz9Y8PYD3TY0NwCHBe-84" value="Strawberry Stuffed French Toast" style="text;spacingTop=-5;fontSize=24;" vertex="1" parent="1">
          <mxGeometry x="1720" y="-30" width="350" height="40" as="geometry" />
        </mxCell>
        <mxCell id="nsCz9Y8PYD3TY0NwCHBe-85" value="Lorem ipsum dolor sit amet, consectetur adipisicing elit, sed do eiusmod tempor incididunt ut labore et dolore magna aliqua. Ut enim ad minim veniam, quis nostrud exercitation ullamco laboris nisi ut aliquip ex ea commodo consequat. Duis aute irure dolor in reprehenderit in voluptate velit esse cillum dolore eu fugiat nulla pariatur. Excepteur sint occaecat cupidatat non proident, sunt in culpa qui officia deserunt mollit anim id est laborum.&#xa;Sed ut perspiciatis unde omnis iste natus error sit voluptatem accusantium doloremque laudantium, totam rem aperiam, eaque ipsa quae ab illo inventore veritatis et quasi architecto beatae vitae dicta sunt explicabo. Nemo enim ipsam voluptatem quia voluptas sit aspernatur aut odit aut fugit, sed quia consequuntur magni dolores eos qui ratione voluptatem sequi nesciunt. Neque porro quisquam est, qui dolorem ipsum quia dolor sit amet, consectetur, adipisci velit, sed quia non numquam eius modi tempora incidunt ut labore et dolore magnam aliquam quaerat voluptatem. Ut enim ad minima veniam, quis nostrum exercitationem ullam corporis suscipit laboriosam, nisi ut aliquid ex ea commodi consequatur? Quis autem vel eum iure reprehenderit qui in ea voluptate velit esse quam nihil molestiae consequatur, vel illum qui dolorem eum fugiat quo voluptas nulla pariatur?" style="text;spacingTop=-5;whiteSpace=wrap;align=left" vertex="1" parent="1">
          <mxGeometry x="1720" y="30" width="420" height="330" as="geometry" />
        </mxCell>
        <mxCell id="nsCz9Y8PYD3TY0NwCHBe-86" value="Article&#xa;Picture" style="text;spacingTop=-5;align=center;verticalAlign=middle;fontSize=36;fontColor=#CCCCCC" vertex="1" parent="1">
          <mxGeometry x="2165" y="30" width="290" height="190" as="geometry" />
        </mxCell>
        <mxCell id="nsCz9Y8PYD3TY0NwCHBe-87" value="" style="verticalLabelPosition=bottom;verticalAlign=top;strokeWidth=1;shape=mxgraph.mockup.misc.rating;strokeColor=#999999;fillColor=#ffff00;emptyFillColor=#ffffff;grade=4;ratingScale=5;ratingStyle=star;" vertex="1" parent="1">
          <mxGeometry x="2050" y="325.0000000000002" width="77.5" height="10" as="geometry" />
        </mxCell>
        <mxCell id="nsCz9Y8PYD3TY0NwCHBe-88" value="Rate this recipe" style="text;spacingTop=-5;" vertex="1" parent="1">
          <mxGeometry x="1950" y="320.0000000000001" width="30" height="20" as="geometry" />
        </mxCell>
        <mxCell id="nsCz9Y8PYD3TY0NwCHBe-89" value="Tags: Tag1 Tag2 Tag3 Tag4" style="text;spacingTop=-5;" vertex="1" parent="1">
          <mxGeometry x="1720" y="320.0000000000002" width="210" height="20" as="geometry" />
        </mxCell>
        <mxCell id="nsCz9Y8PYD3TY0NwCHBe-94" value="&lt;ul style=&quot;font-size: 30px;&quot;&gt;&lt;li style=&quot;font-size: 30px;&quot;&gt;Step 1&lt;/li&gt;&lt;li style=&quot;font-size: 30px;&quot;&gt;Step 2&lt;/li&gt;&lt;li style=&quot;font-size: 30px;&quot;&gt;Step 3&lt;/li&gt;&lt;li style=&quot;font-size: 30px;&quot;&gt;Step 4&lt;/li&gt;&lt;li style=&quot;font-size: 30px;&quot;&gt;Step 5&lt;/li&gt;&lt;li style=&quot;font-size: 30px;&quot;&gt;Step 6&lt;/li&gt;&lt;li style=&quot;font-size: 30px;&quot;&gt;...&lt;/li&gt;&lt;/ul&gt;" style="text;strokeColor=none;fillColor=none;html=1;whiteSpace=wrap;verticalAlign=middle;overflow=hidden;dashed=1;fontColor=#808080;spacingTop=0;spacing=0;fontSize=30;" vertex="1" parent="1">
          <mxGeometry x="1720" y="680" width="470" height="270" as="geometry" />
        </mxCell>
        <mxCell id="nsCz9Y8PYD3TY0NwCHBe-95" value="&lt;ul style=&quot;font-size: 30px;&quot;&gt;&lt;li style=&quot;font-size: 30px;&quot;&gt;Bread&lt;/li&gt;&lt;li style=&quot;font-size: 30px;&quot;&gt;Strawberries&lt;/li&gt;&lt;li style=&quot;font-size: 30px;&quot;&gt;Eggs&lt;/li&gt;&lt;li style=&quot;font-size: 30px;&quot;&gt;Ricotta&lt;/li&gt;&lt;li style=&quot;font-size: 30px;&quot;&gt;...&lt;/li&gt;&lt;/ul&gt;" style="text;strokeColor=none;fillColor=none;html=1;whiteSpace=wrap;verticalAlign=middle;overflow=hidden;dashed=1;fontColor=#808080;spacingTop=0;spacing=0;fontSize=30;" vertex="1" parent="1">
          <mxGeometry x="1720" y="400" width="470" height="270" as="geometry" />
        </mxCell>
        <mxCell id="nsCz9Y8PYD3TY0NwCHBe-96" value="Reviews" style="swimlane;fontStyle=0;childLayout=stackLayout;horizontal=1;startSize=30;horizontalStack=0;resizeParent=1;resizeParentMax=0;resizeLast=0;collapsible=1;marginBottom=0;whiteSpace=wrap;html=1;dashed=1;strokeColor=default;fontSize=24;fontColor=#808080;" vertex="1" parent="1">
          <mxGeometry x="1755" y="1030" width="655" height="120" as="geometry" />
        </mxCell>
        <mxCell id="nsCz9Y8PYD3TY0NwCHBe-97" value="Review 1" style="text;strokeColor=none;fillColor=none;align=left;verticalAlign=middle;spacingLeft=4;spacingRight=4;overflow=hidden;points=[[0,0.5],[1,0.5]];portConstraint=eastwest;rotatable=0;whiteSpace=wrap;html=1;dashed=1;fontSize=24;fontColor=#808080;" vertex="1" parent="nsCz9Y8PYD3TY0NwCHBe-96">
          <mxGeometry y="30" width="655" height="30" as="geometry" />
        </mxCell>
        <mxCell id="nsCz9Y8PYD3TY0NwCHBe-98" value="Review 2" style="text;strokeColor=none;fillColor=none;align=left;verticalAlign=middle;spacingLeft=4;spacingRight=4;overflow=hidden;points=[[0,0.5],[1,0.5]];portConstraint=eastwest;rotatable=0;whiteSpace=wrap;html=1;dashed=1;fontSize=24;fontColor=#808080;" vertex="1" parent="nsCz9Y8PYD3TY0NwCHBe-96">
          <mxGeometry y="60" width="655" height="30" as="geometry" />
        </mxCell>
        <mxCell id="nsCz9Y8PYD3TY0NwCHBe-99" value="Review 3" style="text;strokeColor=none;fillColor=none;align=left;verticalAlign=middle;spacingLeft=4;spacingRight=4;overflow=hidden;points=[[0,0.5],[1,0.5]];portConstraint=eastwest;rotatable=0;whiteSpace=wrap;html=1;dashed=1;fontSize=24;fontColor=#808080;" vertex="1" parent="nsCz9Y8PYD3TY0NwCHBe-96">
          <mxGeometry y="90" width="655" height="30" as="geometry" />
        </mxCell>
        <mxCell id="nsCz9Y8PYD3TY0NwCHBe-100" value="Rate this Recipe!" style="rounded=1;whiteSpace=wrap;html=1;dashed=1;strokeColor=default;fontSize=24;fontColor=#808080;" vertex="1" parent="1">
          <mxGeometry x="1755" y="1000" width="415" height="30" as="geometry" />
        </mxCell>
        <mxCell id="nsCz9Y8PYD3TY0NwCHBe-101" value="Step 1" style="rounded=1;whiteSpace=wrap;html=1;" vertex="1" parent="1">
          <mxGeometry x="880" y="530" width="420" height="30" as="geometry" />
        </mxCell>
        <mxCell id="nsCz9Y8PYD3TY0NwCHBe-102" value="Step 2" style="rounded=1;whiteSpace=wrap;html=1;" vertex="1" parent="1">
          <mxGeometry x="880" y="560" width="420" height="30" as="geometry" />
        </mxCell>
        <mxCell id="nsCz9Y8PYD3TY0NwCHBe-103" value="Step 3" style="rounded=1;whiteSpace=wrap;html=1;" vertex="1" parent="1">
          <mxGeometry x="880" y="590" width="420" height="30" as="geometry" />
        </mxCell>
        <mxCell id="nsCz9Y8PYD3TY0NwCHBe-104" value="Step 4" style="rounded=1;whiteSpace=wrap;html=1;" vertex="1" parent="1">
          <mxGeometry x="880" y="620" width="420" height="30" as="geometry" />
        </mxCell>
        <mxCell id="nsCz9Y8PYD3TY0NwCHBe-105" value="Step 5" style="rounded=1;whiteSpace=wrap;html=1;" vertex="1" parent="1">
          <mxGeometry x="880" y="650" width="420" height="30" as="geometry" />
        </mxCell>
        <mxCell id="nsCz9Y8PYD3TY0NwCHBe-106" value="Step 6" style="rounded=1;whiteSpace=wrap;html=1;" vertex="1" parent="1">
          <mxGeometry x="880" y="680" width="420" height="30" as="geometry" />
        </mxCell>
        <mxCell id="nsCz9Y8PYD3TY0NwCHBe-107" value="Login/New User Fields&lt;br&gt;&lt;br&gt;Use Modal??" style="rounded=0;whiteSpace=wrap;html=1;" vertex="1" parent="1">
          <mxGeometry x="2499" y="-180" width="445" height="130" as="geometry" />
        </mxCell>
        <mxCell id="nsCz9Y8PYD3TY0NwCHBe-108" value="New User" style="rounded=1;whiteSpace=wrap;html=1;strokeColor=default;fontSize=24;fontColor=#808080;" vertex="1" parent="1">
          <mxGeometry x="2499" y="20" width="281" height="60" as="geometry" />
        </mxCell>
        <mxCell id="nsCz9Y8PYD3TY0NwCHBe-109" value="Login" style="rounded=1;whiteSpace=wrap;html=1;strokeColor=default;fontSize=24;fontColor=#808080;" vertex="1" parent="1">
          <mxGeometry x="2870" y="20" width="281" height="60" as="geometry" />
        </mxCell>
        <mxCell id="nsCz9Y8PYD3TY0NwCHBe-110" value="First" style="rounded=1;whiteSpace=wrap;html=1;strokeColor=default;fontSize=24;fontColor=#808080;" vertex="1" parent="1">
          <mxGeometry x="2499" y="115" width="281" height="35" as="geometry" />
        </mxCell>
        <mxCell id="nsCz9Y8PYD3TY0NwCHBe-111" value="Last" style="rounded=1;whiteSpace=wrap;html=1;strokeColor=default;fontSize=24;fontColor=#808080;" vertex="1" parent="1">
          <mxGeometry x="2499" y="167.5" width="281" height="35" as="geometry" />
        </mxCell>
        <mxCell id="nsCz9Y8PYD3TY0NwCHBe-112" value="Email" style="rounded=1;whiteSpace=wrap;html=1;strokeColor=default;fontSize=24;fontColor=#808080;" vertex="1" parent="1">
          <mxGeometry x="2499" y="220" width="281" height="35" as="geometry" />
        </mxCell>
        <mxCell id="nsCz9Y8PYD3TY0NwCHBe-113" value="Password" style="rounded=1;whiteSpace=wrap;html=1;strokeColor=default;fontSize=24;fontColor=#808080;" vertex="1" parent="1">
          <mxGeometry x="2499" y="274" width="281" height="35" as="geometry" />
        </mxCell>
        <mxCell id="nsCz9Y8PYD3TY0NwCHBe-114" value="Email" style="rounded=1;whiteSpace=wrap;html=1;strokeColor=default;fontSize=24;fontColor=#808080;" vertex="1" parent="1">
          <mxGeometry x="2870" y="113.5" width="281" height="35" as="geometry" />
        </mxCell>
        <mxCell id="nsCz9Y8PYD3TY0NwCHBe-115" value="Password" style="rounded=1;whiteSpace=wrap;html=1;strokeColor=default;fontSize=24;fontColor=#808080;" vertex="1" parent="1">
          <mxGeometry x="2870" y="167.5" width="281" height="35" as="geometry" />
        </mxCell>
        <mxCell id="nsCz9Y8PYD3TY0NwCHBe-118" value="Login/Signup" style="text;spacingTop=-5;" vertex="1" parent="1">
          <mxGeometry x="259.99999999999994" y="70.00000000000016" width="30" height="20" as="geometry" />
        </mxCell>
        <mxCell id="nsCz9Y8PYD3TY0NwCHBe-120" value="Contact US&lt;br&gt;Brought to you By...." style="rounded=0;whiteSpace=wrap;html=1;dashed=1;strokeColor=default;fontSize=13;fontColor=#808080;" vertex="1" parent="1">
          <mxGeometry x="20" y="1640" width="780" height="60" as="geometry" />
        </mxCell>
        <mxCell id="nsCz9Y8PYD3TY0NwCHBe-121" value="Contact US&lt;br&gt;Brought to you By...." style="rounded=0;whiteSpace=wrap;html=1;dashed=1;strokeColor=default;fontSize=13;fontColor=#808080;" vertex="1" parent="1">
          <mxGeometry x="840" y="1640" width="780" height="60" as="geometry" />
        </mxCell>
        <mxCell id="nsCz9Y8PYD3TY0NwCHBe-122" value="Contact US&lt;br&gt;Brought to you By...." style="rounded=0;whiteSpace=wrap;html=1;dashed=1;strokeColor=default;fontSize=13;fontColor=#808080;" vertex="1" parent="1">
          <mxGeometry x="1670" y="1640" width="780" height="60" as="geometry" />
        </mxCell>
        <mxCell id="nsCz9Y8PYD3TY0NwCHBe-123" value="Homepage/Explore" style="rounded=0;whiteSpace=wrap;html=1;" vertex="1" parent="1">
          <mxGeometry x="-810" y="-180" width="445" height="130" as="geometry" />
        </mxCell>
        <mxCell id="nsCz9Y8PYD3TY0NwCHBe-124" value="Recipe Book" style="text;spacingTop=-5;fontSize=18;fontStyle=0" vertex="1" parent="1">
          <mxGeometry x="-753" y="30" width="230" height="20" as="geometry" />
        </mxCell>
        <mxCell id="nsCz9Y8PYD3TY0NwCHBe-125" value="" style="line;strokeWidth=1" vertex="1" parent="1">
          <mxGeometry x="-803" y="60" width="780" height="10" as="geometry" />
        </mxCell>
        <mxCell id="nsCz9Y8PYD3TY0NwCHBe-126" value="Home" style="text;spacingTop=-5;" vertex="1" parent="1">
          <mxGeometry x="-803" y="70.00000000000009" width="30" height="20" as="geometry" />
        </mxCell>
        <mxCell id="nsCz9Y8PYD3TY0NwCHBe-127" value="About" style="text;spacingTop=-5;" vertex="1" parent="1">
          <mxGeometry x="-763" y="70.00000000000016" width="30" height="20" as="geometry" />
        </mxCell>
        <mxCell id="nsCz9Y8PYD3TY0NwCHBe-128" value="Tentative add&#39;tl navigation" style="text;spacingTop=-5;" vertex="1" parent="1">
          <mxGeometry x="-723" y="70.00000000000026" width="30" height="20" as="geometry" />
        </mxCell>
        <mxCell id="nsCz9Y8PYD3TY0NwCHBe-129" value="Search Bar - Auto-fill Dropdown, clickable" style="rounded=1;whiteSpace=wrap;html=1;" vertex="1" parent="1">
          <mxGeometry x="-253" y="65" width="230" height="30" as="geometry" />
        </mxCell>
        <mxCell id="nsCz9Y8PYD3TY0NwCHBe-130" value="Login/Signup" style="text;spacingTop=-5;" vertex="1" parent="1">
          <mxGeometry x="-563" y="70.00000000000016" width="30" height="20" as="geometry" />
        </mxCell>
        <mxCell id="nsCz9Y8PYD3TY0NwCHBe-131" value="" style="line;strokeWidth=1" vertex="1" parent="1">
          <mxGeometry x="-803" y="90" width="780" height="10" as="geometry" />
        </mxCell>
        <mxCell id="nsCz9Y8PYD3TY0NwCHBe-139" value="Contribute" style="text;spacingTop=-5;" vertex="1" parent="1">
          <mxGeometry x="-410" y="70.00000000000016" width="30" height="20" as="geometry" />
        </mxCell>
        <mxCell id="nsCz9Y8PYD3TY0NwCHBe-140" value="" style="shape=image;verticalLabelPosition=bottom;labelBackgroundColor=default;verticalAlign=top;aspect=fixed;imageAspect=0;image=data:image/png,iVBORw0KGgoAAAANSUhEUgAAAVUAAADECAYAAAAvQbJ8AAAgAElEQVR4nOy957IkSZKl96kRd4+IS5JVV/d098yiBQuIQID3fwM8ASALYLCzg2ZVlfSyCCdmpoof6hH3ZtbNyizSM9U7pSIhwZm72THVo0fV5PbqlZkZAGaGqr53fbzdWsNapdaKWgWgtcI0TYzjyDRNlOL3u27g97//Pc+ffcHFxQUQaK2hauu1AiAihBAQkW9djmZm33rsh9i/9/t/3GfYJ99/PIePPiegLSJEIjPoRGwHKFfM1y/Zv/uK5fYVOt9iywEpI7QKtVDKTCsFpplYKlWVZkYxpSkUQE2YxgKh4/z8CUN/hpApRZnGhfkwc3v9inq4oSwNrQYFylxZxollnpnHA00LKQn9NnB2seXZ83POnmzph4hFQbIgFkBtHUuGqB+TYXvG9vwMciT0kdBFZIjEnCAFAgkhk3OmGzIhJ5TGPM9M04E2zkiFXejZWiYvoIcFxgWbG+nQiLcT4/7A25tb7sYDJQg1BEar1Gg8/+2vibueSRcmWxjONuyenHN2cc52K4S6Z7+/ZWqFbrth9/SS7uyMEqBYg5SwIISYSSmRUkKM05wJIWAmWIiklMEC8zLSlglpC+PNW4YU6LqOkBIWBix3SLeFuMFiJnWZlCKmC2WeaGUCK6RglGmkz5E+d1hr3F7fMO4PpJTY7i6RzQVKxNoCtWDzSJ3vKPs9ZdxjtSEixJiJuYMQaRYJMdF1HXUp5Bg43O25evOOw2Kk/oJ08Wu6Z/+IXP6O0r+gpR2aNySBRKMPlSyGxYxavMejdcw7hkTHCQIhhAej3++HFAmpQySSUqLve398xZ9pmnj37h1v375lHEdi9NeFEBiG4fT64zw8YtfDzzjeTj9wln/SHgPCxyb+8bFPAcZPAWr/kU1EVmwWsAAhQFhBpuuoIaD4sTY1UAXV9UqJalgztDaaKQiEINCUpS5MRaltZl4a201j2J4TZCDEgW7bcyHGMvTUuTCPC+WwsNQZQiMGI2UjWUfuoO8TQ9cTY0JapCxGYUbnBmpYA6qipYI60M5XBw79FdIFJCfSkJBNIuQIOSIkgvXEoaMbMmnoCX1EYsAkEPuBrhOSJdqkTIcDh1dXlJuRVJRclHZzwJqyaEOSkGLExIhFqa1wuLlily+I0YjWsLbQyshShE3L9Em4qROlzORtwqJRWNCQIEVUBAsBC0KMiRCzj30EaITYUVpDLfjzkojm50mCEmKGYJgIEjOh69E4UEnUpqCNJn6eA77YEgNiAROj3wzkFBAJ7jxhKAbiwBhSIoWMELElUOpMMUME+r6HpCuoRkLuMBxUY8r0fc+kRhJh0/eU7YYYlVkNaxXBkBUebJ3q9uD2Q/sQR/z+PUZ8X7z4mEP3Q+0EqmaGgk+sh9dmKA1QTPxPmh1fb/ePHS8EEDkdkONBUcwf4+h3vW8PH3sItMfH1Yzv+rufOhjf5cn90Pd/3xPwt/gNn28OhMoKhpYgDZDPoTtQwjWVGaUQaIg1f3FTrCnNImqwqKEqSBJEAmYLbYEkEVDmacLaDaogsSC6eg85sQk7amrEsDAygSRSzuiyIFNAa2HYRIZNotsmQk5UKm2pLG2hYQ4ATZEGUsGakcwoOrPXEQ1CSBHpAqFzz4wcEAIimZQzaZPJ24F+NzBsN6Qu0+WO8+2W2KDqxN3tyOuXbxnf3ZAUekCWhZwzYUggGSNg1lARlmKU8ZakA912QwbIhtrCYWwEy4QhMk0LRdu6MIAVn1cpJpqAWvBFz88CEgJigkjC+kydi3urMRFyT44BEYOa6M4UMUWjoMNASAMqkdKUpkrOAbRizWgoZhG15MdUG6nbUlGaNhYtFEmEfku33ZLPzmipx1ImmfkCMN6hJoSU6HNHW2ZM1aOJZhiK4JGFmRG7CBiRRH++o+VCnaFGkAgmDbOC0MBWBBIwksP7Ywj74fwQ9XGJgQkiepxdGA0hnl77MEL/Lofv+PzngnUKIZxCfbif2CLy3hepvB+Kmxna8JAyZIKPcICTG3w0EfPQRfW91eCxFeLDH/5v5aF+ylN+eCz+Hr1mlQY0oviEEHqwSO0N2zZ0GCmLYsWIQYg00AVTJWEskjlYpCiA0oWOHBIpzOQQKNNEKw4W83JHmWZyv6MbelLKpJDJYUMMgMxYiMShI44Th72ylAqi5LOB3fmWbiNINEotLOXAvAB07imJYGqE9byU4tetKPv9yLJUECHnTOo7D92SAHtMQFIkbzt2F+dcPH3C2fk5tg0sU+Gs30DLHK4n/vyXrymHicvdGXOGxsxZH9mdD/TDBiWgZSEskVQ6mlVKhCCGirpHEQMpJZZl4c2hUguk2CMtwWKEENFSKZOxvTinIr7YEDGLVFVEItZFStcR+g1iYBKoACkRNzusVfquZ1kmTASGHguJopVGRSIEKYgWWo3EmEmxJ4aOUpVSK10cMFOaFmoMpG0Ca1gUDtowArUaWRvRoKUOUgdNQQyxSC0VbQ2JiZg6JAphXQibVWowpBeCdB5idwHSwFgmqAekOycFpUkDgoOgCBpWjFgx5jF7CIIiAuKg7NcPqQI50SkPce54+zGQfYyyPN7/8LHPDv/f/5Kw3g/vXXwl8dsi8XM/+hf7pP1YEF8HTfBoBBUk+OTV2EM+I2+f0KaFeZxQnYAeCQsSKq02VAJEAQn3fKZVRIUuJSwngja0LCxLpaohhztCzMQY6bszhm5HjBFtwDoYq1WWOrPUhRgg9x3DtidlUCvUY6xiAbXVewNMhWhCDBFLSp0r07QwToV5LgAEacRYSGlGrTJNe/d2YyANPbsnZ1w+veHi8pKLiwsun5xzF26ZDyMvv3nL/m4kBqcGhm0mpp1zkpsNebsldT25KjKN2GHP7f4Ok4iESIiRmKGPvXOjmrA2U5aZuYyUJjSLbM4C0iUsQusakiJdCuTYQ46UWqmmNBWfX/LA8TEQD9CB4MeVgCKwcoxdTIQAEUFLARFSSMSUSDGjJmhQTDKNjEQjRf/92jLaFiQ4BVCP0WYQRCI5Z+g6xJSMsj8cVm/RY93WCqbQTEkhow8hIfiCgx0pmHWUm2LmHjcYZgGVSFDDISWcxvP99b+lkyOfvKSPub6fYw9R/ceFpv/+9vf++z9lUe6nH3hyKUggxozlju3ZBTZPlMMNbR7RqAQrYEZQSGJ0WiEJpTTnVsUICFmM0CcCDWuFWhq0SllmQDAR5jhzyCM5Z2LMiEGtlTKPniiqlW6T6brEMAxIMObZPV/ndc3Bxap7RipkCc4fYixauZtHDvPEPM/+HgzTNbLSyjKP1KZOgXSR4XrLxfUdZxdXXFxc8Pz5c3JMmFbGeSEPG842W55cPqPbJiQsp9DbYkfud4SsNALT0ggyg3lCrE9CzIku9eSYUAr75cA0FQ7jxFINJNFU6HYbJCcOL1+R+57NxRk7iSTtoFVMGxoKaorEALJ6RQqmFdSQ5hFFWD260BoxuOcVCIjAglM/IUJKgZgigtC1RJCVD01rwoVM00irAVXn0Y2GYUgwxJSUI6FPmERCE2IXicE9awmJqk4RSsSTjOsIfJhgitG5ZHBvMDwSat9jzN/HPP1eiarvAtCHj/+UpO/Pwf4eTuTnWCR6mGxHZjsQYiLnnrg5R89n2rRn1oZOgaoKQYhdhjKRVLHsBFgrFWsNM8VEiEHoYqDljHaNhFCbqz2qQl0m5rkSo9NFntk2WisOzDnT5+yhrgliQhQPU1trIEpTA2u0qtAUlUwIrgCYloXDMjPWxTlE8wzxUhVVJYVAtEhTo6wqlLkdmErl6m7P9uqWq5tbdpsNu82WYMLu7AnnZ+fkzRlIc8VDa8xTozFTW8CAqTRKBUKHSEIkESSTJRGkQzQQLWAayWnDdkhIDJRJubUD3VwgRa5vb0hDz8WTS5anM8N2s+Y5DE2BeGHImpWOEpD1eLjHapj6ucDwc9MaiLOIJkqOsuYoxT/VGiaemEqdjw0JYfUIDbOIEVBrmIKizt/iUU/MgTj0NC2YzRAMUiSmhMSErudfokJkXSCdamxNMHWKUFVprL9Xj4k3H7OOK80XM3vckfu54Uz6HMB4DEgfI3GP9pgs6udufw+/8cfYh1y1mWAIQSLkgSTGUJ9ipbjE5ArGpdJUCSYEmz1DGwMJB0QRWxNRbiEEhhSJw8AcK6U0SikspQFCLco8F0Q84ZODh6jDpidEI6VAKYXDYaTvO1LsGfpIDIlmC3V2gDwmQJopqoLWyqEUxrowt8qy8m4VZdFKNc/QZw00g6KgBrM1DnUk7Ce67o6b2z2bYeDJ+QVDTmxCAossc0OlQmi0I5XCYT2eAcW9aIBwWFCL5EXpukY3N2IKiClWI5vunO0mYKbMZWG6m5j2E8TAYbwj5Rlqw+bCtN04yIkgQ+Ssi8ScyQYpRETNQ2UAbSyT86l2Si7jUqIQsCiE2HluhEZty8rNRpAEISFBMDGaySqfVGr1JLFH9YaIIkEI61mX4KH7Ugv7ZUIMMkqg0RTm6lxsXowYM5hRq9Ka0VqkWaBZo7SCtIaoIo6egEFQIGL4uT6O5Z/zfP1RkqrvAlb4+a0g/1FNzBM7iDgjaasWOQAIwSIhbMiDwYUDljYY58ayGNoC0UYycZXruBeJNay5Z2GqBMI6QavLa0LFSFSb0bmy1Mo0TWBC3/fklBwwzNZwUbk7TLTW2G63nO02pNQTTQhiiFQPUcWcE1411PNSmeeZeVqYlkJtvoAU1VWtAK0aS22uahFo5glmrZ5IXWqh6oHDYeawn+ljZIiZs92BPmWWtqCx3SdpVanVgTSGTExC7jtyjnRdR86JmFxeFKMQAnQ5MGw6NpsNues80VtXnhRhiL2H6rNS4wKL/1+JgTBG5pxIfUfIHW1Ntlh1ZU4QYRz3pORTupn7uF3XIX2HBcGCYTmiyb/PtEBQ18YCFtJpHjdtaFvlc+rKDhGIQRyM10iHEKkK43xcPPEkZIwQIpY8MVrx99ICrRUH7GY0AopStRJaIWglWHMP/JHE0ccw5cPE+r+nJfhpvLTv8lR/sZ+Hve+trkJyAk0NE0PiQOyhv4xI6GiSqXGgHG5gMrRAqwtSFQkN0QZWMSuoNVQ9gdTUqA1mg8WEhcRUC3eTF4mEcJ+cQI2m1UNYccpgWSpzMebS6LoOtDJN1blaQHQNVU1otbEshXlaKKVRa6U2Q4U11IeVPViPgUeYDQdXEZfsNoV5UYoY2hamAKMszMWzxHOZ0JV3NDPXcapn+FOIxFV0f1S6hMiqgPH35xTZbPIqpB84Pz9nGDpiDOQukk3Y5g1gzk8uDaku+hcRWh8YxRN52nWg/l9LKR4ui3niKLs6Yq6zH6thQOZKTQLRMDK9JGL2/6/i4bUqvjiuCWZZNbNBExaby6SARHD+FZc4utcrHJYKqSMgSO5I/UBI0WmgVcGQJdKa89K1NJqBiqI4reK66FWJ9J7kSd1TfgCy3x7PPx97L/z/lOf58Lnvsh8C0o+tRB/7nMcO5E+hI/1c+6GL0N9Wh/ppWViwgCArb7l6q6xaYIuehIiZtLkkpp4miRZ69tevsS7AFCjjRGWCWoCKETEVljKzTIW2FFrxSVKrUZpRi3BQYTaowbPGmjMtJaw2SnOvMxqUdVJN9cBYGinNPuaqc4fxlPle+bgKdWnU4oBuGlcOzpNbtnqkLkzxahxPoPjjIbDqsaFZJYVIiEYvicUMKQUzYy5lrWg6Vhq6tyYCukqM1BYHWlmlh3Y/8XMnLPNA00pKicuzPWdnW7a7ga5LdH3myZMLwIgSCMX1p/4vmyd54kyrSl0aqu6dL4t/ZxTj8vISTFAzWpk98VMVy4WahJjFucpUCfQO1iYnvrophKBIiicRv//X4OcHX0AERXTl0zV6QksjMW49ioiZlDfkfqBhRFVASGpY0QejMqxj89tj9dsjWddjea8z/fA9P6V9DPtEvvu7zIz0MMMG90TyY57nYx91fP2Hq8h77/sAuD9caT7UeT325z7l9v976Ej/nrSrMUZPYKzH/DhhACRmzBpBMhKjC8gl0F8GnqSBzfkF49XAfNMxh2sKB5SZowLfQmFcbriZFw53hVorISQgohpRUVoX6AjE5t7ndrejz50Dw/U18zhhrXlGWAJLg3G/0NqIrgL/LgjBQCTSJa8EM42YRveSLRBD8iKFUijtWOwAKp4oUkmE6Pyg4ryws3cuGidljMjkZCLz0tZyxcRU64OxZiuvqFSD0Iy0An1ETuB7BNZ5bhz2EykKKSWmu5GroWNYL5uhYzqMbPuOs/Mtcejph86TUjFCMJalIFS0+qLV5gWr1UEuRpb9jCanA7RW9yKr0mRiEqVLgrSCzpVh20j9FkKkqFHViKnDEljxYxFjJA2D86Cl0afeS4Rbo1UvL27zQpCeZ09+w1JmokDMwSVZRGKKpJi9gK8UrFRiSOTstJNZhvp+dPu+fh0/X82fa625V8v7+PIQSz78jMd0pR9q4Y8lqXCvSVVVP/arOdbda10/pmv93pzqx1D635JP/VBu8Yt9t52O0CkGfuTcrJIrMyEQIXbEIdDHSLfZst0O1KfP2N5cc3t7y3LYU5aROo2UZWLoLgjbFwzThIAPUknoMaTTBavzaUKkFBBrxMOBFhPzm7eMt3e0Uv3SGlGEFDtyzhStzPuZWiutVkIIbPvBQ24LSMhUm2gqlGNm2RQ190I1gIp74/dC7rDyncf6bUMk0MQrsEJU15zm7K93PZBn2WmoAWs4rBw9PS979djYX9vUs+eZQBPBlkYVZa6NeVoY+8xdgqs3b9kMHbvdlovzHefnOy7Pd2y3W9ImcX555sm5pmhrZEmk7jiFjcOd16yH4HK1ZfbjHULA+oBoIZ5tODu/xBal2xqx70kxE5NXIQVWgDAIIkSLmEFCaGtZsDV1TaxFhIwFjxxisJX+8OQiEggWjpVDjPuJce8UUGuGSUcjAPl9vBBdx+qapDLz+/awpv/726cw6VOR3ufaD5ZUfcw9/lvZhx7rz5VP+fu0lStcK5WamWshU0+XMvQNGzJ12MLwhHh2oCwHdJmp80RbFuoyUeaFsobJOa/h5epZJBqhraDYGlYLS5lItzeEzTmyOWO4vaNWXT+nIXr0qjNMI6a3mCwsRSlTYVyUoasOuiY0PKG06JrVTtHlRKYYLgUz1TWbbYTgwBrW2vYY7z2bJOEkH6pHDz8maEdZ0ZpgMlzGJOLKAHFdu6zSpqpeHIkJQ+5WUTuA0SosqpgttBhYUJapME0Lh7sD+5s9d2db51/POr6MX5y0xhICXco0M6q2VWgfqOYgWhfl7nbk+vqaJIHhckdUpWtKJz1ZEmIJMSFtI30amFuF1tCV0nC5nP/3VpRa7VQdRXNORcSrniRAjOqFBkGcNwdQo7aGWuVwODAeDszzjJkgMaIS3ytoOJoDqY/Nn8I+ByseywX9EKXBZ4Hqt0W47wPrMRv64Y/7W4Deh17qzynr93M3XcHg4cQ+mRwbd9w7srZ6roZ4xU3aEobEJm7p2wxa0VLQulCXmbqCqop7bKruMTVTklaSNec7a6PUkbTMxN0lwzSSz6/Z3N15R6Zi1Nqo88J+v+fu7kCQTLc9J/WNrtvANKOlMhks1fnRBZhUmeqqEkhprdoxbwISIrRICM67Aiiy8qmKkEgxeVltWssZW2NZFlAjc/Rmj9UzhgSQcD/WTdTBdfVilYCJEpNrcCWEE20g+HtDCAQR+uy18a0aoxa03DFNM3d3I92mp5RC1/dst1uG7YDXnq6csSldl1F1L166jOmeaazu8Q9Kr4GuRXIVZDE0LDSJyLpwxmZYcIE/zTBtNC/TWrlcb8Vy4ratIRghAs2I0f8XiBcsmC+opfhiOk8TpTSvxls9+SN5GkI4FQacOFVR53PX4+VEzacrNX8M/nxXWP+59oMkVR/TrT70Jh9efizofZeX+gugfp7paXwZp3ZAD0D1eBgfDsaTtEaNGDpCl+lST0uVVjNaCsICEui7DWkoSPHEiZphTQmtuSdSG6bNw0NrWN1AWQjbhUEr+fIp0949VWs+ectUePPmDfXVaw6vX3KYXW6lBi1En19qpwTSFCKjBKYVZLBK1HgqrQziwneJyb3T9T9ia+8YM6y5lIdVFiQpek18bTCVD8airhVIfsycc1NP/uA8LTEQUiKYrMGsd4Q6oqEDuie17g4TMQlJhBhWGVhTpkXJo4fyu/MtFxfKtjZi35H6jpgT/dCtzk1zLtSM3VnhYnKQvTw/J8XEJg70JHKFOhaaCTUmT0Alb97in2Nr2L7mWKqfU3DO+1hPb7H5OQ6ePFNVWnW5hWpFq7cDnZYFVTvRQSEkMF9ANOraK+GR5FNwHtOf+jxv88P7nwuuj+nr/01A9XN1Y38Le8xL/cU+w+T9gaErtyrHc7iGt/bAaxAR70QkLq43Ew/zxMO2gKBEWghIiqSVx9OYfeJgPtm0kUSggVTnyqxVQldIrRB0IWBsnkBdioeGrREk0oqyffYFZ8/e8s12w8s//TfG21vmpdFwLaNqQ6q5HnS79Vr9GKlrUqkcs7VmSPWKrhwTMWWvShI7HQdwMF6q943NGYZhYOh7ojYO5d2pc9vxwMnqlRNO7j12THQce3mG5JnzmAjrQmY0RNeiAIPSDF0Xk5gihrjkqBi1VZbSMFGmeeZuP5KHnm7IbC/OuXhyyfb8bPW+vWKtC5HLS6PregLCZjtQ2sQgHdmiJ4dapTZlDl5PL8kXEaJ7zBLCykGDtuoLVZC1O5cAzemUVhFrLMtIq5XWFu9yZi77mueReS6E2KMaOfYO0WpYWIFW9IPzcB8F8xPM848l2h973Y+1H+ypHq/f+/MPftjfUs70C5j+lKYrp3V/Pk8NkQkg6+01xI5rCBxjJopXQQleSqpAt9abN1zLadWbm2jwOn1vcJ5QWxM6ljBzD9CyFydYbe69BWGQyPO8oRsyu4sdL1++5PbqmrJM1HHmsN8z7Q80hC57wmXY9K5XXflbF8kboR27F61RVAzEFRTvUyD3ToPifGUy9XRKzif9a2uLv/roZKgDvAquoBAhEZDodfdiDvaBI2UV0VAJFj2EXhUZOXpPBuT4OxSan5OyRJbljtv93nubbnou5oWpNnbzsmawIUX3sruYyN3W+ywUD8t1UarMVDGvPpNKuLslDZnN+Rmxy8TsDVdil0kp08z7xS5WYK2mCmvSTqtn9K0WWi20uqBl8ShB1gb3xZUdxAzrwnwcX7qeixjjqRrsGP7/GOniD8Ggj0XXPzmnamaeFTSon3CHfyoFwMe84A+/+VOSpm8B/Q/6NZ9nnzrwn0ODfPx4+fH/0PS9l8vJg/LHH2RKTdYeqUfx+vE3++sMT24cB7Japa4d1hRDDWLaEsgICqV4NY6FtaVgoEVQ6ZFWEVFSraQCafYdBBSh2brzg1VUXfJj4iEzOP3Z9RnrkoeKtdHljG4yl2f/wMX5ls35BTc3N7SlMI0j12/f8e7NW25vbtjPi3usazmnlgJlgdawAPGobRWj4h5qiMkj8XUy5Zw5tsMspTC3xnI40Afo8rr6LE4PmB3zCd4YuqqsXmtYy0ujX9bj3drakOR0nr04wM+BrYmtlaNdYwHWRSwEkNC5TKxWIhBaYJmNw+1MmbzuPwVOsrSjl11rZVkWzi52LAvIqMw6MS4jc1toopCFf/j9l+RNTx56cp/oWge90wqtzrRWMfHqrWBrzX49apMX5NiZqjXAvM0jLmdrYgTpXIERgkc7IfnikjKSAlUAqSvnv7bStoBoOJUmf2r+fCr8/1b/5w+m3MepzcZR333k0799cUsPv/jooRyrOB5qVzEPsY6cyEOtY1xXxmVZ1qyqr8rfB1Q/xpd+Hz7k52w/1sMOpt/qjC7H2xZOANvEPUA9CqvXydmrklXXUOrYqtHWJuTi0qGgiDRfPLWiNEKMdJtMrcJYhNTMEx8SiClhBBZttAg1gM0jooUdgVBmlnev4eaaEgot2qquERZt1FUPa9HDZ4uuyWxWT2MxZB+PTQLb57/m2eVzDpN3oprnmevra169esWf/vQnvvrLX9jv77Cluh40BlLq6SUgKiyzj2NdZU4huUdWzPWkOWVC51tnEASZJsbDzDTPzKGw610aJEmIlsnWEY5jFZBgNGs080beSbzYIpiCKW3t7/lwfhxr6L2pTLz30NQFTphR/SSTJDBVqBWyCs0a03hHejfRdR1DXnnV5gqMi90Z2+2WUgo3h5nhSSJvd0ioXN/ecnX3FrWZ0At5ELphw69+9Yyhhzq5XK7f9oQgtFKwtXrLS319PAdr1GVhKdNJ1ynR6YG6YgV4s2tLO1pITLd3dH0kx8BUZ2LuQRoxFITiXq4Z0SLSvCtXCAnl25r4I9640xQ8abeejxADMRzlWt7o+2PAe8S941xtrbmnH6I7NKouHQvH5CRrNPHQCfR59V7n/4fXD7/wFDLZiZ8+8VS+vYW+99yHl+9rvySiHrOjV3OU8fAAZI8bZHh7NdcYrq8WOHVR/9BOaf5AKXUdiCAhupdhLmKv84JKIoVAMqUzJQYHejVIwcN7kpCkI7ZA0sJ4e8Vf/9//wpt//r/ZLzdYbi5rMmFRpRhUBJXgeslucDCLgdR1nJ2dMWw6DznjGcPwlNwNPDk7J1w8BRHKbxvjPPG//K//G2/evOKrv/6Zr/74Z16//Ip3b18zjXuCwWY45/LimdfGm9GWckrqhDUj74mphAaffN2wI+aBTWvUNlLmKwLmSZ3mQHjio1ewNvHwXYJ7nmYuwA80Qs5rQxZPmsUUSaFbv1+9aOJID4Q1OX50bExYSqNU3+KGCm3ljSMLKS28a+20aHQxMZ1Vzs6cArmbFmLbcvvXG66v37CfrklZ2Z11xF5pzPzhD//EslTyOJEySBJ0WVjUuW7K6kAl72XQ8C5jtTnYgqsoggZXjBCQ9VhKHDDpUQ0UE5K5t++yNln5YPNCBmvrNavHvhqFz9gAACAASURBVMq2YFUEfHss+84O9w7DMUo4zovPSXKBN9qKD17/HoaJ8q3POc29o+n7tf+PcaXAezzUaT4+HEiPZP2/r/1YHeqPBd+fu6fr3fo9gQBwEvKv5n3gwzoA2glC1ZwXNVFKXB3VBx6vaXCpla2D1uzUfCWFyFGrGUWJOhNCZe2GDChDCIS1PVxTw7SgVrBQqWFhX2+5OlwxHa5JwbtVlebNTUrVtcmJ+N5J5k1QkEgeena7Hd3gwvvbqVFIbHbnbHZnpK5nc75jd37O9uycPgaenl+w+x/+wD988SXv3rzkr1/9ma/+8leu3r0BOqTr6DdnxBiZpwN19pA1JvdI0to1K6yeCzwYFxqcBiF61VBYGyidNJu+cImAJJdIRVZFgKrXv8fo0q2mZIMhiCeGcP5W13A0AhIcVS0cK3yUaZpO47y1Rlk3wAOINVLm5TQvu5gopsytYgZjUYLc8Ob6jtevv2aue5483XLxbMfTp1vyILSmHA4HJDS2254skanOlLKwLMsR1kip99+rhdLqiU8/jVW9Vwq4bjWtxRn3z5uZ77EV1/+6mukKjBZO+PWYZ/nw9mP3j489dAo/hRA/VS7ok57qx77wUyqAHwOuv2T43zdDaOKr8RFMg4UHwOqTTkxdxedthB68H4rI2juT++c0eOciY82EC9oKVhshCH1OBPF9mKTcQbmFpXn86fuSQMykGNl0mRDDGvLN1DZizORB2DzrwQSZFk+YLAs6Veq00NbqHJc5BWITqkKJgZv4DgtCM+WgMIVI6vJpq47N+QUvfvUlz754wdNnz3l6fobIOcvFJbvN4CL+kDk/P6doZLt7ym63I4TAuD8w7ve+i2upK/B5FVcIgbxm7g1DV5lRzj2R6kUJqoQGNMHakTrDu+KvFIkIdJLQKM5bhoBWXSuyVj1pqO7lr4SNBNcFexcuMAuI+P5Mx+ooADP19n5HnWuMBM0nEG8xeGHBPAOBRYV3X3/Ffl44THuWUtBwzXCWefrsjCdPLh20SeQY6NZuV6Uu1FoRvI3g0bNvuAa1VQMLpLVfgGIPdjp1akklEFbaRz+AtrBudMiqqDrO9od8p70HrvIeLnwIng93N/0xiaof4yCePNWPZfIfs495tA9/3Hs/lIcz+eOf+V061E/9uf/ePVUItODXwZQmAuKSnNM6v25jIRy3o/DHFMGkY4kOzMGOm8nx3mkRg2RCtEAy8e2fa6NNd6T5JZRXMBaoDSxD7KHbEPKA9D39ZmDjxd9EFUadmeZ33B5eUQ5vSYcDdfGKoekw+yZ2DQLZa9QrzquGTDGY27HXfKB0kZpgbEZpTh2QOv643bE7u+DL3/6Of/zDH3j+/Dnnlxd88fwFOWfOzi549+4Nljc8/dVv6VbJ12G/5+bqmpurd1y/u+Jwd8M0zVAX0EaO3l/gWHufGVAqoYJZIahLxGxtWhLNF7JSveeqBi/VZfVYkbQm/1y+dN90+RgFJk/emTc90bU6CzHnZMxOwGW2KitWmVvICQkRbW2VwSUsRopESvVm1EpgLuXk2QKUAvv9yO3tLdvzTMpbTwxJRNXLSud5RoLR9/m9/Z1Ka8xToWo5HaMQgld3KT6w1u2VzOSkUfWhfA9+7uUHL8zgCLynYP998Dxxo497ph/b7v5z5VQfft4Ptfc81e8Su37q+cfc7l/spzN9EO4/zPoHuQ/xV+78W3bkYI8tQNwM1hZuwYxo6juiRu6JpFrh7oa7N9/w13/+35nf/gtWKlINoSemLdbtaGlLvnzK7otf8eKLS86fnEEULobAJkFiJKRCtzE0C5uUqJ0iNSMa6UKmy1u6rkfSgISeqTb2Y/HqqBjYm3JVJ+ZaWIox1crdVDi8e8P+7Vv+9Md/5b/8H/8nf/jP/yP/+X/+n/jN737Li2fPef78OcuyMEtChosTKLRSmMeJu+sbrq/e8vb1G65ev2bc37K/vuZuHLG2dx45RPpkdAjoyvGt4vjQbN3exauPmjbKSo/EGMkp+XYqAnelYeINXnzng/V8dZmUVy5w1fg6hqwLH/fJrSDusdbm/HSIEZPgyTF8+2lihJRohPvmI0Hohp6pNSwIu4sNT5+d8+KLSy4uzuhST58HNv1ACpllbIzTgdaKV2plvAeqLYgItRaWZT79nxOPeRxdYp5gkuigqfe4kFJCUjzJ09Bju7BwKotd//X743itHntMSfNTeZk/hX2vjf8+15M92vf9U7+E/h+xtQWcPtJUQlm5J0ku9xBvzRbE9xFCdM0iR8TWhIypd3vSRtRGUEVaxV2tBeYDVmasLFy9e8vbr/7E/PpfieM3BAtESaRgJIvUmqgtcPjqL0xvryh/3TA+3fFiFwjjFV90kfzFC+46RcvBG043kKaEJiSLBKJ3LNLorQJbQbUw2oQtE0XNt7hed4PNwaulpmWi7Q/MDSR3tHjHn//lX3j79i3PXjznN7//Hf/4n/6JX//617Rux1Vd+3paIPXGsLtkd/mEp1/8ihe/vubu3TV3V+949+oVr15+zfWb14z7O6w1RjG2UciqdG3tK4oiKui6JxfqPQ1a836tITQ0LNQYaQj7uXoz65zRWKhTQLuMbjr6tcH1KmJb1QScGr4Qnes9emQpJVcLpIgplFZJXfZ5E9xzXKqylAUzCAT2k+8Hpqr0/ZbLy3OePr3k4uKcvvd+sF3X0ZpxONwxL76nGAhajKWO+OamHuIonpSztfBBTU7Nv73RTEdYM+7GUVWUTmqhY5Y9JP/MdmzAcuRUj8NfBAlepPopmvFjgPo53upP5Rh+i1N97P5DL/VvnY3/BUw/ZnXVqnq20WvKnW91i2uD4ZUuWf0W4Z6DdTDwx5Kube+1+PV8gGWi3F5xuHrLfLhFl5m7m3e8ffU1cfqaXu7oYkeftnTRiKIsrVJ05qw/YymV2//2/3Hz/4zcboWzfiEtt/yq69k9u2Ah0UkkxUiqvlkd1ZsymwnL3DiMa1gZGpvqe02Vakw2kmqjrRlwpgLzgU4bMWckCmWeuWvv2O/37G+vKept+0SE/vmX5POnCPFUFCAI0vd0MfF02PDs6QuWw56rFy84u7zgm+2W1y+/4XB3g04TN4eZnQRvFiK+uJitVUXVF6fQPIGlzsQ4ZVO9IXNSF+Zni0gzrHr2vJmg6lvbnAT/4p32Q0oQXclaqat6IZBSR84dMXvhhc0LIu3UKYuQUJ2Yy9qKUQq+E0Ai5Y6nl+ecbTd0MdGnyNlmQw6ZYIFWFpZxobXGptvQpx7DWGbf0SHGtYdBiC5LCwkJa0ey5tQGJEKMa/Y/nohRl2J6wxWQ45ZUThEe6/xXiaBn+49R1sftY97pj/FWf5LwH973Rh9zseHBDogP9KoPf/xRt+oH775n56kFnNm3Xv8pEf/xdT/FH/6Y/XBh/r/Bb7BGCuYZdvMwnug9PhHftnmeyhpauS5P7FjK6SJ3mWc2vmcySASrMO2xmzdM+xumm3fofMd8+46rV19xuHmHWCVipLKna3u2g7DtO6iN+e4Kq3s2m+c8Oz9j6AeaJv7b7V/41//6z7w6vKKPE//pN8/47W+esHtxxn5IBDWGnBA19rc3zHeHtXlJRBLkZJTckENFyoxoQaKxlcjWOpZqjPNCtIbVjNbG1e3EoUykbcdweckyT3zzl1vGubDpes7Pzniye8Lm0pMt1ZS+7wghoqVCj/PEavSbLduzHU++eM4//O43vPzrV7z8+iuuXr/izVffcPXmLWMzrO/4ohvY7XaQEnc3sOhEyJmMUdSbdLe6CvoFLofBq5Wie6RH8Xy9PTCOI92pK5eQu0RO2fWQ5n0Ackxrc25fKq2t4TjO/5J6Sq20ZizLQp2Lt+szQ6Ivsn2O9H3HZtOz2224fHLOxcU5u7OefkjM857rm3fs97e+7UvOq+d6IHRh3YH3vvlJa75wmUFtvsVMs0hKkRAzZpG6Vsh568V7j7qtvXVbzGiIa3HIffvBb/Gk4X4rm4c4EkIgHrdw4XFe9bgF9mPz+GOC/w9xCuOUKHxvzsr9Z4jIPaiKiKffHt5/8OGIfOu5D+2xleLH2sfA/XOf/+/FTF27FyWsAeLauV8bDWHYboDg9ffN9YsBb8OWEXI/wDjB9RuWwy3j7RX7q9fsb16xjNfcvv2aOt4SdWEIjU0UpC3M4555vCNEodbMPK1NMGYhssF0xPQGaiIuQnp7Q3e1p93eMM1X3M4LYdOT/+lLhueXvlvrOGIUdk8GNhcdrVTGu5GFmSaB2CX6HGlpQDaR2qAPA8ki+3Hh6lqZ55kuKBebzDAM3E6N26li00TKPbu+Q5eZr/70RwC+XBq/6TsuLp++P0ZTXOU7LqkKKPF8y+Wzp3zxxQv+4fe/Y7zbs7++4tVX33Dz9TeML19Tr68JN7fUpaJLRWtlyN50JuSECZTWqKWhq5ZILDD0A5tN7xn01pjmA9M8U8rMN39+Q4zQdYHt9rgrQEfIAQlCoWAPecZwBA0v8fTS4UAQQ4nQlNhctNynTO4z/bbn/HzHxeWOJ0/PON/t6Dv3uA+HidvDNdMy020Gus1A1VV7GiOSBIm2UkxHbFiBjMhm06MyU8ZCqb5BIMF5Xm+/aCccsfWCrP0kWLlX86jFjpGY+B5asipXPkxcPxbmf+xx+eA1n2sf+46P2Y/a+O+7fsTHuI8PQfCHAO9/xOIA1/XpWhfu8VCz6pIbAlSvn5faEFG6EFxIbo1QFpgmePmat9/8het3rxlvrzjcvaFMtwSbmO7eUsZbhmjEbSakyHR3zXzYO9DkHUakLu5NSAWkgU2U5YZwW5nvFqZvXtOPC7FE9vvK/PaOcjWRDwZPe2IykiwcmhIzhA7f8XRQQkpoEWK1NUxuVIRYIkMKdOahbopGtEaS5hv0dQMpG033HJaZGBJ9lxnnia//8mcOhwMHNeLlJUPu6Abf9gORNYxNLMvCom2lTIwExL5jEy8Zdlsunz/jy9/+I7dfv+Ttn/7Iq3/+r9wslWgTue/X7WVc8xpjWtv/eRFDGHxLaV1mtn1P1w8nUA3aHPxMkaSEiG+qWJU6VvBqYJqAdV6K7AWOrms9RoQiQtf392oFhc4Ek0iXOzbbLXnbcfn0gouLHcOmox8ifRaMQlkqd4db7tYF9Ozsgn4z0NSLSXKfIDxMoAlE53b7YUvuO2KMTIu6LE/V97JKiqmgFtcqpHvVyTHSMjk2Wfm2ZPPh/c9N4X+XY/fw/sOKrONz30UZfC5W/eSg+jk8xsPV5HPkW4+B8H9E7tWOSamjVs9AMGIwdJlAG30UcgwQGrQF9rcsN9e0b15z8+c/8vLrr9jfXVHLiNaRoAu5Ey6iwTaTVGnjxN3tDdO4p0+RJxdP6cKOrZwxDIN7x6X5BnUa0GXhME1MtzNhKjzJG+LQMXWRpgeu3tzR/vUVm/CE9GRHd/YlHSNwYK4TaCXIse2e0VBsqUhat6/uIpmONjXUFhAjZRjWbk6qjU3uuNjtaPsD2iqhNkKrLK0wXl/z6qu/cP6nX/Hi2VP6LiOWMIwYExIjiUyMGWvVS3TX6iTDIApkQ1Lj7MsvoBbmq2vqza33Xu17uhRZJt+2utTKUgpLU1Ls6DY9fco0q2CNZTqcwl9VJYVItznj+dMXNC0rcHokUtf9vgqKzdBWwf9xTpykSTHARqnBE2EiQm9CTh1D5z0AQhfou0iXI0Jl5RDQokz1wP5wi8na2Sr5Fi6cKrxkbb6NUzVrsimvya2cB6ZpolbvBeG6Wl3bPa4NwkXWZl5HIAsgiXbkXAXuk1THSqh17Id1EXwgqXqMS/3YYzzwVB+zI43wEGB/qMP2NwPVT4Hr57jUjwHnf0yFQFhXdPPuTk5oIRhdFJI0yAptTTqNEywHuH3H7etvuHv9hvGb19x+8zVv3rxiniciFay65jX59sl9DCylsr+7Ydwf6FKm314QwxmpnbMZXnC53SHBGMcDZZqx2Xf0lGJEhaHrCbFjs02E55fc3L7h7e07Xv9ff6Z//Zanv7rkxW9fEL48g21PJ3d0zWg2UmzBpBFE6LqOTUj0MrDrzlGFd+/ecSgzOQvb7eDZ5amxFKhBON92NFPG0mi60IVADB3WCofrt1y9+prD7Tsuz3enfadkneCS1kYfoSOSvGrM0qmFnZlRqrLtenoR2u0d7fqOhZckAa3dqSuTVd8mO5r5d4iAeLORZd0JwTWb3nzFOzTh4TzJu12tTVZMDA0utWpL8dr2BifACeYeroHNrkNVmchdPCXpOq3IPGIho8uIlUjKAzkF0MZSJsbxFjA2m55h29OsMlfo+/7UjyEcvUzunR1vPNNQm7nZ7z2ZFSKR6Dxq88RWymt/B6l+nPFklXFsM+keq0g4Nbd5NKvPWjDwgHP9Ln3q6XPW934Mlz4Xtz7HflJQ/XC1+PC5zwn/HwPR7yph/dzigL9nMwEL3cm7AZfIpABRm2fwo8F8C1evmK9ecnjzNbevv+Lm7WvGm3fYoVD2IzruoRSUSg4ekukM1iIlBP5/8t6ruZEsTdN8jnYBUIXIrMoS3dPTNms2thf7///F2traXPRsVWWljiAJ5erIvTgOksFkREZWi6nePWYwkoADdADun3/iFTFkSlRsN6+52l5hjGMePBqLbnpU3pCTJy0z0WfSkqsB3ZIh1O8qpIhTlus3XyA7x/BjZPfuPePX7/i6gzd/fMsf//sfuf7HV4iuxegIUmNdxutI8Rm1KFTUONHSmQ1FQsiB/fGEbQy5KJQsICPaw5KBKLjsO7SP+FwIolqcjD7gx4H5dGA+7PFX1zjXosw6oqfSKmMMD1YqRRZKehxuFCEojUHoTFeuuHz7luN337Pf7/DlVIdOq8C1VRrhFCaX6vAaE3P0hBgehJzrQKUa7MWcKAGkTsScHsr7qi0GpVQufWV7VUzx2QKnWmFX/QUjFEsKNdPOmmISSkhS9MSgyFEgTaJrDHrrkCUzzTPjfGScB7Y3l3Rdh20MPi5VcUoYilLkCEVWYH4pojoDlEzMnnn2FATTEkAqtLKgFCWWFdUASukKCTyfp6vGQwWnVVPKM19fnpEFLwVMPowz522keNz2/NgHMYePx4iHoPtvUPrD/6JM9aXy/3N2+v+fWWpdGUUsqfZQBWgpECWS/EyaD5RxTzzeMd9+w+nHvzLefoffvyeMB0RcIBuc1ChXmPGIXHBOo7VdJ8SanAoUQ+M2tE2PNhtSEpTsgJ44GYYSGJYDw7in4Ks1c/CkJRLnhIiZFDIyRDYZFqXJTYeVPcJnhjBx+6e7OgV3los/3NB0lzQi4HOgVVB05VElHwnjzBA9yUqW6EGu2ZOUGF1AerQB6QuZRFal9uhigFyzeadWg7/kq2HhPEKuUogpV3Hkmk3ZhxOzZEnKEVJ1Ky3IyvKKc53ONw7tLJHKbgopEpfl4fsSyjxohKaUySWjjIQkeSA1rbqpeVWh8qVajTyoO5V1KJkrRqtVBlnSClMCIUvVg1WghcQqXXvLSdZgmwEiClV983SliyoJShSCnzkOe3wJuNbS9y1KCVKJCK1QUhBSIss6eU8pP/RUz6pOdepflc2kqKpltTUlkSt+9QPa6AcBUj2U9JXJ9QIrCoWUT+5/UpGf75NS/qwt8PA9PGsB8ImY9Dxu/a0Q0l9n/Cd++Xberqb65yee9/xMITm/2fL4oPi4xVd5fAHOPZ76Go/bfCq+vqRF+reup6+V1/dyfp9P9/9j7Kafr/x0nvvktT98tUwVHKFkjCwYISAtMN9Tjnfc/fV/Eo/viad3hP1PyPGeJh3pm4iRlskL0I6UNGJfvaSMrvJrIRmGYSItGSkapC3Mg2c83GNNx8XmijY0lCVxnE/sj3eMyxFjwRkNcVWHB6Su7YkpRO6PJ+6He/a7ATFnOjqUVOx3B777H98jheYfsqR72yOMqZlzrlOZFCLTMDLeTYSTJzeFYBZESFy0DXSGaV6zNR0pqhDIxCUgRcLITEoVRr9pDLnrkVmTfCIuYR0OVXHpUmqwyKlOhWp5KeoAUFn0qv8pSqKESBIRYav/VcqBGH0F/5dUnWAzSJ3RTYvQVadAFY0SmjnMxByIuVpJC2UqLa5IxqUSHVJKD7IONcAL1FmjlKrIL4VEUGpnSFTtAKVXqTvqvuYYIUGjJKox2JtLRG9oulrST1N1NrW949WrVxhn8clTUsE0jqIkPi7kUGiahhSXSh/VNfAoJVdKKfXzNIZMJSPkEhGYuq/67CSQVvhRPeqFVNX7LOvzO3sS2NZAJ8tDS0CKc9/1SXb50Js9a1usIH9BhWCJnwfZ58lcfc5j7ziLR9bi07j2gaDReb3g8PqBnio8KsjAY6ROqVLJzjtzdsh8nmWecWdmBSTH1b6ilFKzhjWm1snlv75s/9l08MkH9/RnFp9jF/bp/yPTI8lTPXwpuX4BEtC1L3YWAsupVCHhAoJMFIlUSdFordGi9rPKw+d9FgKv4s3Aw6AgCcUcNEI5OpVwatV+m28p3/8Lh2//H+Z33yCXA8UP2DhRhAdXp66xQNCCftuTY+EwTsQlMi+RUEoNNFNEJIEyUJaF2Y+UWBDNSFQZKS/JiyeGmU5b+uaaGAPTNDDPM5Sq95lyzRjjtPD+THMMAqk0RXpSiJikWW5nfvw/v4e7zKsvb2g2PcpopG5QStO0WzZc4rNh8gfG3Q9IeWLbd7QXPVjDYANKg14WmBa8TCQNMip0EDAGpI84YaC5oO3f0jWvaO0FaSkk7dFdQ0ozJUuccVBqKaqko4oS89BPLQKUdmidkbbl8vKSY99zXHVUZUqVrFAKMcJxyHgEUWicEJh0NhusQSSs1Pec44PQSM5VklCmWuYbNAaBFZkuB7QSNVA3DcraSvUUkpwjblPdWtVKOxYhQAxYKckGRKNx15fIpuV2GBjGE9pamqYjhkIRgSQLlEIICS3AWUsBcvIYJarQeRGUlFYtXokQlcpbS3PIqsLJSklIVYV2lNWE4jFaIJWrzLkCUjdk1RIWiZANQjmM0hgt0QqUlEhVKqNK6scgtgbV6hygPjjnH+LZM2GVp7HmqY4BrDKO4hH3KkRN6c9BVgByzcB5chPyw/hVSkE/0BWKQJ4xYuW8wXrjnE+dcWn1qrluxVnD8GUtwxW9TELVJH1VXV8/GwD56cD6+GH8ryv3S1m9HMtj5rwKCQH50TiuFLIQWLmKkjyAmROlhDUDi6QQiH4dLK1ccakEUq7U0jVVqVhvSTZbtGnrVD/OcHpPvP2W/Tf/k/13f8amGZUmZFxA5FUY0lCEISLoZYNxLeNxYBgn9nc7wpIpPiEiNMrR2BYnG7quAVOYp4l5PDAfD+x8Syc6nHMIJQnJM4cqNae1IqVMKDWTOatlKVFB2dXbSpOVRxWDg3piHgrHrw/MPy2V724Mr16/5dUXX9J8dQHW0dnCZASogbLMhGVExsLll294+9WX/FPf4JXkMM+8vz+wO47cHwfu7478+G7H7j6Q81xbIDEQhoHsA0aAKJkcIko5tDbk9USVqIdKoxQoWWJU5azrImiQiM2Ev7rgdH0BdxuWsDANkZg8JWbKOtWeU8Ej8EWh49lUUJCUIKiKwUzU79tojZBVTESVgo4FIxJOKBohaFXBGIluLMVIokgUUeX1tDUVkhZ9bVvkhC4RJQt9YxB9x0krRj8zR0+MHqEk1liUqgD/uHiEEmAEIqYqCiPVqk4lUaIgVpGUOlSrpXmh9iCKUPX+UrPYVKqdd3V3iIhS8aukTBYNRUkKGp/BJ7mKdNe4UYf9dcBX1ky0tgueFtcCOGNYxQf31+xdPNlmDazl8V65thPOjuPw84TscT3Gt3L+DHjE1T4+/pHy//kw6ZOB5snt/Nx/iwna39sqohq+nS8hD9bvYjW+SLkOHji33nO1b54WovfMYSCLXO2ZF09aFmJYYIXwpBQqi8YItJEPPTOpFCiJYI92LVIW/HRguf+B6d23jLsfCP4ABPTqVgql2g4LtU6RQWGJc2I4joynhdNpZjyOlChwylGcQZCYbWAjNV3TYKUhjJ7D7sAwnZhpkaYqLwkl0c5ijCaEUF0fSOg1a1Gmwm1EsUipCTkT51qOSW0wSqxDrcy0P5Ik2MYhD3uEseimxfU9PgaMcWC3zMOR0/Ge/WFhmsDPku7VFtk3XHQNF19dsJ8nDsPIu+sDttXYFqZxIegRpu+4/yHQt4l+o+n6tyQBIVWmlZBNhQ5JiS4rpbckpMgkoYhUfVmpQDeGzcWWi5tr0v0V0s+E05GYIyonioy4tdZVKRNTZMppFQypNWUp1cNKngNUKmgUBo2WGSUzGolTmkYLOqdq4LGaRO13IirBQ0nzkHUJodBaoKXEUiqG1LUccuZwOBBjxDnDdtPVyX5KIAvJLwir0FKvg6mCUODOKlQPCcVqCAmV2y8rHhZR6bGI2s8tJa/DLblesDQpVVsWZQXKGgq1vfEwcFoHVFWcRa2OFOv94hzIXo41Hw+IPN7/ibD20vNfxMu+FB+eMqpeCorPB0Kfatg+pZ8+3blfGlT9vQ2aPnURKVSfHcHZFTlXzB418GkpKSViVoZLSYkwziyHA8txwC8TMS4gIiUmckqoEhGU1TDNI0VGlzpMskrX47OAKgJVFD7M2KRQJTIf71nufsSfbiGdMLr2+vKDiZ+iFEVKghir8nyJmeQTh/sjy+Cr/kepHO6m32KtI8bCaVjQHBAXAis0fdOTm8rQakRDFjDOE34KuNySs3tyQFXKrCwChEIog1m9iGTJlBCJY20bKeMwpprMhRAoSqJtvRAchwlxe4udZrz3lcc+JuZDJM9VyPoQT/gx0e82bL+4ob26QHaerjE0ry/ZXPVsrhzX7zfc7Q/s9wv3ux95/81PeL9D2sJXraW9+Q1JamKWlcNer2a1BVMiWmWkSAggJvHQrpFa0W43XL19jRwPWBGJfkDuM/OYMUVghcBkcFGwFDh4UTWtV8UGdHQYRAAAIABJREFUWQoagVon3sSAk7W3rFWlOypRsNrQWIlpaivNh8SSA0spZFkz6Mqwqxe0pnG0RiOTB1+3i8vEbBVTmABobBX/DiGQS8KIOvySVBuYApBy7RFrjc6aLNS5tHycpp/B+3L9zqVCSUlW9bPKlGqvAmtGHGqJb1qENCwxkbPBGIc2tdcrVdXMFUrxAG9Yf8ry6aD6sen/56wPSn9+njS+FBdfeu1fzFQ/GWxeyFQfrziPQNrHN3m+WnwoMvufgROVpUAUufas1Gqit47OSsbUX4jLzHA6cLq9ZdmfwFe/HdeIatU7DgQ/02rNprUomQl5xhmJJWGSQnlqCU9GymrmZkWAKRCXE8vujvnwnjiPlOBJeUHIs9+8RKCJAeYlMo4Tyxgr+cknDseBZYqkKGpDRmiiNJj2Aj9M3O8PDMeR6TRx6bp1oFON17q++jeVu8T9/S13d3f0F1suLy/p+4r9zDkjVn+lVOrbKEUgjUU5B36h5PWzkxqhDCLDOI2kcaLZbFGurQOcIqt1c060ynHZvkFmxzAPhGHhNB3xk6eETJwW7GVH92pL63qaixa3fc3mdcPNaWD30x0//OUHftqPjLu/8ud/UWRj+RJNc/MVqNqF0XqdNpezUWJEi4q9tKi151qQ1tFcX/Hm979jo+G0bZEkDu8bTnd3+HEihqr+VYFRkq3W+FxWKnFGllytq6lGeiXXtpFZszNtqoGf1JqoBUMJLMvMuCwsOSKMRrUOJTI6CxoJWEVwBuM0IoDPgRwi0SeCdyitaKyjbVtKFsyzxzpF01iU0Wh1xs2uhoaxEBYPSLRdjQzlegFSK6Z07TvCGpSUhFWvVz4NPEIhpEVLgzaWWGBeAlk4XOOwtsG4BmXck8C6CnCrs5rZWaT7w8AKvBBvPhxQ/dJ6/pyPZajPf38edH+WqT5dzwdWL6XFLz3/c68Ofy+Z6i+1OpKg2inLtQufc51UUiip0hNjjkQ/cjruuX//nmm3Q/lEbxx9Y+idY1qtRpKfUMKytQ0XXQfFcNzfkedAHAOhVOZQFS0uSBIXViDixDiPTMOO5CfEGnQxAlJVOipZEmNhWSLTGDkdPcu0IKZUFYjmSIqFIjRSCYS0CG2JQjHnwnGYycPMeH9krx0WWWX6EIR5wVrL/nSs7JmcKKkhper15JxbB5SJnAvz4pFU/c+8TCynkbBui6pZbfKRaVnYH06EnLhQhu5S1BOs7ShKI63ljTKofuSbv/yJYT8RZ0/IC+Nhz/H+jou3l7z66g0hTjT5Anu9wV22fHH5hstySfzymn/67St+uD3y5+/v+eG45+t/+b8YYuSLPwYuXv8We6FqD0/KBxPETCTLtF5ABVIahK69PrPp0bylcYpu26Ot4vDjd+y/+4Fht2M6DIyngbh4WhReOmKiqmSFuKr0FwgBIVQd1AkeJvxFSqKSJFEdVOdlYJwHpjmQFWjpaIpB5lTJAdKic2JJM7PXlLSaN1qBMBqkoGt6+r4KpYSwQC4PgUrL2juV65S7lAi5kENmyR4p7INDw1mpS6xtAEEhrkPscxXHWSh9rfGqGpUFaYlZssQ60MNIlLEY12Jsg7YWZV11pF2rNiHrROacqX4UNvWJ+35pPc9Uz7HheRz8pfWzTPX5Tjx/kZei+fNI/RS0e97mEUL18zdf/s5z1VIqdrD2T88+7pWCV2Ikl8DpsGMaD+x394yHe1QIGGXoZMZJkDHSakFpWlSYMWRUilA8UAinA34eWOYTKSyc5d/KyuiZS0CXqrS+xIVcEtpW6TUp5SofV1EH3kfCkkg+IVJBp3ogGqkIukGLyEJEKk0WmlBkFXyeAtMcCcPCnEamImjXdkRjNPMwEmMklirA3J79npaFYRiACvKGqsxUVoRIzpllnIjzsuqJWqRYKZc5ri68FRp0bvznIhBS4dqWtt9We+n9RE4JkTKNdvTC4MtCDJH57sS7nOjDJU1e6ElsesOmuaBrN4jLCG9uuL4b2L66Z/P9np/2nvnd19xLgSkzjU6o0qJFizSSRP0O8grlIwuylGQ0gYJwGS1AylLpvBJs19Nstkzv75ju75kOJ/Ls1++mmh6SCzFWUZhpmhinhVgy2qiKexWxwvOkIiKYQ8DHwDyP+BSJsiJOVAnMYYLiKaowqoSUYKOqEn9SIFWhMZa2cyglsMYBkmVZVh2F9fgJmaTL2pNPCFMDWSFTUoWbjXlCm4rwEaWiWIqsegSJKtOIqkrSmVIxwLIAGqSjZE0RGoojJklMNWga16Gtw6zmj8o4lLbrMEyu5X/VApbl58HtU0H1+e+/tJ5Crj6WNJ5jwkfL/09F38/dmY8xpF4aeJ3L/+f3/S0g2//IVWl6mrwKJZdS+6E5BVJc2L//kXEcWIYDMns6rdlqgyGTpgEfNU1j2TQOZoOfTgz3C34PJU8sw5FpPDCc9uTg6zBE63qQl8xhOOCqmBI+e2IOlFkgVwX1tukoRRLXUi+nShvtlCE5DTJhtaMoz34Y8CExx0AogSkUOuPwc2COmRgq3lMUgbaCVpnVoA60kphV9zOsJ7vR1bcppUzbtihp1oPuPGfNKG0QXVOpr85QUiLNEzEkQkxMfiEXQRvLOlWupWbIlWWED/jxSEoJIxUUTQwzaQlEPCVWdlHc9uSpMr1EqC2bks8DikzRmddvLukuLnn9fuCnu4ky/oQ8dDRXPVps0TqSZUOWNZsOpV5MzZotoUslB6SKFhBrqTydTnB5gyugTUPTbukujsilki3yUgd5ctV0nYaJ3WHPYX/itEy1xZQLKSfKKvUYU2FeJkYfSLnCuqSrCk6xZKZpJsuq3zrGBa3rcdaLFucqAUE7QzIOIyuudF6qkZ9WEmtbQDFPAa0MpSQUq5SePLsKZErJLONM0tXPi1LAZISsqJdUMmcL35Rr5ptzvU8JCTJTjAHRVCJLUiAMrumx7RZl2ornNaaW/qsJY/W3euYA8EJc+qXA+jnrb6mcX4pbP9NTfep9/bFgef77abr8NEXWq2nYuSw83y+ePPfFvsSvfksf7s/T13v6E/jZF/NrX9uu/cJ5HOk3W2TOjMuEzJkfv/ma23c/QgkQF4wQOGewGsJw4v72jn67IWx7jBL4ZSEsnlwiQxgZhz0lLOS0rOweg5IVdpRiIvlAOBX8KvmXlQBl8XEhisBm05ONwRiDdpm0TKS44JTG2KbysFPmsD9xOOw4nk7c7g7cHwdiUbTdlt5tawboWoRNiATLMNIZh3EtQpXac5OKZQ74ZeGMD5znmXme6WNECIGz4iGoVm74AjnSb7ZcbHqUEAzHAxV2V8tOIw1LCEzTxOFw4GIYaLcXtM4ynCbefftX5m//QgkRqergTZYK27KmI6hEmgXD3Ui2GtlumC8jtotYsQFjmLVCNAKRJqyM/Pa64c22JQZJYo+8/ROWL2hcIYiEF5qoHKJpEcqSk0DJOqyphbVBldoWEL2geavI7QWy2RCbC2x/4iJ4TCmYkgnzWPGjuZBCZhpG+t0lm/2e4/HI7e0dIgZySEQfiAlUjFifSBGEq2r+MVY1K6EFRhbGCXwEnRPepIqJ3WzRxZB9JIi0Pjc+2qsUQcoVjypEBdZP04LJGqcksghyqhdFSUUoHIe7OrCcF9hsEF0LanWMFTW4Sl2RIYkaBxrX1FZDgVIMPmtCgoJEWYtzW9r+AtNtcF2PNC1S6QfUi+TcQ03rBexxyP00UzzHok+dwy/FnOdx46zy9RR7f9ZQ+Fj2+vTvnDP6aYn+qZ05B9vzpP/886VM92kK/Z9lfeoqVZPrhFECZHUcjdPIfDqR/cT+7rYCrUtACWitYds2OCk4pUQJC/ME1lXMX4kB72dkCZQwk7ynJI8s5ZzYkTLE6PG+DhrSLCk5M84zsURsoxE6I7QiRMU4eHIcWaaZNEeUqHYbuXhSrKrtkYCwEAlMfiLkjNYVpyi1wpqGN5tL3OsvEOPEu79+Q5wXTvNIoxoc4HOqlMyc1v5b/Z6rQlEkh4h21UbDWkvT1OFW6zb0fUfjHCXVnmIJ8UFcpHXNo1NnjA+BOi1we7dj2d9R/EDyYYUe1bZRSoWcIz4mSJJlvxDkQJD3RGlIRbMNAnHREDqLcGDiqlcQBtpU0MogdGWF7b87cv/+e8yr39J8+Y+0XcuEIYWIPouCl1S9kqRE2BapLUXZGhCaDuV68uYKOQzI4DE5I4pH+ePa/ywUH1HzjLnZ0uy3XA0jzbZnHidO+wPDMDAHT0LQa0nQEq8ts6ikGqFAGI2QkkUFfIoMC7VUZ2EqB7zRICXJJUrIGKNQSqDNqh1bMjFONNZgXUVeqAw5CVI8s4zqc5TW9G3HOI4MxxMpVCEd27gH9lGIEWU1xtkaWGNhGT2lEUjbEJMkybb2TE2LaXva/pqmv0Q1G5Rxtcxfb+VJy5Az1rT8HD30udmpEOIXke4fQw38miz2F2mqTyMwPEKozrfzSfGfKYD+2lVKtcswbYPSgjzP+OGIP50I04m0TIgUycmjrOKy77jY9GTvKSVRSEzDCWslOIMPE2EZECsgWshCjuuVc/Xy8UvE+4D3saqpz5nkM4fBs4SZzaalv2yRwDgETnkiBk/yS1V5Eoro58orKBXvKnvLRnVs5o7tsmA3Amc3aN1hZYNG0XQd121PHkYOdzvGEPBCYIQkrodkoLqZxhiqt/36P2IIDMMJvRi0s1in6TeVeWQf3CJq+ajUWQe0rKpUNRuIhXrCLr4GagrDMJDTgrYapWoZrookzgthmSkxE3L1S/JEZiaWfE8oAkGFA2llyG2DlhKpIkaOaFWQJWII9bObT+Qg8UOLz5mIogkJ3V9jtUWLsOoFFGrXU1OUBl1JFkkarOmRzRZ5MSOXCea5IjTKyJJ7cgoI76ui1LSQ2gbZNTTDzNu2JRwGhq5n//494+5AyAtSZpI0HLPEU4kDRQo0EpRCuIYk4GQniqrfU5wSaU5o48jecxwXilMUDW1j6Vzz0FoKLrGp06CaNMiEygXWFpRtLEJKclGEUBinQIiAsqTVc6ogmXwhTiNSL7i2xTauugGQaKRmLprStLhmQ9Nd4LoNptlg2h5pOqTSIM2qbbC2DVgTvjN6iJcTwP+IUv9z1yeD6vN0+WnW+rH09+kO/71M9+GXJ/yfWoKCyAGDIUvBMg34cSD7hRIC27ZhOHkCBaskfVMhIj5UpR9yYplO+AZUsRUWtdSsRa2qQ0KseIIiCL4wz55lCcSQAM2yZHJWhKBYvMQlSUqamAKn05EQZowVbDc9zhnCvLAbBoQQ9H2LXSEzbaP5Qr6hubwkBEFOhuAFxRdyXO2P02oMbTVRCYawEMZEEyxaa1Iu+FR55UpIjJCrQRxnChJaVG6MkZLWWmKMHKcjxceKwSyizh/W7YqqUCVyIUfPcDhQeYqaeRkRBZTRNL2jcx2ExCHuWXLFflIEJWRSKZVbzwRmz8b1zKalvWhRNxtiniipYI2h2V4g4sJyOhCGAyGBVRs6IRj2t+yXxHQY6d/8hv7iGt1vQBuU0EihWFuHhLzaKuuWqMAYh2g9+Bn8AsETy8RSOkoKZL+Qx4k8zmRtSEohtMEaQ9v39G1PbxuO5h3zrnqFxaJwWhFX2bsiq2ShMrpSpJVE2NdkrRl94H44MceEtI6YCof5BFIy+6oq5fuCUdW8sGRQ1pFKVfVyQmIyoKpYSi6BlAX7w8SyZJIwSGEYlsQcpyrZpyQhRu4Pe3xIXFxfcXNzg20UNkEUwGaDbi5ptld0mwus65G2QZgGbexKINBrO4IHRapzY/CBhflCK/Kl+3/VOf6ZiKXPWR/aqbywXgqUL6XIHwuof0+B9W9dFZuaIUbKPDHc3+MPB/zpSAwLl9sWVSIpKtquqq8H7zmN4wo9CgixUKIkzBPLtCdMR2QJq3bACrjOdXI/jYFp9MTV/VMrQ5HpgZ8cY2QcZxAJHyd8GEEVruwF3VV1x5z9RDnVkvrq6gJJYJ4GRBC86q95+1XHNGTu70aOuwWfPUoZ7Dq9Rys2r67xyXPc74i+Wnk0UlVYjcr4uNRgZyubJ/oASiG1gZJY5pG723cEPyOUxKeIyhnZNEhd9T6NlBWuRq6Ziih4H7i/u2M/Dkhr8EAjcsXfLtX/SRUYEkwRYijE7MmiVDcBp8giE3YwultOGspW4a4rk0shscZhpIGgmWdPkomUI+N4YlwGvBxQrUf6QJwOTJdXuN/9rpaprsOqhiwVRWRChiAEUlkEgoSGolHWIpKHGFBc0OlXVdsheMriSdNEPBxJxxPiNBB297iQcZcjatNj+o7xbgezr9TutoqcSCmrA4yoDLUkIAnB1esbZNMz58zuNDInkNYxhcDtacdPh1v87pbTcGSaQ0UHCNBacr8/8JvfviUkg8+lDrmMQsaEDwmxRN4fJoQ0ONexFNjdTwzzhJAa17UIqTmcMiFnii1gE9ZHuk3H9WbD9c1XuIsv6bcbXNshtAOpK4JFV5eBc+5TytkNWCBWyrZYseI/Oz8/s0x/iTTwbxlMz+tBUOWciX4M+P9SUH2+wx9jOvw9rH9NplpKQeaMP52Y9nvu3//Asjsw7nak6Nm633G93YLoEaKwLAv7YWB/+55hOJGipzFQ/IlpDkzHA3EeKixLUjUqhSSEwjR6htPCskQyGqMbiqnDhJwj3s8MxwPjKXHcS5QV2FbxxZdfcv3qgstXN2xvLtnITB88iYIxAhEH8m6GpXDR92yaa4ZTJgdJnsGgUVmRl9rOMdbw5e++4tWbG477A8SEpnKlS0zMp4HjbkeafYXOAEYJjFF0XUPTNMTkOR52jOOJpmurXJ62FYeZq0JUzpmUAymuwGkl8TkxjifyPGH6Dtu16KZlWQLD4Ygi0LsGpCOZploxR08pASMVJhSUzJQZ4uGAN5K0FdgLwfWrK1xbYUVzTFAk2XWoTpJOIyEMLMNMKiPKR4yfUcOOuOwYm4LZXOK6K3R7iW4q+kIqU8tSoUicsytBlCC0RDqzqizJShLJaQ22kbQ9EacaVMe+R/uAHAasc4imobm5RoSAkgLb2fo6uvaes8jEnFhW/djLt29oLy8RtmXOgiQNonH4lDkMJ8Z54Mcff+Dbb//K7v6WHH3VPyiJHAO7w4BS0LSWpnNrYNVAIZTCbgqY1pKtpiTB0S9MQeHajk1/g9YGs3mFcQ1d31NkRYm02zfc/OYfuXr9e1R3tQL8NUVIChWi9mBrveqACGpAlTwiN6SoFOnn63MTuM/pqf5brM/KVJ9Oyj4XAPv/pSWBEDzzcOJ0e8v9u3dM9zvu3/3EMpx4dbmh+c0XaK2Jceb27j3vvv+R+XSs7qGq4lGXcGAaT8yr75OzdXpMKZxGzzwuDCfPMHqCByEtRnu0trUEC55p2rOMe1KOaCu4urnk1fUbfv/7r9he97iLDXrbgNVImQklEeOMXDwbtSFHhZUNSmisTfSbhjBnioO4wGk5gpK4tuH1m1c0zlR8YCr448Rxf2A8DUzWQS6MHCBWdXdrNG3bcnN9Tds6xnFkd6wXHh+qBql1urYQQqgUyRQqdTfGOjAzulJbQySVqodqjMGajiUlpK52IbZtKxJgGFG5CselVLOaiq0MiJAQi4ZJs+wK/odCJzM6bUklE6lIi2x6vJVEA82lxeiZeRjJ44447DHGkvIbxl6jphNLc0C3l9jtG5rtG5SVaGGIOZFkleSLoiJOzieyygodzQozy1VnQAfUpkE1G0o/0jQN2s+IcYRtDzdb5OzROWNkxug6lHuYdEtByAk5LRQfGAzQKtxVjzEt0jiEcYgC1/6GL1Lm6uYG5xxff205HfcoCjEsTPOJeZkqJtp7+pgpF5JGVMjekgquqwMl0/c419K9Lkhl2F5ecH31CqE12hiafoM2jmVZWELk8vKSN7/5HWZzQ9ItaLVif8+26pXSep6yA49IIQSCKuZdA+rLA/DPCayfwtz/WyaAH+2pvgR2fVwVlP78dlZRF+IMIv5wPcAFC49aq08HfP/O62f/5sk+vvyRiofN0uIZDyeG/YHT4ch8OLJ7/47xsGfc/wF/0SIbi18G7n/8nh+/+5ocItuupessfplYTkdOpwMpTLSNw0iLWaFap9Md42nheJiZ5kiMEqUSSiaEGImpHvDLNIIoaFFx1ttNx2+/fEPXW1zXYHtDlIUkM7KxaKWQyRDSCdv3qGLxc+EwnkhRIExBt6t0fMmoRrK92LDtetpNj1KCxlh61bDnjuPxCIA92zPHSJo9slRyhJaCxhraxhKjR2tFCOtjWtI0DUZKfAj1GNAGYSIgENrUSXoJZHyVj1s8cp6RqgfVcvn6govtFqck97fvKWiQFqOrnXbJS21VxAolio0hzg4GCbsDS+MQMZCMQbUtwslKHdUKs93iSoF2wVvFmDzz4ch0jKQSaK46lmXA6xbhLmnnCZkTzSah3QapHElosq491yJWOciSEEmhiqt8+rOOsDJgM6o4RNfV/YkLYhlJry4xw0SeZ4gJmSu6gxhrmbzasMiUYJwo3lOkIm43uItLpOtAGaIQUCS2gSvb0LY9PsHoYwXda0kuiel05PsfviVGTxIZoxqK2yD7TRXDTnD15e8QtqPvt2wuLthuL3FtQ9O1tE2HadqKMdZVMSuVqi2gtUY3PdL1IF0NYFKs3P5HTGvFJp9P1lK1W3m8OBUeFfQ+hVX92PpYpvrvUv6fh09PxVE+wHhKuQrPpoe/HxW6y7Pbsx7rgwcNKzaJVaHkheHWZ2bBv/ZDyKzOky98Ic87NCKXKlmnFGQqhGQ4oFJmq1vup8Dpbsfp/U8cb2/pZKEc7wl3EmkVy3TkWgViI/l+947dIXDrA/jI/vaOplVcXW2qrN3mGmMcf/36W4ZJcbsLnI6xesXHKrjinEAoiCmwLCNXmy2v2p4cPN6fuOg6Nr1DqoRPR1IIGNfhTLcCqA3CWKY+U/k5CtFkVJvxU0TqCWcKJShKu7DtNmzalrc3rxFR4IzFSUseF4a7PfNprO0Bo7i4uiBMQxUynhfIoFuHyhEFtI1hkzuGecIZW3VYbUPbtnjXgtb4IvClsIhMLpB8Zk6wCI0XihAFyylwyiPt1mDaHtO3VRpPSGSGPMyoEmlU3T4XWSfyQbJMkpNOWOfp3EAUkhQT6rqjmFhZSmSQ0PQNjbG47FjayjTKSjMPMyFGxr/8iWIM1zev6a89/t2On979ics3X/Hm9/8Fd/GWCUPILUE1ZNESUYSau2KMR2iqwpOoWM1VyRNVFLrVyByg2SC3ryFVgH8pIEMg72+RYaHEigxJKZFjItuEyzUwKeNI0SFFtcE2KzutlMKQMrK74jf//N8xF2/49ttvef/+p9oXtVtU0lxte159+ZZXb16zvb7EdW0VutGay9e/AdXUIKk12lZygVpdDlIp9f2IVcVMCBwgz4Ir0q6BUzyBTNV9k2tr6fHMVA/n6tqM5Cwj+q8dSJ1/fiww11ZbftjPc0w8b39+rF4I5M9i1i9CqoQQDzLYJT/XA0g877u+lKGyqqiXUh6Cav37qbr9mYL286fnj3yGv+rDLfIxU133cdVOryrpeXVUX/dBIIg+sByPnHY7OqVolaQ1lrevbnjTN7xqDSxHGpXxu/cUU5iGPUpJeh25sIXTNLHf7zjeBqbjyM2rLdtNPfmHMRDDwl+/ecePP9xxOC7ECCVLvPdIKbF2JpfI2y9fcdG3vLl+RRgG5mGPLA2taxAUcvEIqqqP0gltBELVz11gMHZbxZBL1beUKmNsZOMM7qJFBkEcIizQiJZN2zLtpppZpci423Pa7YkrTEw6S9N2jMcePw40TYPKmXme2O12CGfYXG/Rl1vkcGQaJk4xwLLQa00RirlpCRlK2+GURpiGlAsmFVwMpFQeeohRKhahOZARy4gNgWEZCaIgraGERIqxTt6lIeTAEjxpiGBAz6BOHtl61MZjkq2qSzJVIL0QZOXJCILI4BR629EUCc1CHkfm4UDbdbg44+IJjeDkI7v5lun4I1/84Z8xl7+luXiLFJYxeFJxCN2jbCDnqnV7FqlejzhkUZyhBEWpatCHIAiIpb53GyNds0X7BWJE+ICIcVW5LshcyLHaXacY8eEJOULraqXS98imwUmJvXzN5svf8bthYPYLqRRmv9BserY3V3SbHuVsRRUoidSGLHS9SD+ZmUgpK9wKqgMtfPiYEGvwXAVPSi3oKeJB9L2e82IVdH82dCqPP+tWnzjnP5WPrQnfL3VVP4WxF+tFgDVjrts97v/59ll2Ks8ZA8+B/7+kD/CpN/D30p+tGNH1i04RHzzLOHE67Dntd4w50RnFMBzIJdL3DvvmkunomeNQM9sES5jQRaKMpOlaDtPA4XDisJ8hllU70iAwTGNid3/g229+4m53IgYBorYDYox0XYsyctW7hMurLTevrtiVwDILlFVoqwg5IBGV8eQMypraGxCrWK+QWGlJSTwaBwqJlQohHVgQS0E4gYoKGQTCw3jYkz04FOE4Y4SsVsxxlb9TtX+2szuO41TV6pUiriywLCSm79GNQ78WpG5L2mwImx7rWq6M4VKpikvUFZ+YKJXpk1YcdDkLo1Mxu+NIGkeW+x2n+chwcoQ0g5ToVFsVzghSWJiXgogZpgU5JFQjSYNBLdX9VSSQxaDlWn1pQ06FkKugie16EAZtW4SSxOTZbDaV+y4EXdth2sKP+4Hv//pnJl+4+k3gCo3dGpw4Z14aRdVwoFSH1MdzuyqAIQUiK0QddSFFlTXJoipVCa1wqkU6g4rVeeMcUAW1wiIXovcs01wZeykjlUJYizSa3DiiqnhP1TfcbFquS8HHSuYQWtXs8wzer7GvaswqszKs9Ivn9tMg+vzvD/uWj899Pth+/nr/0etjcevXxKhSyud7VL1E0XopsL6ECni+4y/t5HPc69Pt/7XrefL88PeTl5ZUaIkq4ENkPg2cDkem4wG/TLRGkVIkhoW9U/wdAAAgAElEQVR5OlYRYhlouyooXGRAG1vl0daUW1lTRSfy+SDT5Fy93HMWzEthd5jY7SeOx4WcBSkvhFDQGq5uLtjebPBBsaSJkDqUkbStI3YNPmSElaBAWoVtHLZxCKsqd1xQuddSYUXlqodQAzBnnVUfkRFkFFgsjXGUmJjGkdP9HWGIWGnohKVrXBUzHitsRqWE2fS8+u1X7O7ucdqxubygCBhyJS68ft1z/faP3Lx9TdheYFxlWbVdT9d1GNeijEUaA8YCld5aL+BVlAOghEgYRsbdgeP9HYcffsS3mpOCkwExWUpK+GXClIzQliIlJUemLBCzR42CPFrUsMAYMK1BqCrrh6IGOyrmUqEqEaMoUllwuedKiGo6iIIIzlg2bUuWCp933L37jtPsOYwLb34zc/n2H9g4zZQmlmlG6UyWijqTKFXpTKxHX8l1P8pK514DshK1XSCywFOhd1lRe5GmHstnVltJGeUsrmmwqf4PdS61lQRbrXVyKY89WQSmZGRKFClq1rlaA6WHgKoqyUCI6iH2kXWmpL8EV3rIAF8wonsezD4XIvUfuR6H9b+87a8Oqp9z/8cC61Po1vn+5z3YFwdk/44f7Lnkr78LyBE/DuzubhkPB8K8IIJnnGaykcQwMI97juMOpyKdSRQnyTHTNFukyquHV6HEhLUN2+0WFkWYM/M8c3u7I4SENJq72yOnIRB8hZckCuhMd9ny5revefXFFdN84rQ/EMLCEhf6bY82heMBtFWYzmJ7h+0bVGMrbjEn5CqgLZTEKIla+8pFKlKOBL8wnyby5DFFo1WPsAoREviKpSRUxQGfFnRRUDJWG7zIJKXYXN3w5g//hX8QAudahDHc7u8Jhz3uasur//bP/MP/9t9Qf/gj+fKyHgdKIrRe1Yf0KnC8fsflkTkjM8hSM1aNoEmR7TTxelqIpxOH9+84/PAjw7ufePeXv/Kn//F/c/zxJ6b7O9I0kf1SB0nW8UpBu2j0kvBzwk4ROUSEkJRUWAhEUbC2oXFdNZQTkqLqxdEBRtSqwXtPKBl51LicMAKuu5bgTxzef8dxt2cZTqgcuHn7ezbKIUsh5iqEIkq1wK6SeWcdEkkRqweSoM4n1nNGiRrsYsnrtFw9SxTqZ5dirCV/1z48/pD0CEEQhbSKn+dzFSNlJWAIUYVTVrO8XGqfrmqlVm2AXMSD19tLge+lfuXP7hM/T5o+1d986fe/aX3m05/uz6eq8U+tX+Wm+qk3/vwfv5TOfyxr/RTS4Hkg/tvXh/3b50uUTI6RMA0cD3uG/T3LcFq1RDOKXJWnXl3TK8/hvlD8gY01tE4QlpGSZuZlwM+BZfacjjMhFCSqWj6LyOIndvcHljkgtOH+7sQyZ5RuUcbQ9i3t1vHmy0v+6z//nuvXW4bTju+//Y5hf2KeB9rthn7bMfkjSRTQoBuLtIqiqrJ8FAWtBEVLHlwqi6zWwaVePErIhHEmzxWQ7rXAG5BLqVKFylCsQGXBOEyUosh6bTNoBcbirm+4evsW23QkFMOyYLsNv/+nf+L1H37Pl//0D/DFW9heEKz74AKb1xMs8wJGWpz90mrLyeQaAGkbVOOQlz3Xb2+4/OPvSePA7+/u+cf/43/n/dff8NOf/8IPf/4L77/5hvl0QroW2SWS8JSkKUHCXGBMZAI5KOYc2A8n2q6n3SQa11VyABJlTXVfmAsxz1W8OQSO+3uOw6GW5Nrx+qIj3R85DHf89KeA9BN53PPmi6/o+ytOaHJeg3XRVbmpSFY/Car3E4iyBlzx5CRHVbPMJ8PWc9CN6zGsjH1omZDLg5kg1Ixzir66m/6/1L3XliRXlqb3HWXSVahUQAKF7urpIWfm/V+BF1xzQ3Kxh1PNYndBpArhysSRvDjmEZ6REZEJFFCF3mv5cmXymNk+W/6/zNFMN1F4mykxG6O49W6yIs5J3pQSwQUKYW6BiR60Qh+pa//oOftCRfl7tFY/J4fz/2Klen8An4qbHi/70EA/pFz/nvgBmSJMYIeebrNl3NyQbI9OAUIA70h2zzhCWQgaGXEqK7PSJCojaHTF0PdcvXuH7S3eJ/abAeehX+9RqaAus1Lp+56us4Rk6QePKRoGGzBVyXy14uLFCRcv5llpnBSUMxB4vreOfuzQMtLUJUkmggi4CSruQAueBEh0Rq3SmuSzhRVGix0GCBHXO+y+Jw4exgAOnB0YBCiXkB5qXSCEJvqI0w6jSyIx03ioAj2bo1crxrJm4yNjDFCWNC9fcf7tVyy+eQ2rZbZIlUGKOnfFTGbUcQIyBEfwYQr8Z2aAAx+kiOTMcSEyaVwKkDL7lp61FP6E+vlzVl+/4uIf3vH8+x84+9O/8qf/4//iL//6r+z2PXWyrKIhBQWjJA0gdM444zwER9wP7IbA0DmqaqCuWuqiQuuCFA6ITgpjDFFk1lgpEpVWmFojVUn2srdstxuuf/gT2u3QdkP74jV6+YIgBEpKSB4R9R2tO7m0KXMmCI6zLiJFDjCK8RFllVICk+PxhIibYrO3ywpB2c5y7FaIjBU4xWQRIodKbtM4UwuxOiSasocjfEQm+YkuOHw+4IPcHvcTivV43c8ZY4/997PksOoTKubXiuv+KpbqU67A8e/3wwD3P8Nv5f4/NpKCXFebof36vcd1HX4cKEVCaIn3Dud7aino11c4YVGMpGGHwGaw5LIgBsvNux0f3vyE91DIkjAmokvE0TFax2yhKY3JCZcQsT4Qg6QqW2zo0WXBbDFndXLCbFlR1oZmVlHPMnrQzYdL+s2O3d4iaBEKlNYkkWOPPmWKjig0SqvcvSQ0MYF3gbHv6Xd7wpgVbLfeE7oREySS3BUUvCO5RC1LSm0QMvfSF2WJKRu6IbcmUlWsFguq8wtGodgNuZB98ewFz755TfPyGcxnUBaZzTflnvmDxJgy3xMT9FwUmWxuSuYI7ugxREoZzDpNAOFC5aoNmSYgZklZGGRdMm9a5q++4tUf/4mzb76l/t//O//2P/8n4epHvNsSnCGNAjo58YAlpItUUjETNbthZN9vGY0lzAKpipRlIljH0PdUVYHUBiUClSmYL2c08xzrHqxDyQqNR0fLfr+m+2C5TB3WjzybrXKff1KkJIl4EMW9ezK37HJbGZBjm7nvTt1lrw/u/a07LXA+38tCadQEv3lbKgnZ0p+qb2TKMX6lJgWbcvIyx3onJZoylmkit7PGiasLPjWQngoBHjcOCe4qAz56Qh/wRv8e1upT+/lSo+9nWaqHwYjxbkCPkaoeUqiHOq/fUr7kZO8fR+4tDlM5xHRBU6Db3SCSRwMyeeazChsHGPYMw4a+2xLTiGCgqiXSG+w+I0TJCE1Rc3lzQ0ieYGEYHCpAu1jx4uuv6fue0f1EGC0A//Sf/pF//8uPiCLX/QkBu/0Nz8zXKC0oSo3zlvm85bt//I7rd5dcvX/Pvt8x2j2nL5coc6gXVLm6QECtS0qpcTbgOsf++or99TXOWsbdwNXbS3w3sihntLqiKLLytc6jvaAXDqE1frTYmDJQRwxsfMAXJc9ef8uLP/4ROZvTucDJ8yUnL16yfPE8W6eFAZMBWSxgkJgJzSonUCIiRlLIlDExeVTInkEiZI6mqaZRCIEXEp35ukkxEYUipJgJ74RgJDcXyKZBlTWmaflP8wX1xXNOXr/m8r//b4z/8n+y21sqE4jjBrvWqFpQtIbUaLQS0AeUFmgSw7oj7jxjMdwqBRumuKUSzGYNs1mDrgu8Hem7NdZ6CgUvzmbcGLi6uuKHP39AXF5zOSaef/e/MDt7mRWkjATCZFNmMBM5JeoyYv7R/SvEbTE83D1jMX/J1uSxBcnksRxg9FIiHkIHiRynTVlpyykrdng/WM8xASFxgCKWt4m1L5dPFONRrPex5Z7axlP/HXd+3pe7uvlPddTHZaJ3n+/Yae9qUh/a/3GIUogvLKl6ytX/0mL938K1/1mxVhEnPxK4DbcfJLLZ7ujX1/z04w90Vx9wuw06Bv7w6jmNkribS+w2hwWkdAiZkeWHfWLvLbYfGPoenAAXCT6jPoXOEWKCWe5Ci9Fj3YBzjqqqefXqGbv9HjY7UAKpcq3nZntFPfPUrWe/W1OIiuVyzqysKbVmt7lC7Dzz+ZzT01OQmaQtqghC5y6wwbO7Htiu9/TrS8btGqLAdZZ+u8N1jjJkVlMbfS4pC4rgI6MfCYPFjRk3M5mCJBXtxTmnZ2csvn5NbBp8WbF8fkJ7csHs9Dwr1LLIfelK4ZFYAnqytiAhUsrdWzErxRgCIgZS9IhsriIISOJUliMRSWSVkyDAVE+c6UmCEDkUksheTchki7qdMX/9NV8JQb3f8P33f6Ffb+g7n5VQ50AHQqsRs4LYaLAeWWkgEnCMMoCNCKVBSVwImf1BJ5IMKANNqkkpMI493vsJnNmwmhckq9ntOvb9NW/+/C+UVY1WBXouMLJCiJhRtuTEG/9AelyKBMjp9j046PldHSnXYyv21mU/1IIeKWk5/ScRt+0Hh78PtdtwF565fXR/pkZ92Gu9M8ge82p/6fa/tNLo/vq/tvws9x8eVqJ/61joQ1UDn1s+hPjgOlLK3GIZE/vthvXlBz788BfszRWliLTJcTavcDfvsbsrAgFtMg2vwOAddHuL7S12iIwWQtQE64k+TPvOwMLb7ZZu7HBuxLqB1dmCk9MZFxcLPJZ+GBiHLS52vPm+w+gL2gb2+y1bt+XVxVdcPDuj1IrNTc3NTcVyuaSpKro4QEyoKFAqY4i6fmR3tebm/RrXbYiuo5AFRkjaoqYbBMnmsMHejVgihTAID270+DF37UgpEaZGNi2rly9ZvHpFaBv2QlEtFiy/ek29OoWqgaIEkTKp31HYJRJB5dlfTMmPKCdAFemJMRCFJwpPmpInQkmkTPmVEjKQgZMnHzbFXPMZp24syER6NgSEtZmVdDHn4rtvaTY3dP/zT/z0P/5vep+teWUjMY0ZsHoYUIs6H4uUaJWtQ+EiwTvQkUHkzispwRSCzT4ShWceW4pKZcodLVA6U7uUlWK+qEkE7N5ydfkDl98v0bpgKSRV2ZBSJrM72DfZyswx1dv79ehePii/2xDh9EHdfwzSxzFrcRRF+9RSvdumOArnHn6PR/v5Uvmcwvqt/n/IAv3o9/vllb+BYv2Eo+qx+tPHsvR/K4V6vw725yjWfJwxcwwJMZWLgJC5lCSGyM3NFW9//InN1SUyek4WDcZ7dtdXjB8GZtoyjjtiSsRUUMgyx/YSjKNk3yfGPuC8wEeB9Z5SFsznNT4mklZs9hu8d5S1AeWZzUvqWnB61hLSyJv3IykO1EaRosP2A+vrGzabNd56Vu0Jz07PJkVaZC6ipmHsR2QFWmq0LFCyQDno955xM+J3DhkjSiiaoqQyFTU1W5Gt1egiezugRaRUoJD5mJXBVA26rKBpUPMF5cU5erXCmYJqPufkq9cUq1MoazAVSHAx5oy0AojkCGickmiJIDyIHO8LBIIIRJGh92KKINLUypnRprSYlEni0M8CxFymREJwB5ie3VxBUgo5cccrrVm9fs2zP/4Tb7//kXEYKFJCW4+zDj8EQp8oiIRGo2qJUQW6MHjrSSHifWCMI8pI2kXLYjlDagjCsRt6apmBuY3R6NvWxYQpDcZIpBgpY09/9RNXRYmpZlSLU3ShEUlnKnCl8rlP9/nhXYgja/GeVpBHyvO+ejhWtOlWWU5x1zQ1yU6f756t9NF2ctJzCrsK+LSx+1P5XCz0t/r/Sz3iXysh9ZjcWqpPKci/pzJ96FgeUqyfk8MMfwjqQx7MEAJhGBmHATsOrJZzzl9e8HzeEro1777/nu3VmmHc4UIPSue7OBYMQdANlp8uN1x/uMJbh1aSJAqiChRtw2qRazOvdh37bo+QgfOLJTHVnF3MUNpzdtYgpCXSI4Tg4sUFVa1IOD789J43b3+krlo2qzX75cmURMiusZz4pzSaQuTSHz84unHH9v2e4XJL6ixFKWjqilnTUOqGmQLtDVf2hrF3BC+m8INGqAJdFRidC/VN3TAaQ6gr4mxBmi8o53NmL15Sn54ThCJMYBhpquJQMk1pwEgihxYOiubuOkASufAnTrG8/OAebNGcFQ9CIlRE429LsHKSKyFiDimkkJGumK6u0hqjc0tlSIlitWD5h2/Q5+f0P71FDAPRBsZdTwg9sYCZEWjdImJCa0PVtHid0cOkShQUmFKzXC559vIcZSTduMPFEbREGIGuKoSEaB0h5WJ83VQ0PmCEZBg3bN5+T9mumJ++oDxp0AgCWaEe3bF59ARTO+uhxInp3v34/XMiUh5rMVmoh/v/ECqQR8/EMdjR7RGJu8DDl8rDyu9xhfhl63/Z/59YqfcmnocS7L+Wcn3Q/X+qyP+pTP1vJV9ipT51LCndzb4Hq/VA7uW9p+86tusN3joWszmreUUlBetxoNvcQBhJ2mNqiSxKhChBGzqfeHO55v/58w9cXV6jpOT56RmzOvMwJWMQRe7jz/32OWO9XLWU1TwDq6Q9das5ky1KR0JIfPv6K2bzit1uw3Z9hU4K7xy73Y73799nDFOfwUDKsmB22qK0BJ/ouj27bmTYeG7edew+9IgkUYuEaWZUytxafRJBdIl+dJS6wRQNZbOgKltMWWBMSVlViKpiSAFbFMSmpr64oL54jpwvoKxAaA5zlUgSnSbTMnlIAREdQmQw6o9K58S9+KFQt1oiK1hx+wow1XVOrdLcAQCJlPFuNZm1QABalRlKcIpVmtmC+utXLL75mg+7jn60aAS9i4xdh9MBV0vqUlI2hsZH5mWV3XPpkGZqWzWJum2o24ayKTFWM0ZLiJZu2JPcOCU2QuarrwxlalhGcMKRdpab7SXrdz9w8uIPqHaF1stsoR4ySYgpBpppx5liqpG7MjPuvT8EufGxxCleGvN1mszfg0JNU7ghTcob7lDl7sIIEvmFj/zvzVp96vdfWx50/w/vj3UT3A8L/K3kMSv1y0z+yQVNd+sKIbDWstvtMiqUEDRFgR8tb9eXXP/0Pbv1DSerAlUFpAFtGlxU+FQw2MCH9Z4///gONzjKouD0TJJ0iWXH3lsKO7Df79G6YrVaMNodMVmULjEFXN+8w5hMhHZ+vmCz3hODo9Bznp1fsN3dsJzPuNntkVJyc7Nhd73Gu5HoLOfPTpmtGkQS9LuB6+sbrq63jNvA/toxbjxaGkJwnKwyX/vQdXRbz34/4lwgP7ASZWpm8xXzxQppiuwIKglFgdKKdrVg8ewF7dk5LBYEoxlDQBidu7XIHn8GFg6kGCB5dIqZPkVE5KHtVAhSkjm+R6YiDgQiGRpPkZGbZMyMmlFAUHducEyJNKHfpBhvwThSIrdbpjtFI6WEQlOenXH6zbds33yg32zQQqKGPWnc4gls9jtsq9DrSLmcsUhnSK0ywZ/RFJUBnStgnHMIJxHKUBQCnzRh7NkNIzHmZFXbNCglKYVA+YgZPaFSDDHhhh379RX16R7VNgihiEeudZqqaQ53dpq4vML0/TgOCpOyvacf7ivag6V6kCjy2B9bo0nexXFvvYfDPg5gKD9DPlV+j7vev4ZyfUwX3Ca1PnOMv4Z8kfv/e5Jf0l2VFagC7rETJAjOYruO3c0l++sPaKPYdRu6y7d0V+9JtqdpliQdEEXuMLHOYn1ksIJdv2ez26JEgfQRlyRBKMYAJiaCUgQhqeuG85MVl1dv6LoOqQLtrODd2x9AChbzU77++jVGReywJcQZJ4tzzk5OWcxaTs8dg/Xs1zvGcZzKWxTBJca9QxcG1zluLjesL2/wg8B2CTcmhIJ+sye4XLw99pbtekffRQiJWlcEnx+appnRLk9ISrN3DhsDSSrK01NO/uEfWT5/BnVFUpKoNSLk7h/C5A2kmB/w5DPJHQElJ6Jhz5Rvnm7uKasfp5dEEFJAkJBRooTK9MhIoooEmbLSnLqFJrsKUspx8pCtMSkVWolcMudyNYENkagl7ekS3bZErSl0iW9b/JDRsvZuJPYjGJh3Az4klDAIVU5FBWmiKoehH3HJI0uVX1ozW6xYb29wo0drg64bjJY4OcLgkEawVAUj0OFxwzbT6pQzklS5JfSgLkXujLuNVqVAmqxucRvf5FZLxCnefBzxvJ9c+ihWSo6n3oUTjpQrHyvUeHA8ftZT9/ezVr+kXOu3jKveUlQfLLen6rceS1zdrw87uGgHfNVDnddDJ/EQfuuvLXKCHpRCTl0w4K2jEBHtBm5++Hc+/OlP9B9+4mq/ZllrymQxWOZnDVolYizp13uc2+NFABJuN1ClS/74osGOCqMr1GChrHm2ekbXr7m+2rJcrpgvXvLnH97x/t0lRRFZdQE7RoKXIAJGQwh7iiqwWCmqJmHdltOLBdvtFp0UK13Sz1vaumFzvcbbQAwKNwjW73reXr7nw5sPxCRYLE7R85r9dmS33qF1hQkV68uOdz984P3bK1Q0KC9p9Jzz5QXPF+eczE6JsuCt7ekKQ/PiBdX5Kcvnr2hOz6EsgNyLriZg6pDs1L6fUdpzLXnK5lPKD6tLh073u+t/QGsSQiLklAXXCs3H9ySAjhLsVDWQi7+mGs+Qu5smAJFS6gwiEqFAQEgE65HDgHaJs7LmpKzokmDf7Sl0SdUs2G0tyWv8KJGD5OrNjn9NP3C6WlGaghTB95aqlZl9QEv6fqD3+wzsfbpgeTJHGc0QxowdUFckrYlKI0Ig7fc4GyhqQVAO179lf9WgC0VlFD5AFDqn9sSEAaAgCo+I4paf6SOQq3SPkPPeuH2sLORH1yAdjfOtRTyFIG5dfpGnwWyEPM0P9VC2/THldd/j/Fzp02PG1EM663h7x/u7r6eOdd5D6xx0llLqSKfFT47jvu57Uqk+Jk9VCzx1wvcH6SF5aHl5f7v33r9EH4ug8k0RQeiECB4ZA3K0DFcfGC/fM3x4T3f5E2ZZY9oSKT1VURK9ZxwCtg84P2CqhJYB47fUdJw2YLVGq5oYPK4fKFWDtRHn9xTNAnuz5y8/XtLtLc8uFpT1gmZWM28v0NqjDZSlRpuE0pGuv2GzE5RFTT92uOiYX7SUepHrX0egUhRyRr/17LstN1cb7D5QNTVt1dLOVuiiZ/SO/c2a9WWHMQE3JlznsINFO8Fy1RK2HXt5jWmWKKlh1tK8OGP+3WvMs3OKdkmS1cfWQQq5HG1SrreF3dnGypaSULliYuIcurvOd1cw11qm23jh4d6QUd5uM8aITkzgHjEDPwtJlAkv1ISHm3IZFqB8hJDBwUPXE7sN7DbE9ZbUDfh+pNv1mfEAhaDM2XKv8KNke93h7Dv6jWPRzjBNgSo1g+3xQRJdRiYb/ABDptxeLGaZzFDAGH3urVcKypJU1cimQcsBrRImeqK9Ztg11PtFRs03uWMqSTnFUvNo3mbs+bSk6vD5LgX4wL0vDoGZh9a8/9s09unua973pCfS8TUUt//nRdNHm7n//8fH86l1/Mlx3zu/23W+IGb6VOLqeJlbHfXARPS5sOf977cGwF9jJT5VbvW5QPLnZqdfW6LIyE3xNv6WH9Su69hsNgzDQNd1bLdbaukpZKSs5G2NqbWOobc470hCUVYGrVrKIuRkjlQo2TAOia4fGWzPrt/iQ0eQCeffcb25pDSSul3RzgvqtqJqNVomSA6tS4IVXF5v6HqH95G6aXHOYQrJ6fKU6BLdvsdaS1W0uBjYXq25un5Hb3siHp1KkgBdGMoayqbGDQO7YBGjJaVEXbf0Y8f1douzgNrQdiMXTcX52Zz581fMvn1N9ew5adEgME/6fx9NtHw6yebr/ch98ch2H5q8D0+7RKAEHEqrQpxYSocR5wNh9DCOxMEy7neE7Zbh6j1X/9+/cXX5nrHfE8cxhxlIiEIThoHkHGnMkHu2H9iLLSpCQUUMEqFETjrKBNrj4og0EVsXyCAohSC4yGgtJElZZpfdi4LYtkhV4K3FOhhjJI09Zr9H1Duq+ZIoFCnlSUIICT5mfSg+HY/fIsnya8nv8diy8nzc2Ltd5p48pFyfkp9d/H/Y6FOhgYdmgJ+TVPqtJB9jQIhMlRFCpiS+ublhGIbbVtuQEj5FipRRezKUX2QYRrq+px8FVVsBCqPmzNoZm+DQuiWJxHaXyfGs3xOFg27Nu3d7nIMXzzR1O9XIywxGbZPLnJKdxTnH1fWO6/WaEKGqOgBOTmd0u55u73j70xs21x1tNcdZz26/ZbvvicmCzGyuwzAQQm65NCaja5miZNjsUEoyn8/RQXH9fsvbq2uKhQCdWLYGdbZi+dULymfn0JQZIf8zl+2+Un1IPnVLD5+nnvB0PFGDkEeKWeTSKZkEIfPPQpxaW6OjEIAUDJs1/eUN480aOTj8MGC3Hdur99y8+YH1T2+4+eFH3L4jOgdJURuJNoY4JEbnUVpRiBxzLZSmkAqiYLPZsVjNKExFSolht6d3HU2rkQ7S6LJ1bQP0DoGhaARSF1hhiVWL0J7KOmwfGG3ChYB1A9YOmGiJImM5SETuNCPDrN7ev3zsov4e5XOx0L+n/NzjeSwh/5Qx+ld1VN1XqJ+Lizy2nb+FHO9fylzw7ENgv99zc3ODsz1FoZjPZ9S1RsqpHDVmRlI32kyRvBtIIlEMuR10tGCdwFqRubAQ2BgY3ICpNKcnM5rWcPashRQ4Ozvj61cvMUoy9D0fPqxZb6558ew51ieMznQgdTMjxoNCD6SQ2G12rG96NtcbPrzfcCN3xAhlaWjblpAMgxtwwdMNPd3YgTBEEns3IkuDMCYj+AtNtaoZXkHvIiyWnP/xn3j23/4zZ//5Hym/egGzNndFpY8Lwh+TOwX48PgLIT/6DhOexEFRpI/vKRGPXasjLycFRIyo4Al+RHmHDIFhs+HNn/5f/v1f/gc3P/xE2nfEYcBu9wx9hx96+usbwn5P4SP51BxJaLxMJKMIzkIIyASFVOgkSIT6YUoAACAASURBVNZnHFItKYqSoihIKeBGnzFMm4IU4PrtJUVlsDHgfaBQCRU1WhhE2eJ0zrUnHxjNSLlzDEkQwoh1PZUfQBUIGW5jmXlc5G2d7/0J6/ektJ5K/vytPdPj/ebXx9b956zVz+WWjv/76J4VIrv/v0QeUqj3A7/Tgh+5+3+vwU2TJXN4kFNKOOcysd92hwmRyhSkusYUCcgMsZEACWKc+HekJvhItwuM1tKPEecl1kIQIyiwYQQVWZ0t+cN3L1mdVITQQ/KcnJzw4uI5IsFu13FpFD6mzKAaes7Pa07PLya6a8/V1RV9vyd5sPuRMDiMKhBJsN3uaZotZ2cnVFVFRCG0uMXRHIaBEC39aNn2PUkpTB9QlMyLktV8SVGvGIWka2pe/td/5qv/9l9ov/kK2pYoJM4HdBSIT3MUP0sE6lap3t2wk7K81cLxrgX10FmV4pTjn27sGEnRk4IjWYtwlugHdBKYsWd8/5brf/sz7//t32DXIZ3D7roMLB0DoRtQIVIaA1JgSQRvc4gmJHyC5GJmZ/AJZMDHkaRgvloB0O16hAykJKh1QSEUtuv5/vqSqm0oyszAIEMuC0NV6KJEU+WEXfS02jKyww0Clzx22GHHDmEymtdtHDSKTJkip5H5nbv9B/l7WKsPKcpjpQrH99qnx/ZY0uvw+UvliwFVjuWhWOpDmbSH42p/H/c/U2jfDVIIgXEc6buOvu+ptELrnAiJzuFV7vEXIqMiSS0oKkMVCvoxJ636MdD1Hh8k1ke2fUdVG5q5Yda0vPj6jK++vWA2L4l+xI8D8/mS5XJJYSqWC0/bLKmaBZfv3jOOI5FE01TMZjO8t1i3p2kNafAUqqBpDMErdtuR/f6SruswRjGjoWg0y5MVZV2hCkMMZO71caSua1JK7LddbkXVy1wuJCJJK9qLZ5z+4Q/MvnpBbGuSUnjyNVZPZUGO5PY+uRfwB6ZSqk8ftOPJl/sT9REf2m3TQAzEkCmo8Q6cRVqHCB7RdxjnaHx+RW+RzmGCR/qAjLm3SyuJMQajJCF5rBsZraP3mWxRKUUMgeh8ThpJECFihGTcDYz7PWWpaOoCXRY4FxjWA6MbcQlm2lBWFbppCBPvE4UEChQREwOl7ClDpE8D1o8M4x4zrClSxmUVUufOrDCxEedBejIZ83uQp6zVv8W+D4hc98fp4OkQn56UHrNS78tTHvoviqk+dTD3H5Zjetf71uzfSm551gWkQ5+48zg7YO1IcCN1s0Dj6bwnhhEKkDKDPMcYETLTk0SRH3DnAs5FSBpjFGiQdk9RC569XLE8q3j1zTnL0xbEwdqNWGvx3jNrK+ZtRdPMqcqWECKX796TUiIER8IjVaBuFG09x249s2qJs6Bkx2bds17viTGy3e8QKlG2K87Pzzl/dkEUcH21ZhxvMEpRNA0xgFADRmrcEPiw+8CbXY88PeXZYsns2QXMZuyFzNCH6Gzcx2mi/JmX7KNr/FGSKl+POyWcIN2V1sU0YQAcKdUDvCRxaioIjhQcMjhU8ig3YpxjqQVndUkoCga2uQ557DEuZkV12Ef0RFOSkIwOemeJCaqioCg0Ima+K5ViZlCQkbjZ4oJFSTCihioRfcK6kYCjXjSYuqacz6hXS/S8xRuNPBDnTeAvJI9KkaIe0YPDBocPHW7cIWVNYVqENFN5VCKFjCd1SLT8R5G/tfv/WKWRENnTOoYnfWz5p+SpEOdH7v/xxh9KKB1v5D6T6kOW6WG2CCFgjL7dxvFyxyd1zKt9f3+fO+n7sY1H5ShzKoQgBEdMGdJOS8V3333HiYLNm7/gvaXWCm1AKIn1Hi0FQoNnwHvLdr8jxQxoEqJHaUFMjtffXvDNdy84f77A1PDi5QnNvODqwyXrqy39pkOf1wx9xDeJYb9DCIFSGU2+KBVSRuqmwBS5/7xuzzDCcO23jEPP9dWOD1c7+n6fLZiUKIoCXWqqKrN8juM4kbrlZLlIEAeLHRynsxVmgJurG958/4GNUvzDi1c8++obitmcJBVKauJkWxZSIYLIVuQTSZKPfnvkut1xqYv7f+R7KwRCdLfAKCIeLIEwvU+4olojYmQIDt93FNFnmj6tWLYtZ8sFfV2RlCIoAVLc1skKbdgPPd3giUogFPgYcCHjBkgpMVKhtUaIxOhHEhJNQRgtSkGpDUap7O24ERs6huTYhJ6L5iWiKTGrGfp0RSpLBpXpZ1LK3KkigTKeoi5pXQDpcN6TfE/yHcQRQUVKMpNGAlLduf+H8f4lSur++l+6ndv1foFW/5xleHg/rmX/xJN5YL2Hwo1ioophmohDmEDQDzHp+On4iRxwvd3OAYP2gKF62PYxO+xTL3180A8pvvvyYIb/6L/Db7ezQvp4vV9yI/wc5froMkz1bpNyOAxeURScn53AZp1h7hAoBUqrjIousnUqVWSxbDFFg/OJfoAUDftuQBvNYrnk/MWKf/jj18yWBYiR+azAR8tuc0O/t2xvRgg3bG9G3s4uGQbLcjlHSvDeMQwdMY3MFgZdzDGmwGhBv98y2j3bteX9hxt2e4cpNOfPzjDGsDxdslrNqVqDtZa3P73BmJIUBdEHZEgE5wj7kerkBCEie9ex3ncUz5+zfPaM1bNnqKolopCUOZYcc5H99DR/kiS5tSzj/YLoT5Vvvkb34lNi6t2PB7BzOz0IDpi6eFKarsHUDx+Z9ukY9h391TXSjVCUNClSasPJcsV+tWC8fM8ooK0rEIpd7/HHk2uM+OAZfAY/yfiBGaPBFOp2koKUr9FoaZqK2hQUWlEWBlWVeNHQhYFRBurlEjObQVOT2ppoDFakXBXlEkaAUAKBwhhFXWqi84gYiX5PsDXBdZiiQko11asKiD63DE/pq8/d85+Lvd73Hg/yW3qQTynIh/6///sXe7iTkoQjC3IKC9z6Sg+Mz0PHccs+8TM87M+6//eV6AH5/6GdPHXyD2XQ7sckHipbeOjC/1KJhAxzJnKXRKENhdaklNhubgjOovRd/MUYgykLRIr4aGlnC+ZzzXo7sNuvGW0Gq25nBX/47iWLk5rlzKB0Bkx2o6XrdmyvOrAVyWl264EfN+9A5X18883XtLMyu3kp0HV79tuattIUCvDgrUUpmbHcVMRUklm7wpQNVVWxWC14/vyMRODDh3f0fZ+7rWIGqtZTZ5HEoJPC+kDvA52IXLx8yer5S6rFElnVJKkRZPf/UJR/iOXdJotur1f85BqK23Xu5P61u/V2yC598lmRxpBBvPM6t3uecFNzkjGkOCkgn3Eb+g6/22ARNCTMMFIvZlx89ZJ+u+WDc/iuA6+JImLtkEFETIFNiXHMilypzBQrExkHtwjoUmEqjZ/oSEgxeyUx0A8jQlfM2paiKihMTXu+ZP78nOpsia5KkpZ4JXApESOoKBEix2aFEGgZ0SqgdUT7yDDssclgdI0yFUZoJAU+TMAn0jw4tvefj899/48gv/h478XmD/LpxP/ryvFzoB/64yE5VqLHZvBTyx2+P7TjYyvnPs3J8bYe+v0XiZhKaET+nLcdcW6k2+64vrxCjCONEAiZWQKkyeR5MXpmxQwpDIPNxzyOI9Ylmrbk9TcvOVm2mBKGfoPddLjgMEbhXCBZcDuPokJLyThcMdoOpRJjf0KhsyVcVhpBAynR7Xb4oacsDUVRZDdGRcraIAtJM6toZwtmswUnZ6e0bZmxR7XEKE237dht9sQQMEkhYqKUikJpujSw9Y5RSS6+/Ybzb75BLU5Al4CcUkoZcT8HQ+NUOPrxtXhoQsxWwafJybytO0s1xkiIHu89yU8u/5FClVLmuMVUCRCTzIo1ZGwAhMBUJXXTYL3HdTvW3Z7COWZSUS+XnL18wTAMvLcjY7IZHCUYlMh1BqO1OB/RxlBgQLhbtxESulQUbUFRSLwTrK/2bLuEGgVCBny06EpSFw1VVXN2dsb8/AQ1b/BlAeJQZpfrcNVEP51SgOAnXIREIQNBCnq/xwfJoGpMOUObGqENTFixImnuK9WHlMVDCvXjSe/3Lb/Ucn7IcLv/3y8JXxwfy2Me+rHo44M4Xuj+A3N/xS+NdTzVLfOYxXr/YP/aGyGldAsOIW63l0uqtusN79+/Z31zQ5UsZSmnyW4692kbVzc7Nus9+13gzU+XbLd7RutBzDJnuh/RTrAfetabS/rBopSiKmeUoqVdNNRFzWw5o24019fvcXFgsWhp2oKiVCyWdU6CKE0cHcNuQHrFollSnEcWZ5HFych60zP0gav1e7b7DaPrWK7mLGYthdGcrpaUqiBZsHsPPpJGT20aTFGhmoReOZbNjK//63/h7J//mEn6pCIGQVIgxFQbKbNCSELcghkfX5uHrtVjltHdw53f72pw8zsTi2rGAjji9pyomQ/XUQLaFDRti4qJUBaIvmHcrLE312y7geAssa6YvbigC57BXyKTo1YGJ6GzA+MYkCpPQjJFjNRoIWnLgtXJjOXpAj0rMcuSsphzct0zdD3WDSQ83lt++ukH5KVgcXHC+fNTdCRzgyVJ8okDMZQSEiFU9khiLquKwSHTiFaRUgu0sPg44scd3naE4FDao2RB4KEwy8fjf8yh9B9JiR7kqcnhS8/jMGH/1kmx4/0d3r/YUn1M4d3/76lY60Eeitf+nCD5U/Ilgy7E4TGdrGTvWa/XfHj/DrfbAR4rCqrSkFLCe4vzIykldvuBy6sd4xAR0jCbn6C7HmLCjj1uTNR1iZYKnRSMMFiHqCLtaY1Rhvms4ex0RT9sSLGjGxOzmWE+bzk8D945/OAZd571dcdWBVKoaM8l9dKwKmYkKXB+x9ANDNaiS40PA/vdGiUkBolM2SothMKHQAqCpimp65ZKGGamYnl2xvkfv4Pz0wyUMvG+C5EZSgNkYA89tfbGx5OD962hTzyWWwylHLd80Ko4irVCVkCHKoGML3IAtpjAmrWhrKuMolQYCmMYlKLnA/u+wxYF5uSUBRIfNf3bNWPIuKtjSghlMROEa3SOqixpas1qNefs/JTZ+YpYC8SsYNbMaNoFVx8uqX1JWSiGfsv792+4ubzBxZGbD6+YLWYoo0iFQUaBKQxySpZFIRC5oyTHuqMjEdAil24VKhLDSLQd47BF1132HpQ+Gt/0iQI9vh6PhQO+9Bn5vch9hfqlKvK+rjps57Euv7/2uA77PJYvLqn6nGI93slTF/QxS+ahuOqvGU/NG8zxuZjibWnNoQEgjiOEkUZHZm0mlBuGAT0olDQIDFXZooSE6DEKlDCMY8dms6NuJEa2SK2wZYM10O869tYxq0FXgeAGYrCoiThQioAxksWywXtP8Am7t+w2A93NwOX7HhFGBCWyLahWkqppmSdJSJogNONgM420d6yHHrvvEQlm5Qzhcya0MIZSVixnS5LKcT69bHn1v/4zxelyAi+6g4FTQkPKpWhRJAQKREAdXe9sDRzYJu+uV349MLneu3WOQ0lJSmLyZHbqNHkKmVv0/jpKKWIKU4NDmgijFNErglLouqE5PQUpsXVFGB2mbanNjK1+x49vDhgJB3dQImKAmCiNoW0bytKQFEgjUY2hV4E+jlTlArRCKcN80TCbF8Q0Et8P4D37D9fcNC3WWqhL2pWnmM2QWhOUxBFBBLRICHGL54/AI5AoGYnR4dKI6DtUuSfJElUZpNETDdDTGfv/yPHUxwyxp/7/8m3+emPwWM7ozlKdrIEcO8uvQzfL3fenXw+dxGHHx2U4hwv8ySz0G5vqhwc9TS5UFAk9HYcSAmIihTgVygtirIkxA1iPo6YwkrqdoWTDbuu4unzL0HvUxJM+7Hu6raafl2it8KPH9YHuZsDbQKU2FM9njDZihwI7dthhR7/fMPR7gluglcEUBqsCYdyz3ViuLzu0MJycRyKSJBOyFMxUiypnmLphv9lnfvYEYwp4bxn3A1aOmFSghWHWLFnojFx16Rw3Q8+4WHL27WuKkyUYDUpBkpgJ3i0JCCkn3G4VQAo5vnlUWvfYdT2+B4QQpCgmJfxp4jNJiYgi16bCBCYijtg8c5IspgOvvcgHKDWYgKDIbrZzOKnQdcuyrAjLgeg80VvE2cB70fL9hys2Nz3daLE+oEkUSmSoPrKOHseeuI3M0oLl4oQkR8bBYsctne0QBJay5dnZBSerOc8vTtjst/T7js3VNd3QY+oaGQQmqZwU056gS4ROoAJaglCKFCawH0Ju100O73riuEcMWzA1lS6R2oCIkzEvbl85Vn2fHRhuAdnlx/kNcbTsQ+rmKdVz8DN+qdzVf3yZ/FyF+pBuubMmf8aOv3D7j4k+tiQP3QhwryaVT2MU9129Q23XsUl8/LDdT0w9FVa4L3+t0k0ASeYXESk10TmUMSxOTyjqin4nkUnivaXb7VGyQhtNGB02JmazGWWhqOoKHxbYMZCC5Po6M4Hudnt+/MFRlJnEzTmXk081JAYQJSkk/vVPf2K0lrZc8Oz8JcJp9teBdlZjTEEMmYVUFIl6ITFG05xVmNkCPV8hy5o4emQKNLMqc90DsffMSk0RwMoR13ni6CmLkiIlCq1Ydzv+7foatzzh2devOXn2ElE2eGUQMVNok0QGjo4SPbWRJqWJIcCBWO8eNu6nAz4luVJGpoqESakeufy3GPZZBLlGd1qAGARRHmoDIQNX5/tGEnPSSkkQFUlk5LDgI9ZGfAjUStEsC4wgt7ae9IRUc7a55p3rGIY9LkWCFHgRMUbQpR5poSo0RTkDJVFIFqplUJkl4exkxtjt2e6usXbD2cUp59+95lwLtn1Hs8zeio+R/bBmeLujrWaYkwUpGUIM+Tx1RJGbR/KnBDJl6nMcIvYEuyaMBdEIMArS1IosBFJopPpYmR7z1AtxHCKY+rGSJB0mpqPJ8H4y67CN+xK5g+F8bL2H1n/Im/258iXr3693P7bSD2WU94/vMUPgMHaHMX3MoHxoO/qhDR9v5HNyP352P85wX8k+ZeU+dix/reR4nZiQkPID72NEakXVNqjCYIqCppzTqFzwS4jgAn4YIVp8kyiLmrqZI9WS6A1ujEiVOe2VTvT9kCH56oLZvKFtW5QyFNqgVcLZgfdv36FNyenqjK+evWa73TLuIAwD0lhubnZsdzuicNSnJW3b0l40UNfIYo4sK0LYZQtMO6SJqCgxlUYHA03AesVgB8aYqIRChcQwDLy7uuHN9Q2nZ8+5ePWaZnFKKkpsAjlZSgIy5qwUt3UAKQZS8J8kAO5uqDtyDyEOE6u4tQ5SEh9ZtjH5R2LxByUx3chxYgSQMivSOK03hRdQE4oYEKLAm5pYJaL1eF1AVWaalnEgVqAuzli+fk359gfEzTXSDiijiXEkiEAfM4HirJkxWy2pqxYZ8jk10iBaKIqCzRY+XF5ydX1DMPB88YqLVy9Y1AahBdYO+KEnjY40jki3QwUDoQcSIQnEhGkQfCIGRYh+apEFbQAs0e+JY4GoSnSaEZKaqKbFdH1EnsBuR5+Put7uYrCHBNfDNa5PhQseU5pPxW//mmf4r33+H83ZHEJST7VKT/KQcXi8vfsK9Xh7Qoi77P8vPYHHFOOtgv3bJOF+tgiRO3BMUVBWNWaxYFkIlkZQSEeKIy4GhE8oQwbXMAklZAa8kBJZmkwXXRaYAtabS/b7LdaPlKVhvlxQVy1FUTHs1lxdrXPNIQFrPdtdR4hwvdlirUVqwXa75ma7QWtJXZeYspjaW0esGyhKjVIKXWpC1PjRk7zHCI1QGiE1UhcIE5FlRBYlSUps8IQEdTvj5PyCk5MzRJHhC0OIE2BHdtHFMSLSkZfBE+Geg6dy+O3YO3kqhv7R9bjt2/54mRACiEnhS4EUn/Z4GwHaaEyZeQNKItoO4B2h6/F9j4iOeVOwbFtuSsO+k7lbLkD0EakDWmtmsxmLxYqqaiAKht5iQ4+ZeKqapqEdO7p+h/eWGCNFYahmLSE6/DjkGK02SAQ6CbwdwJQfjY0PGeUql3DlMdBaZ6LHAMlnLN+YMrgPMU14stkSvRujdDyQ03jfjaEQeWLjMGnyqfJ7SBn9R4nFPiRfYnn/NfLU+PxVeKoPWZyfJCj+RvLkxCAeeIiVpDAVzWzOfLVEGlgawVwncD1ugJgGpFYURUGlK4wwRBfptjvsmF0wgkeXDXVr8LS4NDCOPZt+hygUujKUqgBtGJ2nbmc4G7hZb9l0I23bcnl1zTAMqELn4nchKOuK2WJGWVR0Q4+0EmsHnDM5j37UShdCIHifoxsyu4qqLNAeZGmIQeBCRBcVLy5WfP36W1YnZ4DAxzTFT/kIeT8BacIsEAeX/wk37lip3m7jgXvjoVlfcLC+5G144ZP1J2oeKWQOfEoJKSGiRaSMCWAIGCUzRsMwMHYddr/H9z3RB4zULGcNF6dLPjQVdpMbHFKCECMxgEwSLQ1GakQUdN3AZrtlb3eUbYGpDPO25lScMrghwwASic4z9j26UEiRMhD1MKBsoEAiaBBNiWCq8065xfhwfrnkKk6nJnJrcQoksmIdx5FUlAh0ZuWdxjKmvI4Qapr47lViTPHpAxPKQ9fvKff/2J2+fZh+x3L/uH/uuvet18951vf3C/eI/x7byVMK8iGL4/c2w6U01QPBUe+vQhpNWdc08wVVXdAmh3IdznXElJDKUJYldVVTVSVaGryD/b5nuxkQqEzzUUkQJcYozs9PGd0EeC0j22HDZr9hVixIwnB2cUrf91xd33D94ztOTk5Yb7cMw0DV1JycLHnx7DlnZyfMFi0xeXbjDoAYHN6NqDxLZFCY0RLHQAwSpSMuZOUAMvfIq8xv6nqLD9C0C5arM3TVEj0kBcqYqYX3qPd6UqZBTBR76ajk6bDMA6Gfh27C+7H1w2/3Y1J3/8upJvMuThanGGFKoD5qPhGoFInO4vueIjjibs9wdUV3+Z5xuwM7oIoavTplVZc8P1nytm3opEDGMCk6RYoONzrGbmTsLaoY2Nue9fWGLuxYNUuSiKhCMStmLIfF/8/emzY3kiXnms/ZYgNAMpm1detKujM212z+/z+ZbzMmu1p6qSUzuWCJ5aw+H06ASTKZS1W1Wiqp3YwGEABBICKOH/fXX38drCYHz/5wR5s7tpdbrDYYKcyniXCacKJoyfSvL6CALfX8nY+nVZq0bvwahSr1VtualeTgOcmR7nKDURkRXescRVCqtrI+bGgPp0ie3NZ/9aEu7qcirk9hpr8Fe/q9vvw7fAoOfXzdisgTqOB8a1/6g8cveMmxvrRonr/2r+lYP3fSNTyki4VCKrXVMKMQa7Btx9A61HwkzAXva4dPZxTKVAqNURan3YplGUrKxBTxKdIcLFladpcdw9Cxawecc2Qy93cH3r3d42dYYkHZtvbov73n5v5Enfrha7SJ4qtvvubb737Hd999i+sd8zwS7gI5Vsk5XQrWuNpWmQtK6ndrTENjG9KcSKWS6Y22dN2AKoroNXfHEyYKJWs4y8tZty6494D80/vVyZ1hAXh6nh93130OM//UhQk8aDM8zAR95ORF6qdSaLKsoixFHkgqEj1pOiLzQrh7x+GHH5jf/IiMM50S2FyQmpZdP3Cx6dgNPZ016FJQRoNyxFhIPjCPC9NprvS46CmpYJ2lHVp0a+pGpDTDtkcZTZTCdDriOkcJESVSW6CdYwmRcVrwFgb5rg4QTAKSagEt5UqVkvp9ShFkLagaqzFKEZPHBzDDNShXj/s6v6uoUq+Fs61jVUWf1+T5uL+//ySS/Uhk91/Bof6S9P9LX/cS9ny2T6b/nzqonwqJn0YuX/QZ/92tNuU8SisBpQ2u6XD9AHEBY8lAKrXbJyRNSnXkSfIa3VhE7KrfpB+k/OZlod84UArTWZresd0N2KbBdi0Jzds/jYzjzJ9/+JGh3zLNAWUMs/c12nWOGDM5Cc61KGspGXIWJAt5ikQ3Y5JA0+KaFh0yJlWtDWs0rmhMVqggWNG01rFpOpSyUDreHgNQO3uwFkxN2XPMaFU+GLx3dnIPldMn0N3HGR8fFrSeppGPn9NaPwinqEePQc0qzhBHlS+omK8VXWlXAkile+ks5HlmuXnH+OOfGH/4Hrm7pSmZ1joKmrC/waeI9gu9gc5a6gjTUskhxqBUxZjjEpnHhawKneuQTYtrLdquWK4uDMNA07Uc54mSqv7qNE1Ya+maFvqByVrCynjRem2oyGvL9CpnWFImZUXOBYp9UFmiSO28KkLOkKNHrRtq1UhYma6i1wqVfl884v25VKpGv7U77mU89XNO6LeCsT6+Fn9ppPop+1iN4LH9aj3VTznWipb/5/CqQn5It5RSaNdgtWLY7Oi3O/J9xLgW1/akpiWniZyrPGCMjqA0kn3FtybPMgdSKavTLYQUcV3L5atLmr4WNFzb1PRQLIeb73n35sRP//IHXr16zTgv9JtLUko4XQVexvHIuHimJTCOM0pV566VpWs6Nsbg0NgMhEIcPdP9geQLnpnYRcIYkVidaqMcFoNkhdYWROFsg7UWlCaGhG7WaJP3HNJz635eucvn6PF5mvM4Wn0uJv0x7O7FbOgcAT+88sxffXwBn52yopRzIltW1qVC5YQfR47v3nD40x8Jb35kWBYaq+laxwLMdxrlF5bjHhVjpVshZCkYVB3j7RqcdpWeNSewiqZv0X3NWmzbYJsGZ6rgTt/3zMFzmCbcNNFLS7OxtG2L6lPFXPueze6C1jUECjmfNQ6qPGMqKyae3h/XkgtEj1YOUQ4lhpzqpAOxDtFn1uh6zgCoGglKqYdpAUqtm+PH1sVvxFl+iX0usv5c4fylTPtLMdXH9gRT/SXh8vlvzxqYT96vrATkz6SBf80UQ2v9vpvGOtx2y3f/43/w0zwhORAFfC74mNES0RNQEsE4+n6DVh2iDUsI3Nzt8XFhDjNeduyut/zPzT/Sb1owQtN1xKxoWwHtmGfPPEeGIdK4gd1uh9aaxU/EGNlsdmyGLW/evGMcBaK2tgAAIABJREFUR4okqtbdzOWgaHNDu9Eoo5mXwP27O27e3uCnSG97fOfp7YDOYDDsb2+Z3u7RtkW1O4auo3GuRko+YPuBUhJaqZWY/fHzUKOfp5zkh4jyUYR6tpcinccR7PMU9Kmj/VDQXMk6UnR9r0y9eAsV+1VKsd/v+ef/7/8lv/mRdjqxcYbOdjBNxCCMPjPe3XA6jITpRKMrlol6z882q0O3xtSIcK2ya63p+56+73HaYmolibu7O25vbwklkiiIvubiVeUT+/sjoQibyytef/sN1lp8XMgprYIqNf0/V/nBVThHqgCjlEyRhNUNtI5z225KAbRaub21uFmPm66dghrgPWOj/vbz7WMb40vn9/F5/2vAf59jk3zp33+MAXG+ph9f6y9Bos/rBkDVU33uTH9uYer5gnnqLD/95f8STvWzJ1DVkSAJQeuqo1kQtNHYtuX6m285vXnDHBdCKcwxkVJG5YhIJkZF7nqc67FO4WxLyTBNC1kSMi/Ibear42uUthjnKoWpKKY5cDiN7PdHjqcFpS3WtFVEWhvatmWaJlIsGOvYbreUmJhPI/f7W2L0NA7KVmP9gMsW52A5LSx3I2G/4MeAbjR6GtlcthhxlBi5/dNPxBAwtqF59TWyuaDNeSXyFzSKECJZK4ypLAAkc8ZU62F9CuP8Eof6sMA/9vz5gnzh2jibVgqFfuiyqnLPUh9DwGjCvPDmp5+w9/e8ygGzHbA5wrxgukqFm33Aj0dIkUYrRBQoTREh5lQzj1CdnMGhdSXbG2OqQ3UOSQUfPClEfnrzE/fHA+1mQMWazhtb2R6iDKbt6DZbus2WOa7yhjGskWmssEEpqKLXrrGEiKtKX1rQUhXMnFM1a6B2tUlOKKXhLOZVVuqUquf1XFxUsqqDvbBEPoULfuq5l+yl5/+9HOtLDvHn/u2T+8/e5znO/Fyc+rk9919flP7/R0SUf0l7uOhEalFijZ6LCNo1NMOG4eKScLwjY1DaoIxFyzkWqgc6lQIp4WMg5IKgUbrB6Jqi5WzxQaFOmfvjkVTu+fHHN7z7ac8PP77ldBrp+36N6hXjOOO953QameepanWmxPX1K7SG+/0t3ns6NxBjIswJP0ZU10DSWNXRmAFcgymGvGRkqMm0n2biXPmSMS6c/A+oy5n2628wkiobIgWyAtYheA9CJyvNSuoXB3igAZ3teZHys+dAvY8+eXwfHsKoT6VvtVVW149p6hwpkSpeXURRsqoztTCkXEgZQswEIxhROGMZ2gYlkFyD16Y66lLHXosCu1bbiwg+BMqisI3BND3O9HRNA7k80KVSrE6xHiBF03XopiWhaLTG7bbscsYZR6DgfSDlQPCe5AMp+JXlYOq1pASUfWAGiGTEZhSl0rQosNKsRCzo59Qz+cBBPBzPz2Ck/5VggP9o+4vMqPrPfjIqFCEPRY1zZII26Kal216we/Wa6fYdGAu6wboWrcGqhNZCPDvTCCEEFIbG9RUPKwpreqYx8v2f3xJL4ubmhiV4fvrxDfe3R/ZvR6ZjpWEtS8CYKozsPYR5YR5HjFGM48hX19dYA85olNTFThZigHmqOpyahr7dUgaFzx6VwY8RCYUiCX+aMVm43F2AVvxwOBKmI8tpT5hGCB5yQhuDVjWFllKoTbLyBKlD19ZVrfQHu/iXbbbPUsaPRAbviysfOuualoMoU/v0taaIQrQhK0NRCtMO9LsLyjyjl5GUwS+R1iha21KsAWMIumLTKpV1uKCgtKVxFrfq157ZIrFEXLEVky/CdBqJ3mO1Yei3xIvCkjIlg2k7TNOSlSYUQXcdw5XGCJWapuqE28N+T5gXZM0WlFKg6/UkRoHKGG3WeVYRkVQziFw3Q2VqoUxEqhjMylFVq7qXiKAxK1yzos9FwHw8pVfPN7q/2S+2n6VS9dj+I6hTv9bOVVGl1INgiDOGru+5+uo18+0V+82OcLhBSoNS9WLOJRNVhuCrA3KO119/zbB7xWmamP1E8IUff7hD6X9miZ7j8Ygoxf3dgenkIb6vZIcQ6LquHtNcI+G6kGGZZvb7PdadU14hek/bWOYglNGTaRm6DuMsxgpihMY15DBSgHmeORwOjNPIZrPBGUdjND4sHG/fcfvmRy7ub2m3G6xpiSVXjU+1wiLqXAKRj6aNj+9/Dmc724ND5mmK9T5ifTkjeiiInUV/tEYZgxJF1haMxXYbrr75jt/9w//JhEa9e8M0HnAx1oJhEYhVu1VSpqQEuVCyUKSmzSUntBjWWBCoUaZzlcbkp5kQAiUmNpsN27aKUzvXsJBpug7X94izJK0ozqKsQVKhSMRQo9C4eE6HIznW1lRrLdo06I2r4jDrqjTnzrZ1xIyYgl5Hp1c7U9/KCtvotevqEUZ9Pl/PWAFP1sRvaA3/FuxnRaq/aQjgUVuf0hWbE6UoWqPblqvr14Rvv2N8+wN5uieaTKc6jARKXigSQCxFDE3b0m+3XGSNu9uT3r5lP96xP4wUqe+dc6ZxHeQBi6YdFKqtnEJrGhrX4YwiqUTbNHRtgzH1wp+nCWth0/X4tquygG3HkhVpKWAS2oBVlqIceRXlwLZkMcw+cDhNnPZVX9VqjTQGUmS8u+Ht93/k4s0PXL++QjcayeeiUI1Ri1IVJnmwFVPiaZT63D5+bTx7XH3EMb/gTM8Ro1YPneug1plDKJRxKNchNtBvX3H97e8p93tO724IcyTHiCuKMnlySsyTZz6NhKX+/vgzlJzriJZpJKhALy2m0yinMQjL5Ik+QCksZWafFUUrum6gcYZhs6MZduhuIK9OzKg6J0wSSJjpujp+fB4nTocjknMtgG1c1YmNsQ77sxqMQZdaiCopUmx8GJJoJaOKQUxGxEBZleXOGOsjetyn6FMfpyD9zX6p/SxM9bn9VqJVg1q7VuKjHdxUx7p+t65puH79Gv+735NPd5Rec71pGRpFTBPH0x1+yZyOER/O44INMSaO04QUQwxCimu6rpsadUgGibUzax3P0ja1iqypcoNmrda6RtG6hr5vaazm8nJLiDPzPFNEkbUGbQhFcQoBQ8KHSBI4eb+WbiCkGnEuKbI/7nHG0vZNjWJPe77/w7+i/+kbwsWOV8Yiw4C1GtFqhQKo5PEP6klPcdTHBYMv2Wzfv+bZ9fTIqT5nCJz/h1ZgRVVnpRScqUPrMSkoxFhMO7DEwt04w3EiS2GjHXKaKEYY58jxeGJZFmSdtabPm4irKfccZpIKiM20uY7TiVETpwwloQTmPJNSYrjYcX19jdlt6S+ucF2Hbhxo8/CdC3HtcoO+77GvNTkmwuIZj8fKg141AFIuJIlgM7bXNKZ9CAhqQSutmOoatT8c1+fn5sNjf45U/4an/vvaXwRT/S2Y1hriKj1oTU2R0KSSUTkjWtV5T69ecbq4QGzm69eXXGwcKYwc5w2n44SoPekukNee+7L2jJ91LTVN5RZmIRVFigqkIYTErm/YbDZ0XUfbtlVpqhSaxhJ8JY23XcPV1RXOCMPQ1x7wUphjxNiupr1Z8OOMJEFCQVLBpELnXMXzJCOmOsmQE9ZqYljIShgPibf/+s/cNy3TsOX/aFp2336L2lYBbkF9uCI5Y3VPJf8e054+51SfOuRnDoCnlCs5s1DVe8fqlMausXLWurJqRdYkvRYcu+2WZtjiRXGcPfiIVYqjDyQlaKuYxoVpmggh129lTI14z6Gw1oimiu04h2lcHWOdEv7gKTnS2hV3bdt6zXz9DWa3RYaGaDVZ6SrLZxQpJaKqn7OzlkaD6RTX19eVkuUcp9OJ+TTStVt8yLXzzmVaY3FdX69dq0jlMW3xUdfbuQFNPb7NnOeCqVILfCL6iYrV43P438WefP9nEL+oz/+cgbH3P88fe6Sn+vBP5QVBi2dn4vFz59c/76J5iULz0gk8L8jnf/tz6ByfNVVIZJSBomu1GGVX0R/BaI2OC5tGuGekpHu61tP0M7YruK1B5x1sIZiA2RTCHJlPI8M08fV1IXnFt1fXvL7+inn2+FCndPo8M2w7lBZyTkxTVTaCC3bDhrZt8WtXFQJad/gl4ZXw7vYnjifPNCa6rqU3PS0taalRjohgikKXigvapJmJxAw+K3wxbLdX+BTI0eNah83CZvKUf/sTx+b/4d2SUf/3/0L//e/Z/v47ooLk1nRfwGRwAjzSP31yOZyLznLGIeG84J+afhBI/tABP+7ll/p++nkbLNXVnoWsV/nAIglURFtBbxvaq4GLb6+5u75mPpyIMbE/ecYloxrD4hPeCymVh5nwylbaVC4FZasWQtNbmk2L6xxYQyZD9vRtQ9MYmqHj6ptXXPzuFe76gtJ1lLYhq0JB1XZiKZgQKGFE4oK2VXIyZkFbw/ZiR0GIUjgeRw6nO+ZYSFnhKLjQEpf5AXNF7SEJkoSsNIqmajvoWrwLEiv9S53Pn+ahA1C9p8C9tB4fb3qPN8pPFbAeP//SBvvv4bC/FL//Je/5+PeXfNt5w3/p+51fq7XGPnBn1tsqzq4ebj/Y2l745y851cd2PtBnkrk+02pUVerR6+3DB613PqgK/1Kriy9XxXitqCQVUwsfaJw2mJJQZSKMN6TlHXoLWQpzqVVeqLPfBzR2YwmngNEnwjyjotDpHUNzxdBfcFvuSAamZWZRC19d7ki65TgvnKYTcixM0wTffEPXDczzjEiNRMBwezeSUuDdzZvakSOWEi1lgVykIgqhNlwUAbUyG1KJ0ENWlpAh0+KGK9I4cVoWrncdf9fvGNotS4Hyr39iFMNGVSHo4atXxK4lO4UqClMUJguuCMXUyaCVT1rPaeZR5CSCVk+d6XPXqlbtTxHNhyYPzhPs++LU6lRFCUkyUqgsBanjXKQEkERUnoLHbhouv/uay2+/Yf7xLTHOjEtGTKFERcpCKTXmzSJIDjV6tCA5kqLQdODaDe2mw3QNxVqsgct2oGk1bdcxvL6k/2qDt4IvnsZtoBtqwU8EEU+OEfyIWg6UmAilVuZjDHhfmwWM0/SbjpgTOVUOqrGOxhmMFiQtpMVilUI3Td1Ao0V0R16Vu5SYOhmCWAWwTap4e1FoqYoJrALVWqm6ts7n5Pxzfvyl55X6YA3+HIf714iEn28OH36gVev38Td5/tJHIWm9zlbXWB5BoF+AVf+3Sf8/Zoq6QA2CHyfCMq2LWa2yeueDazC6pW06TFHYoigXhbyALS3b5op5jIzTHRkPjaByxHSCaaFgaXLVRp39xN3dLSKFi4uLhx5wpYQQKlYXYyT4VPVYW8dy8sQ50zQNQ1+bB6IPJB/qhZ8KJQmD7eoGVxS2ccSSsY1DTwqVC19dvmJwPQXDYQmYEEg375h/2OD/7lvsN69xbVPxRqnC0UUMUgRZnea6TD/c7c7OUr0Uqa4vkZd3eniK0T7H6s+Y6+O/fZLdrJMFbOPoNwOubSuFKUfMymKo2qS1JVVpjbK2Oug1Qq6LokYbXdvSNW3VN7WWzdCxaxSn+UDKCm1aljlxe/cD9mrm22FHS8V4RQQSkArZB9K0ENNSoQQlSEyUtJB9qJKExrIdNqAMS4wIFte2NK1FWxAWYhJs5xAlKKkFq3omyqoD8F5jFVnRdalBwwM+8Ow8fApX/a3jrs8hqb/mZ/9ip/r8Q/1WWQCPrbYEsvafFI6He8bjCaMEq+uhqZSXBp8K1nToTijaUUxLqztaPTB2E0TLNC2My5GM0HWVF7kRS1EBKQZrHV2niD7gvScmT9NqNt2G4/HIPM8cxwM5riwB22Btg6AIIZFjohRorMNZCxlSyBhhpQxJHQkTMj5F2m4gCQiFxrXEORLHGekMu82OZnD4lDn9+XvQQv/NK173VWCmaIusHUVSNFkSVadqZQk8wELn9O9RUiMfZhhKvReVfgkmeuxIX3SoVZKpOoxSeK9iX7u9amqmUcbR9RvaYQDriKnwID0iTyNtpdSj2VSath3IVtjudvR9D0BJmdY17LY7GpXRPjAtgfTujuwMI4XBdUQfGM7dZ0h1dzmTQiQsnpRmkLBGqlViMKWEytBoU9WvlEZrQxaFdQbb1DFcIpEogEpQAkUnigS0lCoSREZKZaauUxwfzg2wZoOmbkrPOcM8dZgvpddPos5fnTf++9pnI9a/gv2qSPVjrID/jCYoinq/Y+vVkSoKmkLwM3fv3nLY3yM5k4omZqFRFjEaJQanIVPIAo0yOG3QGKxquHmzJ6nIGEYwms61vLq8oNnA/WFZiwQG7aDpWmJZaHvL7qrn+uoV3dZxf3+PQde58qUhlcy8VG3PsEQaU0npMWZSyEgSLIaSMwZN29a0eQmegnD11WsAlnmkyx1lGrm/vUMPEZk82+2WGGfiUVjSzM1lz8XVFU3fobod4hyJKm0HVd90daPAo2hAPc+kns5GAt473k9ARB+k/M+jWp5if0+c9FqYQytM29BuB9zQcVLCUhIuP8CKiOR1iKBgjEUbwThDt+mwnePieke/3RD1KqG4arn6FDFthz8u7N+9wwwd/asrhrZDU0dmaQWlZJRkJAdIEVUipEAsmRgCyxxqoIlC4R42BrSuspK1BbAS/XVcI04oyVOUQZhRegYz1XZnoxElgF2PhwZVdXSz1PEe73HPZ+viIxjrS8//1uw/6nN/kVP9WATxW7Fau65WqXx1h9dSMCKonFhOJw77O5bxRGsypSiyWBJCKoJzPbnUnuuiwsOUylIKS5irqEoJjOGEcRbRGzavBja6Y0zfM91EUixoU9BOs7nY8Or6glfXOy6vNnz93StOhytyhh/++BP3dyOn44hfSu0Kso5hHaUSQkBCodEGg0UVwWlD323Iqc49cm3PV7/7Fuccp8OedH/HKSTCNBMKqDLyum3JuTBIYrkJHP75f7P8/T8wXF1hrnuyLmQFRTQo6rGicn4fikrqvarVhw7zaUXrJX/63Jk+vPq503z22IfvY6okaSkoa2j6jmboSRoWyZQCTtQa3YE1iqZxtI3BWIVygjH1vnN1ZIpYCCUQfeBwOKCdxrYN/WaLyo5207G9umJ3ccG27bHrd0wlV15pjEhcap9+DoSlyj8ui0fhsKZd6wkaEYVpBK0NzlSZPiShlaWoCFLIaUG0QWQC1SCqW7UmGrTpqE0AVY1MRCGYqgMg6sGZPo46z8f/+eP/FXisv4n0/2P2W4lW39fbzqlpwUjCSEKVxOn+huV0QJFwTR2h0rYO23S1qGb0mlVVKlaRQoqR/eHAT+9uONyP7A8TpzGwu+rBDBizpektWt8zzUf8XIUxtruW3cWO3/3dV3z93Vdsh47dbsd8tSEHxXjy3O0n5hAp1DlSxjZobUkrlKaomKdBoZVBo3HGcTqeKEXouo7Npmd7ecHFxcDSteTjETP7VYUJLjYNjow/LZjJM/34PeO7H7kc/57m1df1wjSKiHoEk1CxVtbBc+fjK+X9sX3hciiPqqYP3NM1In1Jk/VDmEChC6jyPixWoqCsoigiVX8W0MbR9AOmaYnre6ocUVQKlTO1p78bWjZDj7FClESSUDfTnNAamr7FJM3i64Z5+fqSrmu52rXoVRLQDh1939A1CpX9mvLP+NM9y/GWOB4o/kgJM/M0sYwzwRessSijEC3VqSqNZIXtHaYxFC11WKzUw6qKICmiTEKpSE4zRU6gHcb1tE1DlHVUY1ErbnAWjOGBk63Uhw7yJYf6W8VT/zNsAj8LU/2tHNiXbR1RvaawWkpVAJIMyXP39iemwx5KpnUtbdvS9A1t3yG2xrZVB1itP5oshdM88e7mhpt3J/a3M9MY+Pp3l7TdJbE4JBqWBWIU5smTW7i8Gnh1fcm3333Fq+sdVkEpgZQCiy917nwGZ1uGfoMkRd87khQkRDrjaBuHzlJ/TBV6VkWx3x9BC041nOaJ/mJLv91gfGDY7nj9+ivssmC8Jy1jnZQ6HtAK5neB8e1b/OFAGzylSwRlCFrTPMLjgBcX31N7nkaWJ69/HJ0+T/fPjJIn7/bMUT93vpLfy08aZ9HWIlaTKo2FvPpiYxTGOdq2oe97uqGS6yULJWlss9KrYiQHTaFSt2qbqGazG+gHB2RsazFDi7VCCRMQCSkyTxPz4ZZpf0M63UGcKCGwv98TfEGKphhH1qnSnVYeapbAxrbVWZuC0rlqylKDAMio9SdFT84nlG3IMoAaqtJVUSuV4Yyv1g4/9ahy/fw4fmpd/xYd6i99/i9lD071Ob/spYLCSz9fYp973a99Hj4HUGu0rsPtyjrf3lqLLhkdI3c//cSb7//MvL9l44Sub2gah3UtyjUo4yglr8wUAQMaA8biQ2Z/nLm9OXE8RMICt28XjJk5nRSFzM3bheDP6u8WrTUpJY7HI9aBVVWk5ebmjvEUOR49fd/z+nUL4sgPVd16gTvX4oxFBUEkVTAjZeYQmaap0nS2A3HxpOBJZGJONNuBtuswVpMl89PdDXPwnMLCySj2E+xv3jHu9/TLRBk2FXFWgCrVAZ+LPOhaQZcqTlN5ts+KTbleU1mdMcwPHenz6+75OXzAAs9FxbVmZVAPdLLagJFX/d7qXI2rFXTbNrgsGCmYlYSfJZG1RWxtM1W6gDK0XUfTN4gq3B/v6ejZXmy4GnYsKrKkEZ8HmtICtbupxaIkksOEiGOaJsZxJI4nYqhsEn+6x4+B435e03OHImJ0LS0VyYQiFRNWjqbtaGyDKpkYF/JKd1Sr4I1SoVJ9xIEEVI6UlFCrmEot2p3hmXVzUiv2LU+dy+Ng6fmG9/z+43PzKajg19gvTdmfFzzPj730eT9nz6Gon2v2JWD6+Rd7/CGfk2E/9qE+5uQ+dpL+EvZSVXn9jSx1LpXSFkrBaYMSj2TPn//wL9y//RHGkatXDX3T0jQNau28Qiv02guvsyJHQQqrRFziNC61/z4JMRT+8Mcb7g5CP2yAGqUi+gGvK6Vwf39PLhM+XLLtO0IIvHt3y+FuonUXbLdXdK1lGiNZZWKYaI2uNB9j0VgwmZwNJcY628h7vPeoBFf5khQ9umRSEJIUTNtxN030KWE1LH7mcNwTcuKkNYszpNkj3kOKkCNibOVArqId5whSawPGkaXKGOacQRTWVCWox+chl1ypQM+c6vn5UsqLi/vJ5i3wAC+o9zXoGqWuWPfqXEuMlRbVdfTDgBFFI4UWIUVPklKnNkhBdKVhOeuwrUVZwccFv3h0azDmgu12g5aF23Dg/nBDTA1dYxhUR04Ga4RMpuRAmCbiPCElokvVEjgcDsx7T5jNiqOa2rYqmZw8p9FznCe2FzuMbemGLaZxSIFQhEyiaIOxBUqq741G64RVEU2iZF9T/tKs3YLvHUghr/xUPuoEnx/7T90/H/ef46h+jf3s91+vj5d82Zf8r8/pp37OPpim+iUh9M9xik+quD8zIv05J+zjDrX+nlImlYzrW5QIGqG1mjIL490dfjyh/UhJCihop9ZuFUvRCuvcuoAtMay92zmRqKrrfd8TRkUKglaWZQwsU2YYBi4ut3StZgl73Dq+xCpN53q23QXb7UAKmTArZNmTkyaHjNXVwWdVMDlitFSOpVqHnyhNIiFWgTakkmtXTSjM04HuXgiXO7abAVGGCWHxCyFETAqElDmkxOQXRmOg2dVWWWtwZCQFjAajagXclvdUqrUBsp5TqR1E1fnWxgGlVkBQFbTSD071+Xl5uej0/nVnQRUlBYUgK52rNgBkkLXSXlbR51gnzqboQRWc1TRdg80JcgQxQK7HzNWZYu3QYVx1PkuciZKq0IwqzPMEulA6ME5XiGaKqNwwNK7S2XIhRY/PkH1CAvglc7xbONzOTIeInxV+FBpHhW50QwiF/eHI/f2BxUdc27FMM8u44DqN2FwHVaJQBoyzdRy3FEQlcgnk5Mk5YKUOEKyYaT3+cmZt6DNfFd6XbP9mv8aeX8uPf38RU33spT8XlX7s7z5lL1V1Hz/3/IP+0vT/8UZR+X/v+YrZLzinEFWYDneEecQlD6WrC1VVtXdlTY3WtK4KQSuuKgqUqdHQ5eUlM4JcNDRWI8WRoiIVGLod11fX7LbgQ4t10A8NXat59eqS169e0XUdJRaIjuwNd7cjKWS0E4wyNXWmoAprQ0Ku8nS5ChcXCtbUfvhcCoZMjp7lUBhvh4qfGov3nmnxlBAwJZJS5FiEuQgTlU3gvcePJ9I4oroOa0odDaMMupw3OlMFv0te09cqy6c16AfwsyKBSlXBkkL57PXxUgr38ByQcqntsDlTyipCEjwpBlJYCH4mziPhdGQZR3LwWKvpVQtBCHEhllA3elXQVsEqJLOkwLgcCTmgNWs7qkPb9zzcKs9Y3uPDQh2FEhdOi+c0Z3zITD4wHvbsb2453t+T5wVJlvEoNCay2RSGwaCwSFlAqvwfRUiptiD7yaI7tfJUFBjBDmdF/7PUXySlhZwCpaRKqxKhUrRW+tQjehby377X5y9iL0X1j+3JiOqP2UtwwOec53u87OPv9fj3l/7/z4UGPuacC4I1lhyr1FtKgZwTYlydPzVNlU8oFTc8QxxagTa6trVmBYXaXURVnm/bllevrvB/l1h2hbQYpkPksA9Mowdj2e0Ura1cw641XFzsuLza0VrDZtvjVEdahJLAqBanB7R4cgZl10hNn2cx1SgllUhBkxVkvVKVVEGVTDFgS3V42WeW+3uYZsS2hJTJWcilEGIhJGHBEG1bCznKcndzzw//9kfYXbKVgrnYYfvhYTzIw3lVBpQCZWokqtWDsykART9UnKFuQM8x1C9NH8/XkVBHweScyTFUdadYdQ2qQ52J84SfR4KfKTnWEdQCaKnUzVwZDbp16MaRKOynQ3WoKdAPjrbvGDYbrq4v2V5eoJQwFU/SqrapGk3vLFa3JA/TsnA4LNwcFo7jwuE4czocGY97wjxjBKxShKhZlpkkCmMrxLTddbimYu/aKRorCBHJEUmrAIqqlChN3Tgrti6U7JEYyGmhSFXxXYgqAAAgAElEQVTQkjUyrcdYqvNVpUavT8iFf7O/hL0EW32wdX0M6P2UfWphPIkgf0VB6uc42A8KHdQI4DGeZ0SBZPw84ZcTShJa1flMOVcZtjOFKEups+bFIsqibVMl8nLh+voKnTXltYZgeffTgRj+jPczjeswjJyOR+xi2G63dE3DbthgtYGsGA+e02mqgstZSB4oBlUKlIJSGSWFxhqMqMobRUhKSEDRNVLNAo2tQwElCyVGUBVnzTESVKTo2rBQjCOExJjBiyZpR9Gaoh1vf3qH+qf/TdCW70Lg4ndf01xdkJoeMW3FQtfR1krbilEbW1WZtCBZPwirlEeTA3ThIfN5XAR4fq29VDCt9zOltl6QcySXREyBuKb62Xv8PJHDQsmJkiOUTE6B6BNKC65rSapgraXfbdlcXqCsMB8WRj+jFLSbSy5eXbDZdGwudlxcbCmlkLygnWboOjprcApU1sRYmE+Jw93Cmx/vuNtP3O2nOr8seLRYWmuRpsFYQy51FM8SPMZput7R9fXYFVVoO4VWmVwCqqwTCJSqRcBSp6wWI4gRSskkmTBhoU0R5c6R6vm4VZULIVY45m+R6q+yTxXwHj/+i/RUP4ap/pr0/6WI9fEC+1J7MVoVVadvWodaFXyM1izjyP72hvk0kmNCdEZyWmet16grlaoipKwFrWna6rh09nUO/S6gUyHPCgmKMM9sNoplycBITCMhBFzT07dNFXEpUgfu5aqnut8fMRgQXUe1lBoVRx9QKiIp01Q2GFkKsQi+hFrEWCEBp6AbevptD8eEygmRjPaRooSiBN1u0c5SNIwS8KIIoiuhXCka1+GXwM0PPxGVwseF3/l/5PXf/R417EhNX1kT1qKMxhiLcg3GNogYUKbOtUevuhSmOlB5DyM93tjOzvX5eX6ZaVIoJdcNr6TqTEMgRU/0CyEEop9J88RyOjIfD/hpJEdPSRntdN0MSx2Zsrvc8ur1FdppcIIvCz7N9RhuOmzjSDkz+2X9/4qu3aKVIYZA8IEpF1IUTqPn7m7kzfd37E+RwxhIqaCKxWmFLhpjHH1fx5ZrDaILUQJaqSpOrgtda9GmkMtCDIWiUp3ugAM00SeSynUel874IiStsJ0npYAzNYIVEbJUOEbIKwNAo1T5W5z6F7BPFfDgE5HqSy9+7qk/5fB+bvr/l7bn73uu6M3zzOlwwJVIuH3D7R/+yP3dDY2faVyss5oeOfiUM74orNYY63CNq0IXyVTVpL6FkBAHeRZeX3ek+Iqui9zfHRinI1IiJZt16NvM8XBgnjwpCSUWTseFBxJhee9IztJ0VlEr3CXhc2ZKiSkXxphIpc6t3zYNr68uubq+JKuCnSbUnMjzTIoJeo2xAkYoBVKBrDRiXBV3dpaLy2vGsOCnhe//+V+4v7/heH/D/zjcs/3931O2lzRNg3UObR3GNVWspWnRpmq5Vm5+LZwp49DWPKqmlicO9Tm16nFR8/xzdsZFIjFWtf4UwurYPD5UxkNap5se9wf2P71h/vEnDrd35Jjomg7TWXRrybrQtC2ubWi6FtsZdlyw5AUzGdqhpRsGXGNJUpjnGecqzUnEMZ4mxts7jvd34D0lG6YlcXMIvHs74rMhZ4tWBimKnAupKKKGpldsNgNNo1GSarEJVRXUSkHpjlwiKXiytDQkUF29fsVWAR0KyQjFWmIqBK2xfmaIEdus2aCcW3prK+4DterfZ6n9t7fn0esH1f/n3C6lVMXLtKKUipeJVqu2RX388Zufq7V/Saz0S66G5+yFc6qZc1VpEqOQXCgpkhbP7ZufGN/8icOf/oyfZnRJqNaiG4dtG7QDKJA9RrVQQu2kUgqsAdVQ2obUGkpvaAaHbjI7t4UWbGvo+467G8vd/YjQkAPc380sR8WyRGI4i1xHoCr/O+dotAEsJStKqo5l8TU6W1IgSiFraJzC5EyMHkPG6oXt9UDWiSiJ4CcOcYGUcTHgwoJkzew9fp5RudA2Da4faLqWoe9xjWH0C+lwz/74PRxOpNs9X/9fE6//8R+Qoa+aAAqkbVBDR7amYq7aUIypyJ1t0U0LtsrSaVSlsWn9/rW20rK0NWBrtFxKIVMjLhQklYmp9tDntBCWBb/EGrWFWDOMUCAU1BLx+yN33//A+MP3yHxP5wrDVuEGizhFS1X4UmYhpAMqOrQsbDrNZthxdbGtUxmcpmQBoynGkJbC/scf2N8dePv2LYfDiZIFpTt8VpzmxGkuFKEKz6i1EUEKUTTZJ9pFo3pozQZjLZAoZFLOJCmokCtUIooiK00uK9oWtBMCiUwtsKloICQUHtNcYMKRZhiJRYEYtGoQJZSsUMphsSszIK9r5LxuV6bGSsEqa3ERVRUeHt9fX/5ovb+/fd6q/EuoSC9lqQ8b7bPXfvL9n2XCH/sfH7OXKKEvZ08v/58nkepLzvClyPWllF9EHoaYKXlP0kZWvdRnf/v84P+ak/HSwXjs3K21hHWexdD16O0F+z/+CX+YmPbH2uqIpuk72u1AM7Q0ja3dNEVou5aiC6hAFk1EobSwUPAGvAPXGDCCaxt61fNaXXF1dcFX16/5w7/9wGkyxKC5u5lorYLiiFGBEpw1dIOw3bVshyrd56eMX4QQaidWKNVRZhG0M1ztOoZdRymJZR6RGNB5YrfZgAzs55E0O2Yfaa1lyZ4wHgmSmWaPzxnXD+wudmwuL9GNI0aPUorLfmBjLMf9PfFuYj/9G/Ho6QX6r7+iGQaKLphNi0knFsmIdeAMoi1ZaXLT0nYbinHEXHBSlZJEV0yaxqGbHtW0FOdQzlKMIpVE1gWt6/kM2bOEBfEB8RHvPUsIlFgxaImFEkFnjQ5CPkyE+z1p2jPozMWuoW0Kts3ojaNtq5K+0YmUDjSuxZnCtrN0Q8/FxQbXNMwxVopULIzLzPHdLTd/+J79ceJwnFmyQDtgHERl8ckwFl8LgdmTc0QhWEWV9suBjSssJtIbTX+1RdmWmBO+JGIqlCXjnMO52hklOaHzgsmC7jKl5KodIabOsxo9pTjEbdFXe+xuqnMkranNGevrwKB1szrUB62x1T+aD9bQx+5/ziE9r62oR7c/F8p77FC/lF/6uVrQ597r7MOMMS+S/7/EsX4xpvoxx/rBG/L+QNbCVN3BiuLc3/HBh3x8+2vs8ed7jN81TVM5jmnGisJpR9MY/uG7b9DHd7z9p4XTcc9wUXvCG6Nxpkbc5ZGSvV0X+XkeXq1yK4oYimgSmqbrca1D0WJNiykW1x04+Uz5/sAxBOZ5IRFRNAC0TuOMYds1XAwtfWfruI/pyOkQyEmjsTROYW0DSqGdpt809G2D0g5noSwWa2sqbVtLv+2J40jIiQw1bc4jS4yEkmn6ge3VjqurC5phAGOY5pllmWmahq5rcOaa6XRgXGbeff8D7XYgnE58/btv6Hdb0HUmlyhBTITGUrQhoylLQJaEtU0t9BXBK1MFQNoOmzvsw/GUta5tVuxUKFSiewyB5Jcqnxd8HVIorNoNFRYgB4xEJMycDjekZcIKNNbSbTr6xqE7S7Pb0nX1uEuOtb3XNLSdpVNgXEPTVqZD8IU3t7e8u7nl7v7Asj+y3OwJMRMKFNWiDIQSCVJYcqVT5ZyJMZJjgBKrcIt1mDZxahTt0BKVqiNXtK1zwdboOYSFkiIZobUGY2pEn7KQloXOWB74v7FqtS4x4U4jx8MBdzFBV7u9zqq3WtcsIeVQ78saYa5DJjU8TGB9tqJ45ha/bB0+uz2POvuE1v1f1T71MdSnfqRqbXzmVcAXOtWX7DHm9dJz650noftfBgp4+bOcoYeca0RaSnnYcXJcaEqmBE8OFlsKv//qmnz7in+xYCRjFFhbdSyVqjhXVarKtbNIe7QWRBqU1MnSIlVOsGhHLIq2G2hNS06akg2NsfRK0d/csz0Gsk/kKZLiRCkBEYVoh1FNJfUXTQmJ7CsjwS8eLQ5tGy4udmhXqUuFjHIrVqmFtq2aq6oUigjt0NMqAymzLwV8JKdEyFVBv+07NpcXXFxc0LYtKFW7nh7yicopdY2hHfpa3FoW9m/fMR6P7O/ecfX1a/pNh+5b2qHHdA2159ZRlKrOQAeCrhJ0QTJFG2zX40rBlIyRQiOC7TXGKFSqkYISIcdKmwreU1JCUuW9FkrVU811tpgtGchImlkOt0x3t5A9Xd+wbSyvrnbs+hbVWLqLLW3bIpJZlmkdxWLQpqGgSVm4OyzEPPH27o5/+9OPfP/jT+yPJ8QH1BxRKEzT43pNEUWIkckv+JiIuZDKSvlKEZUSxShoMosuRGkJQNKKpA3GVFpa4wxOBDWbiqmuGgb5rDehFKYUYswoMRht1uE0lpIC+/2eRX1P6V6zed0xDK/gQcCmdrPl/KiR4llqXRfRr8sS/2bv7Rc51ZcqtZ+r+r/0Ny8990utlEqVgfd46tnp3717QxnvOb57R0mZBs3/+sd/pFOwaxuudwO9ybS2thyKVNpO1JXAT/KoonA5kyWjrK0CK0VjbItrTV1s3RblGiTVtFFcHX/RXm65OEVMhEY7UtTEORFComsVu02DNZDTQioaTWbTN9W5hBqZNFZwncO2hqKrupG2pvIViyEKZL8QS8b1HdvtBRpFiYn97R0lZmxj+P/Ze68uOa4r3/N3bJg05QCCItWSWrfHrFlr5gvM93+dh7kPc/u2uluGJEigTNpwx83DjswqgAUSFElJ3a2zVq4CKivSxtmxzd94V0nwb2u0hhhGcook8YygrSuMTMaIKeCcYbFoqEJLFycOd2+Zjjum4w5jLab2+GUrGqzOi5iHlUGWdjXee4yvSNYQnRVHg2nCNi2eIoHYe0oWSxcLkAs5JEIfyGOU3qXRoD156oljxMSAKgEdR1QYCP2O2N2j4pFl41hVDQtrWKxXtE2Nsg6/WGCMIZeIU4Y0TUzAOGSGsed+88ChH9h3E5v9nm9u73j7cCAGaAw0GbQueK9w1oG2Z0vrbpw4ax9oEeyRRqOwwQCycUTlmbKinzKaiJ6py94bqqZmHHuG/kgcR/JUziWp0powJIoDXeTiaoyFEtlvD9weX3Pbaz79beGXfk17UZ8bnQYr2r8lo9S35//qac/07+tHrx8UVH9IMHynwfvM7597vB+znj6fMeacsU7TxOs//ZFv/ud/58t//1dKKpQxsP0//y+WFvKwZ1l7Fi5QOYMqmZQjOos7qlKFXDJlOpKLQFoUlWiMFo3RDarKaGVQvqa4GtXOPWVn8bXjonuJ2k+4CSrrSFHTHye6rqOuLRcXDd5CQdg+Ve1YNAv6PnDY9wzDxDTuMVWhqi5wdYUymlRERX7KMnzICpIC5QzVcsEqZ3HqnEZi6iFplFGkEumHjpAitm6omlb64W52EDVyUZrOxVJmWTvMmJhKQo8DdD19CAQyrqowlUz/QyoU7bC+wrcLVqsVy/UFozNsU2IsBde0XH76ihvvqFUh5kyJcS5FMyVl4jiRpkgJCZ0LCUUgnQ37dI6YOJL7PfG4I2w3lH7HslbU7YJlXeHVrKvatOTZxjoGsaoZx4lhGOiHga4b2HdHtrs9D/sDhyEwToF9PzDOGtGxIOr7SUpBN+vsT1H6vOM4AYgFuXYYZyCD1ZKJWmex9YJiHEPIlGFCR43zQiZR2rBoZIBljGG0HSFM5AJDmCjFUTtLngr9XMrnWNBoUsp0Q8/v3/4zk16wvPmcdnWNMXbWVQDnrVyc1OMgSqmTk4P62Or+7+sj1kfjVJ+jq77PrvpWtvoXgk89XSmld/CPOWfub99w+9UXvP79v+GN5+3rb7B9x6urFTb2tN7hrXhV5RCZhh5baXTjKFq8EYWCKXzzEoUmmrNGGytUx6wIxWKNw7ZLPAprLa5kbn6hMHcj+64wDpFQAjGPhDTgZpUn5Rx6PkZKVMi6Z5wiU07YSrNYetarFr9oKGjGcWSaJsZhYpoCJEg6M0yRIQaU1yxv1mQSTu/odj193xNTj5ltR2pfsXCOqqpIReBZKmeMkgwqxsg0jhjv8SgW1giAPwZyP6ABbxxh6jl0R47dwBALSltc27BYLGiXa3pjuB9HjnGiXq/5/H/5J1xV0S4XOOcpWpPmjCmGTJrZXwXRjM05kSkYpbFGo2IkDQem/QNhe8+wvadMB1ZNReMsjaswxqG9JxqHNpaEoh8jh0PP8Xjk0B3Z7Q5sdjuO/cAwTnRTYIqZpBRJiahOyRBLZipCIDFFz73VxLHrGGM4n2/Wary3WKNQJKyCylvqtqKpl1jjyFkTQsGWglKZYOScDWNAa0PtGypjxatsHMghMsaI1Z6SEmpKs19FIWWNVhalNX3XsduJ3fVpnjBNozCtin93j/49qP5s66Mz1Y9FBnzfsU+P/ynXqT+UUjq3AU4YyOHQ0W/uiYctq4truvu3/GsYOVyv+Ox6hdcBUiSFia4/UDqoG0dV6vm9FarK4LSdHWATJQveM2uLUk4Uq1LBoXF1NVsIyxR7UQztrwtf7QPfvL1ns9ux2+3ouoF+GlAWVnlBXXtWTYOpGsKUSKqneEujG5wv1N6Qy8TYZaaU6fqR3eHI4XAgxoi3Fqs1u+4IZBaVZ3G1ZrFacKw33H11J9lPDjSV5/rygpubF1ysL1FGMwwDh+7IMI4orbFO47QgHTQRaxVXywXTNGGyiIFkCo0yWKVwQ0QPARMSRUfGfmS837Jxb+lQHIoiecPUTzhfS4ZceV44x7LyZA055kdY1UxtpUhGZufJaooj43DkePeW4f4bymGDjgMLr1nYFpUEaaCUYhgjw9STtGaYRG5xt9uxPx7ojj3HfqAfA8MYGGOioEnKElNhSpk4W50oMs5IGV6MZYiRrh/ZHo6klPGzsllbeby3GA0Wh7OauvZUjccYh1JW9FQT8/uFMCSIYIqo/jtv8bahsoWoPV050Pcjt293WKux85AppsKQoU+GgKMUzeFwYLvdyvngnbDKUkD65PZbQVXPZJhTUP17G+DHL/t9JfiHAuL7Qfb9DPadv38nef3pJv5Pl1IiP2eeyM6dGvPGGEKQbKJpGlarFTlndrsda6+4XjtiCAxDoRoMVZjttouwgYwCZ8TSOpc8B1SLYPwKkIWtZe05S7bWzq6dBes1pWpJxjGWQtCFaCCoQhg64j10MbK6uCC7RDQiGddnRbVao0lM/Y59t6d0R2LODFOmHyaGKZCzPN8UM94WYk4EsvQ7ncakQhUVeox0hx2jNlxfrPnk5ppPbq7wviZm0QyIQ8cwTUxpolSepqlkc2pBcTjrqCtLmCIlR/qug5RZri5Y+BprPEUbkoKQMlNIhCzGdPpEacWSD0fe/ukLfOOp25plU2NUYYxiJuWcEcptKeIDVhI2asI40O13bF6/Zvv1F8TdPU2eWDeeRdMw9gNd3zNNIyEW+lGgUeMU2O4PQv7ohtl4UdhpuRRxdDAOtJEB4syZN9qABqsKWgvkSRvLOEWOwzj38g3eW9q2pnZWWiganFI4Z2hqj6s8JAgne4IEOkGykFUimhFbFNlpdFLkWuOcxRqNNRFF5uu7O+m/WoOd+/pjgn0YOSTLdtejFkf2Xf+4F+aJvzGGnL+brPMx7bzvWqdW37swye+es7xPS/5zh2XPtRXf/9377/G553oO6vm0Sn+uUn9/vSNS/f4TPRdwn3uSp3/3lCHz/pM/98W8j1P9c9bp8UMINE0jXO0o4ikpJS6vr6jqmvV6zcXlFb/6zW8YdnuOmzvevLmltlfUNhIjUDTeVzS+Qc3wIDMzmtJpA2qLM4qs7NlexTqPtQ5SZowRbyzGGvq+Z3e/4+7f/8gXX31NFxKr6xvq1ZrmcOB47BinyHYIjHRsjhOr5RptpBVwfbkihh5HRRwjMclnPYVAP05obbm4WGOtZb/fo61hcXHJzfWa1aJh6A4M3RFXomx67yAkTCkQA95oPMJnsJUlek9HYuh7iBPeKGpbYX3FkGQS74ynaMWyrSFl7DyN9tZRVZZihI0UyuzXVBQhG4YIExmlPSVB2O7Yf/2G44sX9BcX2OWCojS2bvDOMUOLZ60GGA8du/2O2y+/5M0f/0D39jVVHqlrC05xHAfu7+/ZPGw5DIl+CHRTImVFSIV+mIglkzOkrCjKCY++KHJRZCUMqNOtzBAapZSoRFU1zmhCCBz6gRgjdV1TVWJl7b3HO/nprMZoJTRVK/33IgozxJRQEVSEYjNKiYpUFzuatpo1ezOuksColEWZmqxq9kNAq8hiYanrBq0VKkdKVsTUY11F0y5xVXXeV0qpOaim799HP6IPUEqZ5QcfdXM/5pgfsj5mGP7nzGo+hM99inL6voB8Wv8pFBaeMrlOA6rTh1FVFS8+eclv//f/g/Gzz/js1Wd88fs/8tUf/8QwDIzHB7b7Hr12LHA411D5BdaI6n4pkn2WHM86qEqLsEouEEmUMlFpj0ahiqE2DmcsQz/w9vdf8qd//QPb333D2y/eoFRidX3BzfoTQhgZh8gwTOwPI5uHHQ9f33F5Gbi6umC18gylMI4TsTviVaIoyUjHMZBSEe8q40EJJEgZx3K9ol02xBzowxF0RtuCqgzVWn4/lZFx7EgpUrVS0g/jwDB2c5Y3EZWmLg3Wt+ha4YsnBU1KhZADyhja1ZK2XVLVLRTDmCPTXL5jjAQUCqkvpJRn65dMSQlfoAZsGDl8/TX1zQU3n7wS8Lsq6NrNoEqNSYmYBsbtht3dG/rtljgFDJFuSIzDQOo67jc79vsj+36kHxPDlIhJIF7ldI4UJVNwZWZXA3XWUEhFpAyVMkiVPOvfGgkW/SToBRApQOcc1lqpTIw5B1fnjchM5swYIlYVKlej1IwbjZEU87kPa4xinFPYECcp86MgWoqCgIV6gYoZrQu6WeAWDZWrqG3NlfEsPp24/vxXvPjkFdpa4ixeY5Sdk538CJ36nrbd92WMz90vQfn59ZeYp/zQ9TQz/tDr+3My5x/kUfX05/tZ6sf0Vn/udbqinK6QKUm59slnn/Oy/b+JXcd6scZWS/aHnttv3nC4v+f2fo9RNb7SpAhgyVmTp0LWYLQhq4RSongvzp0SGEoWKmBUUNkGaz25n9h3kTdfv+Ff/vlf+P3/+HcO3+wYdz3XN2sKisvrC9q2RRnPftfzu3/5A1+93vD67QNjUrimpVoWQs4MKcywJ7E4PhxHxgDOtzhbE6aCMZmqqmlbUVW632woeaDv96icWakKVCLZTLJgEUX5/XEnXPoQ2O123G4eGKYe44wwy2oHTqGdwVmHSZ6hG8FoqqZGa0vdLKh8y5QyfV+Y0kikINgiRVFyvAqRIUwYk7mqV3zy6hXL9QV5f+T2sOc6vuLleo22BuMrrNVMMTLFkTIGps2G/e0bdm9v6XcHmEZKmma2WE+323LoB/puZIyZac5Qc9EUq9HGzcpZCmVEqLwgGaRQmt8VfVFKWj8SmKStMgySoZ6C59NAWlUVflbwEpwp5957UQU1TVit5fcpk+cLtfOCutAaJi1DspAVtmTQkawSQypEt8A2jkVbcX25ZrVa4ZoWUy+hXvC/1hcsbj7h5tUvaJulvBcjQfykI3HOvJ+pTE/rQ1nbD7n/2y3Av/4k7LlM80Mth6fV9cfOjk7rB2Wqz7UInr6AH/rkP9V6Gtif9kROJ3+zWrO8XJLGAZM1y7cb9PKC7Bu6rBgPR4xOaFO4uFqx3g+opqYUI6B0bwAPRc02KiKSHEKQsiDB/eaeVb3A6ZrD9sjb1w989cfX/Nu//Z7Xf/iGm4uXXLx4yc2LFYf9htevFZ+8esGnr35JSpJRK6WIU6A7Duz3e9ECqOQCsViuydPAcTjQDQGlPd41oA37w4AxiuWioWmX9OPEYf8WrSfxns8J5Zc472hfXGAqTx4TU858s3krpahS4q809rjWs7q8wC+Euz+WSCgGo0Wpi8qigsdpC8UyImV+LBC0JjlH0RC0/D7EyFQMVBXNRcvlzTW/+PxTXnzygqTh7v6eoURS5dn6P1GcwbQN2nnud1t2x460O3D7xRd88fvf8/b1V4ThiCviXBqHnqHvmfqBMcyasUqDsijtxN5FQTghLZTQ/E5iI7nMwa8ws7z0WXBbFyAHUhHniBACSimqSswhT9Tsuq5FbDxHphhFdHxexhgMhSFGEfcuUIpc/K1WUCCnTBgjOmdsdiiTKJPA31IpROsw65c0ywUvrq/45MUNy1WLdRWmWaDrJYurV7jVJb5dzaLeAavNvC+QSf/JufbJPj3hVN8v//+c4Pr+X/2YPunPud7PUp9+Fj/29f4gmuqHXtz7f/vXWCeQ9NPXcRJUKcZwhFmUuqBWF5jFGuqWoAzdkGjNgDWFi7s9ly877GqJM7VwynGIkcksOlEmYppIcYKS0EXTqIjLARMLdAOqG3BjYhktK+OpleFXv/yMzz5/yf/73/8f/v13/8zm4RZnPDEpVEm0tWfZtJAL24cNqImr65b1qqUxhRwqQnZ0fWYcMsduIueJ/f6A1mo2vntJXdeEqWIcB0KasDozmUK1qHj58obQB/r7Pd1mz/ZhS+wDev6OFzdrVtdr6uWCqCRLTiVSUkFHh9WOpEG3DXgIU6HvB3IWMY4+J8acCGXOAq0he4sxLReXL/nVL/+BV5++ZFlXpDCwfbhHjQLgv//97/nid/+TfT+gKscIfP32lu3xiA6RabvjsN8Sx9nmBYhTYBr72UlViwgNijy7imolPPhYCnHOTNVMJ9RK3EYLhaKVwOGYraHJqJTJYSKnQJpdH54GVO/9XL7bM+Lk7MxQnpyHSdohRhVySpALxmqc1ShvKVoTmOmcqaCDVEBJgTIaW3lMu+D6l7+iaZdcXq1ZXl2IlKR1mKrFNiuKqygzMyzlgtJmzrRnM5WnPeLTnn7yOp+uHxxQv6e6f38A9NdaHwqmH4pjf06i+JP1VP+a5f8pU7XWvtMCOPVYi1IEBdp4FNBevcAvL1G+JfeHvWgAACAASURBVGlPVpakDIfjyNu7B67ur2nWa3AV2ifsVMhGylkRvFcYpcmqCBaRTFQRFXqGY2HY7kmHHhcLra5YuRZXFBfLBZ+9+oR/+13F5qHjm6/2XKxWDF1iv5tIYaLyjilEDrt7jB6Jww1mXVFVNaZu0HZBwfFwf2DoM9M0kWLhOIom7Gefv+Dm+hXVixf0vWKcLFXlqJsVWjuMr7G1SN+1ywWxZLbhjiFElssli5s17cWaaGEMgiLI2ohJXpzQJBmcKAtaEVQhaelNhgSHOLLvOoaS8MuG6+uXvHj1CRevfsnq6lMulwtaZ4ldx+7hwGazYdzvCNPEw3HHl9+8YXfYi7SdLtzv9hyngMkJxvGMQ9Zak3MmhEAIAaMdrq6FxpsSMWVyksCrVCGpQrKzeaMyaCO98fkEwqDwxqKLiFsTEzkMZ8ZZQaF9JeD+ymOtZLPGzE69KZBSYDa+mbn0YpGdU4acaCpD1uKzpWeFtwQS7Is4OIitlMY4g629sOMu1iwuX/Dq17/FOk/b1Nh6Vl4zDu082lco64go0nz+ayW0/lRExUK4/+qcmcJ3B9P3//8xwfW5CPC3VP4rPhxY31/fh4j40PpBPdXneiXvX4H+msHVGCMDgBmraq2VrEEpknVYpYGMXa4pdUO2HlcvaYmo0tEPR+7vt9y+vWdxdUFxlWAWtUZVBq8d2llxDC2abItgIlNk4TQ+a2AiHzu6+wfG7URTNJ+sLrF1w9QduX/zmuGwZb3wlFJwOnGYOrQyvLi8wGnHOAa2xzusK+Q0cTxsUGmJ0Y6cDFXVsF5bjJ5IsUOpRAyZUY1st1s2m4rV0nJzc4PzN/jakozn0E+gxW/eWcdisWIIExgNKdM0Da5tGHVmyplgMkErxpnGmqZETlDEx4U4Zko2aO1IStSplPc4DUUXFldrXv7DZ/zDP/4jv/jt/wbNim67YbPZMu43HLb33N+9pbu/Y/twz93bt9w9PDDFhKocyRhyiqgsXHiVIqREVJCLJsRMSoWshA1GllI3FkU4AfVnuUGlwHqZwiulUMY+VjM5S//XaEoopBAoYUSlCUWhMiJXaJtWRLrnCzZwro5ObYF8CivaSiBRWmB4qhBIZ1feiUKMEyXJ61TaUtka7Sua9ZLmYkW9XFAtW1brS5ZXL1m9eInSdmZoGayee79Vg/EVpmlJiBKYdU78wuI0s6oeCTFPf57+XZ78fPr75/79Mff/tTPS71vf10v9Mes7jf+evoDvopee/z2XFUUhvPO5rMrl23qI7z/Wd2LknnHifOf++TWL2vzjTa6csqFKzERVsE+ol9ZqEd6oLpg2A2mCbjewebvl8nKLtX4ulSK+VCjjwPgZj5dmfdWZh20dSjfoSRGdYjtu2R/2NG7BqmoJKfL29Zc83H7J26/f8vKTKz757FN+/ctfc3nRs9sPaOUYp0zIiW64JuWJxbIipcj97R05KvohYHSF0k4YQtOR/bAjq4zyju1+y5evAzc3C16+/DUvri/AZLogGp22GMZRVO6nlNCLJVe+PkvijdNENw4kBdo2pHHg0O+IMROD0H5TSpAyuUSMdvimBqVwvuZqveRlvQJrqJYt1y8WrFvguOF4e8/bN1+zu39gd3vL3evXvH39mv3DPWGcmKaBkLKwmJQikclaobRB5UJWImATM/Jvp8Ap7KzZOsxW14I5FYsX6/ws9VfAPs08EiUpdCkzgwx0HAnDRBpHVIlYpXHaSVCtKlRdw5MhlFWaokTEJ6aMcdXsb1YgJ/TJ3lwLmyuUhNKnQZYEdOYAWDUNF69e4dsFF1fXrK+vaNZLXN1Qty2+XZKtRyuLrayIf89qatrWoCXY55TRJWNKRmuBiWlmuxulSOhv9VJPWyIVxamOfzqkeWePw/n+d/79qMty/nulhDp9eorvRq0+Hvf+43/o/ufmKM/97Xc93ofWtwZtfDxUy74/5XqqZPNUk/S5Bz4dd/Jtf1qWKWPEe1xqo5+193p67rNS/twGeIdoUDQxBdq6YSJSOU1dGVIaKSphMBhlScPE/TcbmuZrnDNUlaPyBVsHmAwJS7QC3C8qkxG3UGVnVpUpNC+XLG9b+ulA7RVpOIpxYAzsjgO1q0mTprZLxiERY6Trtxz7jgisLy/5za8+p6odm+2W+7e3OGMxRXMcjmRbyGWiaE/MEe0U2ltMrdnsN1R1ZjU5UioMw4Aik3KFzTXTMHI8Dmwe9vRdhzeeZbuAmR+flEGZispZxpDodhNdB714IwIObQzGF+q6xtUWX2mstzSto106jNOgNNZmbNkyPEyU3Y7dXeD2q6+4v7/n9u6O29tbDt2RMQZCFHRDMhqlIREIIQkMyxoUjpwtBUNSedY5EHSBlJanfvosiG1ERASt54uuiJw8PSdOwsraKCiZ1I9M3Sze7Ry189jZ16sYS1RGymgjClNFa8aUSbGQs0IVLUMvCiU/Rhk1W3QPKWONRRuBYtW+pl60LNYXtKslly9e4quadrmibpfUbYP1Na4Suqyx8rxq/p5QZn48R5n3sbNiEqhKRGWNNUZovgoh/D4t/VHv/Hy6ngasj9mrHyqVn8uA/5z1/uN/7Ov73ovBM787IT9Oxz+Hx38aN5/+Hz6y/NdlpvEXOXV1eff2oRf93Jv6udazmfOT12RBrC1ixChN21RUlT/rTRYlNtY5Q3/sebh7oF21LK8uWFzUxH6UPiKFNBWSzuDMYwYQCwp5fOccL1++pNae3Ae+2d1SSs0YCsOYyNmgTU1Rnn7M7A8jb28fuH24J2vFPy1XXF5f0y6XTAnu3m4ZpwPVHNCKUkxTIGtIGqpFgzEKo0UWz/gK6zz9MDGOHSEEtKlx1RKFsMu2uwf22wOLxYKmaTj2HWNMhClhfQVW0Q0Dm82W3W5PCo6mWrBaLahag7EZTMA5TbWwVLXDzs4FqSgBzudCGiaGkHnz8MDXf3rg7u6O3bFjt9+z3e8YwiQYUSXZZyJTkthvp/LIbJutrmT4heJc+xR9HrpIKS7fp9YWPZMSNJDTRIzTecPo03k629HEEBiOHTkmKutmHy55DGbzvZiyQJSUCKCgxEFWsK0QytxGUDO8j0JOknREndGVQVU1y9WKxWpNu1iwWF+wWK4luC5XmErou9bXwsyyTloYSqPMIxbWzIH99H9r/HkvKrLoAZzIjOr0OZ3+c94Z7/38/vX4HO8d/TNX+889/Puv/rtewl+yGfGTgv+fi/x/6fVscC2gtIJSKClhjRGhj7YVoHbJZOaT1Em7YBgGdrsDu92B5UUtzX8nwzCl5SKjrcZoUbZMMeJthTOWrAtN02AuFcEOfKPuOXYjxyESk5aBQrFsDyPbbuLN27d89c09m+Oe5XqBMQ1Kt/RDYbMd2G57UjdQvCIbhTZO5Ki0w3qHMhZrDdpkGr/k4uYav6i52+7oux05TlTNCqP3TNNEtz9y2O2JMRMGy8PDAwrNECLTGLG+wlUV2/2ezWbD0E9crFpeXF9ydXVJ3VhCHoipw9WGxaISrdcSiJG5r13IeWQMiWGYePP1ltdf3XM4HMRbKYoOaS6iQIVSJC1DlZPvVpm/N5VPXkviIHEKikorUGYWvBHFdoFKnSb7cg6kLKaBJ73Yp1lIjqJ/GkOQC6Kx2Ep8uJQR6WwN5JkZdcpOwtznzUner7S8yqOe6gkXOuum2qrhxS9e0qwarq6uWF1csVwuaZcrqmaBdV5M/pyw17T156xU6zkjfy+QngOqtUKn5cM9wb/1Huf3rb9F8sCH1k8SVN/vXTx+sU+vZz//+q5stRQB04AMtJp2Sd22GOcxRSAvucwZjoFSDF3Xs7nbYH1hfemx9oK6MrNavcIWg85GNu6UcFaLgn7oSTFKGerlpN8fD4SgZdM4xxgKb94+EHPi9v4e6xraRlH5lv1u5H/8f//G4XDg7uGese+oc8GoSD9MuMqA0TjvUf0gGRGFyte8eHnB9dU1OfV88+Y1Q3+gbRzaBrrQsdseGLoOjaGtGqzVjGOP1pYQMvv9gX68QxkLymC0Y3VR09atANfjRHfo6cYDIR4x3jL2FcZpEolhEim8EBLjFNnvj2w3B7aHkcNR2EgyTMrE2QNKiiD5/GMuhCRU0oLgRvPpKqY4qyopI71sZuGUM5zudGHPM7UwJXJMoCJKicX107ZVzpLdK6VYLpcy3Z/7sHl+EVGL+ImyZj5OifDL6fS2jkJhiGkOqhK+vXMsVkvW60uWF0s++80vqduG5XJJs1hR1zXWVxgrGXFGY2btAMmS9TmoKqPJWn0roJ6E2B9LVs3TPfecfurf8nou+P+tYl0/tH5ymur7QfUvdYH5UEAt85Cs5CJlHQK8PjFgUilMKQqtDzE31EVho3hDPdxvUDZRipTJi4XgUiULEbgOpWAzEAuxH0kh4rTBNJ6oBByesiIWi8aTsqHvB1LpBe4VFSUk+iHSD3ti/JLm63uKVqzXaz7/9edMhz1pHNjse9I0oX1DZT3OeUKKKKXxvma5vsb6it12x+39Dm/h009vWC1bhqEjjgN5MlhladsG7ytSlHLd1x6jHWq3B21oFyvJmrQmTyIHGONEyiNhnBhDgHFkGDp87cgUuuPA7tgx9CNjiKJVujvSh8QQxVJba9EnLUUSMBloSpAsJxjQ/HdFn84nI39/CiBGpvUKA1rNgPoC888yB9Q4SQaay4TW+bw5T5mtd+4RwO+8VCJKzSIwon1StAykcjwdL2PKlDNiSJKIWbRVrbXYpmLRLllfXnBzc8OLFy9YXVywvrnAerGp9q6W5zqJ8CiD1Rp7ylCNmYek6ixSLbbgj9nqh3Q2Tj+/NZD6D7Q+1Eb8jxBcf3Kc6tPbXyNjfy64CotF4ZwlRrEWqeua1foS6yum40i9WBK7IzFM5FIIKVFGzTBMjF2g2w30FyP9YRB/H5WpVw2WShg4WGI/0h+O5Jjx3lK7mqAVVVvTLkbyThg5MUaGridTsN5htWRAja9koJAlKFSuonGeynmuP3lFGA4Mw0RImWIslbMs24Y80xCtNnhtSCGJ/UgCV9V411DXNUYlwmKBAipbsVqsUVgOx5Hjsadd1tzc3LC+uJ658objoWez31FCxChQQjEizoyykCZSDiirSSXTHXu2hyN9F0gzVjQkYTMF8tyU13M5zowOkX6pVmYmIUxnoL3RTvqDp+CCnoOQBFKlpFeuQALpLFoi0K+5tI+iqJXVozmlM14EULw/Z3zngeeMLc1qfi6tSYgU4OncjlnUt3KaMfVG45uWxWrJxfUVl1dXXFxfc3V1xeXlJXXToLwob2kj7rEYK66qc1ZqjZ8DpnsSEB9fg3qvl6rn1tNjv/QpbOr9jPVvPxj9NeGYP+X62QRVzpnqX+ka+a0ezAzwDjGRS2a9XvPy01esLy/Y9x1JBYqxKG0le0qZaQwMfWQcMoftwH5xQBdNyIGiMhfXl5gXV1SVI0wDOSWOuz0p5HmCXFNZx2LZcHNjSGHHMAwY47DLllgEIykydIHK19RtS9u25zKwNg6mSC4JjaL2FSYmpgjEhM7gnGUIkTiMdIcj2VmMslgtPP0v/vglm4URt9ZFy3q1OqMdplGUkC4vL2mXFzjfniX77nd77jYPbDY7UgpoIlllmNsNuQglM6aJw7FnmiZiKoxjZpjOFbt8/E56pifoW5zLe62QgQ/SN1RKXEB1Tu+VtvPtBAkqCP6znFSETtPZORMt+p0zzxiR5zPGzI6lbnY5mCf5CnIRw8GURYC6KIFNxZn3H9LjNDgV4dX7tqVuGxarJVcvX7C6vOTy6orlekW9aKl8g6s8xjuxllbqnV7oCbanmN/rLH7yKLQ+94rNt4OqfA6nT1g/G5DOCc5Pt7X+vr5nfdCi+v31XY3iDw2oPgaD+rHrucf4IVe1x82X0Ubh24arm2tefPoLhs2WsTuSlQFbkVWkAGmKqG6k3g+kqPBvd0xjAp0puhDGiMqF6+tL+qEjpcTQjYxdT991aKR811Zxsa457A4opfDenqEm0zRxG/a8vLnAWst6vSbEyPG4Z+wyY7cl9it6L6Ie43CgZENOieEgalXOOeI4kpSie/CU2mKMJoXI0B3Zbx5wVeYff/sZn//ic5pmwX535LjriTmJuZ9y9MPE6zf3bLYHdocjt5st282eKUVCHIl5FGFuJGCehOSKmuFWRmj2BUElzH6eZ0xmQnj3+iQqcjoYUOZU4ud52q8wxs1Z2yxuMofofDLGS3Om+KQ01DNL6nQxV0Zji8U60Ts9lf3GCDKgFLGkOeGaKUouFDmRjSJl8cgS3VXJAJUS6uhyveLmxUuuX77g8vqK609eUrcLqkYCqZ5bGkrPwbwS91Q7B0ohEtjz+XlqZaCVMLi0DEKNMSgrWq9GiwbDU3Hpd/um72aoRb6Ec+xV55/fPVT+rvvfby38lOun2uffF8c+BAE73fc+pOpDv3+uBfPBoHpu1D9Zp/+frqSnBvLp6muMeecxTkDo73oDH7N+Coyryo+6kuhETAVT1fzmn/6JN3/8EwwdOkaSghxGciyEojBT4bDvUdlyO90zjZHPPv8U4+D+zVumY0/rKyiFqe9RueCco9Q1Q9dzf3+Pdy0xZ1LuMDaRy5G+71mvL3nxYkkpI84pdrsH6pslKiX24UBdVZATN5efUHnL7mEDMZDTROUaSo7UBtI0Uc/fyXA8EI6Frj8yDgeWTcvNL35Bs3bcvFygjWMaxXRwiokQpHc4hZHNruP2/p6HzYHdoePYDXTjKEEV4aKfgirMBAuk+tRWgmRJkOayvJwDagFVZIA9Q6O0eTRpPAHkT9P0nGcY3NxvTCmhZ+Hok0fVqazPmXehRdpJkI8SeB+zQgmwBUEYkATCxZzh5lnXISLIg6wg58I027gUZfC+oVksWK/XXF5dcXlzzdWN9EubRYtvReBGGUMxBmUlmGst/V/M3N6Yy/k8aw9Im2PeQ6dg+cTT+dSWMM69c+6fes1P7YPebQE87p/Ct/fN+/3XD+2zp8fp957//ft/zPqx+/z7AvLT9/hd7/UU3566M5/ue+4zfHeO9J9ET/VjVwiBrMAaB6rQri9Yv3iBX7aMe0dx4rNejBNPpGQYYsaOCZUTwYv037bes1yJ2EoaItu7DU0rugLOWihJxJwaD1rhdEWKgcWFIc2ZlbKWxdpwuW5QesXt7S3OZ9qFQZuE2QVyylRVRdsYau+Ik2cYLN0QKXmAIvYpvtY0dSuq9tsHuq5jCh2Nr6ivLrm5uWF13WJrxRgK5IDSDlfBYdizedhyPI7s9kduNzv2h47jMNIPgRARWqgRFBdaBkmlPAmuGayegypzsEIIALlkshJ4uZlLfpUfe5NGawGwqznI2oJS8wU7S7UQYySFKAaA6bHiSEmeW5mMqTVmPi6mxDQPlYqRbC8iLR2lZtwqGf0EBVDKSYBcnYVMsIbaS+le1S2L5YUE1JsXXL+4YXUh8o2+blDOStBWRthOWouE4Ul9X0sv9fS+tRK8q2xegy5zVs/cAmHe4LO/1tOM6DF4PmVHPWar7wTl//gtyv9w679MUNVaS2Zj5HxLBRGruL7Eti26bih9RzIeXQoUT05inTJOCUKgBIMqHd5uocjmjyR2d1tyaPGtx1lLKQm0wjiZ9BqlWa0y7cIBMlg5Ho80tWBlq1aR1UCcEheXNc1kGMaGaYqkNLDZfcOyWRLChDYF5wugscZRVSI5p7VFq8wwgDYZryxNU9G2rQypvDC+QhTFqRQLx37kYbPnzdtbdvue3eHIbn/kMCZChCnKZ5UVcqZY2aOGubQv8jlSIBvJvHKW3qT00xVFWzIZNavOp3QqQdMse6el867THDBmLGjKMlScM1KVCiXNfVo1C6WUOUgLVwilZGCXZ0voE0IgG0VRJ1NDCUexzAPBd1oHGl9X+LrGtzW+bagXLe1ywWK5Zn39CW3bslyvaZcrvPcydDIyvReW1UyrNU96oachm3kMjEY9ZkNPWxtPyQlPK0BjxWXi9Fo/NNR5Dgnw9/WXXf8lgqpSIpIcxkGM3SiMKdJaTbVYUq2WuMWC2B0ZbYcqwpwyKZHL7JyaNLpypAjH3RFvNU3jMQqmKbJ92LJmiV42oBXWeharlnoh9s8GxeWrS7TWhJDY7XacidGu8Nvrf2TsR26uX1JKYXmz4ng88nB3zxQntt0GAFMrFk2F1hZna+q6xbsaoZErFuvqnH1BZrFYYCrLFGZabVKM48Th0HF//8Dt23vuNwf6fqDrR7qQiOJDJ0FUg3WGbMTHXinp+9m5tI8lk4soLqlTpC35Sekv5brhVPaDZm4TZUglzYHyNM0XeNcJlC+SfrPf01zmngJPznnGFku2p/Ip4mqMEWHqrCDlRClJnls6EagCFoWxBm8sbdtyfX1Ns16yXK+ply2uqfGLhqquqRZr2vWl9HnngRFGXEzVqU/r/awGZeeWhn4CCVNngP45cM5B9XRBOJ+rT4KttpL5KnsC95t3AuqHMtTHgHoK5O+28v6+fr71XyKoyipnoRWUiL1kraiXC158+oqwPxKOR8pmxxQmDJqizYm8jHWWyjcoVQhTpO9GtFY477HK0g976snjk0c7jak8pva4pkJrhbIGp+dNMAw0diHA9AS61tR1yzQEmmYhG7B1NENDtfR0ndgUGyMTa63EPE8U6yHnhFGGZdtSVVcilozw/gHqpqEoR98N7I9bNpsNm82OhwcZRB37XmytQ2DKAnSfSU5CjXSWJPImc2mORNtTjqgKJYopYk4yGS85S28yC5AfJS0CEWaeXT3PRnRzEM3CVy2loObHUAWMVngM7jTZnzVRk5LXocxMFzaGggKjyNoQcmJMgZBmE7+scNpQGSsqXVXNYrFg0bSs2oUo6bc1VdNga49yjzYp2ll81aCsIAY4Z5EzHGsu+cupJNcn6qwlA1brM8tLz0MxrfQjmeHJ7Z2g+qS/N+fU38pUP9Qrfe6+v6+ff/2XCapnAQaQ0txaklI06yW//m//ROkHSt/T3d/Tj8OsQTkLGJeCc5XwvWfjuDgl4hQpSaa8tavPghWuqnCtYCDRGu0tgYhxgs+cdEI1DqsrtBJok7UWEljthI0UAxrPi8Wnku2F+M7E2CpPipnu0LPfH0mpoFDoxmIah8qZkqXlUVKg9TXHfuLL12948+YNx0PPMAx0XU83TEyxEKJM9LOWafwJ5lS0Es/5kgBRz88ZKJJdgnweIcWZs3/61E9OCVDmM02pR4ylPmVVBSJqfoyALtKPNfPnb5RBzb5Wp+8SpSTwKoU2YJQck5AB6ZQzQwyMKQoe2GrBptY1q2bBarFg3S65XK25WK9pKwHjYyWAmsph64p6uaBdLjBtC5XHGsG18qQ/KgFSJvISTN+9z2i5+FhlQOUnx7w7OT71WGWq/64afSnlrP96GlC9EzCLtE4ee6j6veB6atr8ff3c679EUBWptjIrZ2WhNzpDCBON9fziV78kHY/Ew5H9m7eEfpjl26xkZUUU42PMlCwg+FKkfxdCIoWEcaLlGmOkNqIpUNT83BpGEt7ZmRZpcY2wmpTSWOXEmqNoSgIVEnYaKd6xXC6xShOmEWYmulKaylSUotCVZVKRcQjymnRimrPKQ+jFA35IlGS4e73hT3/6E5vNRsRlSiEGCEF6jKeAaqxCWStSJEZjrBXJxKxJBUoSmFGMkZTn9xgzOZYZRoWIeSMBxZIFj3r6LmZI1AlTapTGGEcxkGME1BwkBcAvGf2pJwFF50ew/pwxai1+VmNKjDkylsKQo1QjbcNqJZnosl1wuZSfq6ZlVbcs2lY+4xDmfrBYfjdNQ7tY0C4WqKal2OackT6dAD3NMNHvBtTHAGpEh5d3M1Kl1KNM5dMMVD1mmQK3en7a/rHZ6t9xqn+5Zc8NptPtxMQu+fy77yonPgRR+KHrO49/r4L5vud6/n5x8lQxC7yqaFLSRKVYLq95+emv2L/d8PUfv2K/2xFygZxRMWEMAvgfI6pkKmfFrjpppjHRHSdcpVGhoHWgqgveGUrUpJhwxVC8ZBfeOkwWOqIqAv1JMXCcJlTRhEkU4HPRGOtBOYYpYLVDJQnalMKkBRgap0wOisq1pIyUo9qTSYRYuLvfcne75f62Y/vQsd3uCOEEeRIQPjArQAHWoKxHOeGiy6Y3BDKJRAyRNAW5wCSZwJ8CaT5BrJQMg9zsQHoSOVFJtEuLmrVRT9+MsnhrcViUEi7+aUJWooievPONKimzMY5iDdo6JqCLkT5EphiYSiICVeVprWddL7lYXrJetqxWK9qmkuzUOXCCxqgWXib2rqJerlheXFAvWqyvKNYR5mAqp5e0Qp6ymyT4lVm16UnWqRVzIo3CvRs89ayYpfJsd37aYwo1y0wlCuYMlXoUTjl/HKcv873z/d1s9buz1I/dvx/i4X/X8R+DDX1/nbPzJ8f8uFZGee/nB/6qSOyTpyrP3L7rOHm99jnhkW8JpMy9MIGdvOvnfRqKPL1ivnOFfe9K+txV/M8NyD/suHzGLeYoQdWZipwKiorF+iWv/uG/8eUfXvNwe48tiiklhnHAWUtmpA8D3hoqbTgOPcZqzGj45usN6/VSFPbjBLknBclUQ4m4pcdfGbz1tE0lvPeQ8NbhgOPQMw1ByrtiSKmgtcdYx9Anxn5CixwSMSZyLJDEcDBn0MkwDhPTmAVPWRdCyex3A3f3Ha/fbNntIsehMOIptoiIh7OYAlMIFCXydmKRAjmoeYikiGUka+HDM0VUypgiIPZiBF+lrBImWi7n86+kgsoFncDMo/pcCsowQ41OmyWRU8EZj3MVIU5M/YQqCsmRNbM3qUzWtSFbC1aTnWECppSYChQnil3EiEsZFSFuOx76yHgYGS9WjBcdFxcr7M0Vy4uWdrmUYZBxGOcp2uMWK6r1NcZ5khY2lNWPm9s+yTTP5zFIf1krlC7SQtGCSy1o4tyn1vrdY+cd/C0d5V6DigAAIABJREFUYIFUmTMU64TlPa1399HjnjzdB+X00D9Jb/WpzOfHoA/eXz9EGOVpQP1L9YVPw094dHQ4AfxP/37udT6Nf1rrH+imyrtJreLxRpk3F48JryrvHvtn57Llx36oT05ETjAcKEU86YtS2Lrm+uUnfPLZZ3zzxR84TiO+ackxENOAVvncjxXVpEyYIsFYyJntww5fO+qxJmfNsR/ZH3dMMVBdVHz62xcoVTBrdR7YaAUhFsG63m9xVUNTL9Hak4sRGb2kKHj6oSeMmTBMhFF8mVIQO5EUC8djxxQSdbtguVb0YeJPX93xze2GPiSmLNVzmQkaWQuwNBURez5pf6Z4kt2bnRuKlPTJioCIzll0dDltMvm7FMo5F5pbgqgMKgFZgj8I48o7N7dHRH+2lIJWBUXEzN5XWIPJs7RihpjSzLEH7RTZQtFis51yoVCoainZhWE2cTwcGI4d02FioqOMIy2ZkURfAmXVsKwcF8uGiATFdr1EVQ3KVmSrCUpRNDhjKSrK+5r1VctJIFspGZ3NvxPtU41S5ay7qhSUZ4LSI3DfnoPmUwLOGcd6+ruTGHc5nc3z7S80j1Lv3Z67/z/D+i7Fu+9b56D6oczxYx7wW6pQP7IV8HMtXR5RTKdVkJhtrWV9dckvf/UP3H75B76OA6POpDgyHYd5oxi09bObwdyHjFKu5ikyTCPd0NONA1jF/eaOmBOXwwX1pRHLaaWpnMXNXlFdN7DZ7Bj6iYJHq0Rhop8y/TgxDhMhJPrjxDQGpmFkGAbCEIghMA6BlIoISefM+uqai8uRXX/kd//6B97c3WKdI0dNio9ODiEEAcrndG4BZIRDH8+V4ly6GtARuWhmMAlUKWJFcq5AELy/na/WGXQqGF3QGRQiJagNGCeZ11nntBSsNVSVR2UoJlMIAu1Kp0JWbkYlFBmrLEkrTCkkMk3lWawbVqsVtfNM08TOFvY6EYYRVTSrxnNVWXxJ0HXE7T3TZv3/s/deT5Lk173f5/xsZpnuHreWC0MQQZDgvQop4ipCj3qR/m49KO4rQ9Q1ZFwBC2C9mZnurqo0P6eHk1Xd09szOzsLELsgfxu13dPlsiozTx7zNczSqNbRbbe6vbZhgsN3mhHnZihGh1GIaIlvbk3uDTow41i2y40VtLkpwSsv9lJvT/ll6Q3fzUSPtNpXZWv/PuH/467bLc03iWUvzVRvv+DrBtYXNuKUvn/nbfqTrFcfdpVqGs47Hjx5zPt//TNyGnnaKsM80GZPy1WnL8sw4jhsqYoPoAnM08RhzMwl4UNgnrNyz60lH2bGyx17caQQsKJDq93uwPPLa6yLDNOOVg+MuXEYZlWPGibmqbDbT+TcKEnVofKUmaaJaRiZl4DubGA7Nb68HLja7/jo86+52kOMCddA2o1FTs6VXCFnldnTYKjfhl3gnsrHFwShUrV0r5qBugqmgrUNtyhP4SwuKOTIN8GUpq2C0ijiqE2oNVNyJTMv7qMN66DVmTQpuj8vPVTn9GbFYqVhrOoBWm8gLDhUo0ItsevYnK+I0RGsoXrP2mx4vA60okF40/WsVh21FXKe4fqKq08+Ynr2NW614tH773F2tiGGQA1GiSKmaGC0hlaXwGk41vGnTPXIRNCB0o3ilSz/VTlO9+0pUL6og/rNkvp2JvuN4/klA6p/X3+c9X10Sxy8enL4XRrYf6yh1Z9kNT3AlaL4YiuiiloNz/NMf7bh/Z/9nHncM447roZrZNhRa0ZqJpWGFSXAlwpzqbScoVVyquRa8LESO0MfVwrfwpIOIwdbkaTaAM4FaIZhmpiGQi57DsMlV4eJw5g4jIVhKoxTYs6Ny6uJUpespqFMozkxDCPzPNNaI3SW+XqiXI8cDgeGudEMDAl8BS8Na8tNHBAtx5eh9ClGGHNDhdR92RabZQ2oZgmqVsAZi/WOaoTmFIPqrMNjMEZ7eobKIWct4VuhmUZtmmHrhAuMUdWrWhSCJRqjiRG64OmCwS16q80I1Qg4Q1tYU85bfJuRKVGNwYmhDwbxUbGuCMGAKRNIpUqhDDPXHx/YB0/YbLGtstlsCKs1JjrdJtsQW7VHukgQHgNqWzLS45fZFtbY8TEvYlCV4nwcbt3Gn77OBP+mt/fyofG/rz/Ouh1Q3ySwvpCpvung6FXtgh/yjm+ieabOZywpNVwfefDOEw67v2I/7hnyzDwN5KPHURWkoELWTTAZ0lRoJeG8wfuIc4EYO8Q55jwzjxPTPtHyyLSb8d4TQofzgdYsZOGwm3h+feCrZzsu9wOHobAbZ8a5UqowzIA4DWJWJ8CtQG6W3OyCZS2MaU9aUALNGMRWyqxwKSsnVw6sNYTjvjFygjfBknQtgfsI3pei3H1vwDv97FaU3+5c0IxR62BcU5aSBbBVlferthvM8t4NRyJRm1JOW9VwYQAfwVtYd4btesPZZsP5dsOqjydCQWqVao8B7sXBpxWDd0tgb6pqZYzBW0MrZfGtauQ5MU4zhUaeR64+/4Tf10r/5Zecf/AT3v7l3/BgfcEuFaZ5JIZwykIFe6KdnvqdR8YXghGVmjxC9p11Ki0p9htl/8vQNa977nyfYe+/r5ev713+f9vU7k+1AX++dbOtFZ2WFwEXHJ6ei3ff4WfSqALjfse+TMz1KF6sJWA1ltTU/sNg6LueED3GG4zRMlR52400DrRUmJqaz7kYCX4F4kjNMM2FNEPJhjQLu0Pi2dXIOGV1ODURAZLUk9+7QqIMTTyVxDxkcp2XoGkXweulhG43OU5rYJ1eSI44SVVrErWeXixGqMq3p2lA7Qz0PhCMw4ry81trtFQQp95eJVfmXDCu6uAlZcqcT7RZlf5TymYMEJzQ9ZoV0hJd9KxWPefbLRdn51xcXHCxPWPVR4KRpQ+8sLVQ/PFxT1prVaBFjF4Yik7IWqmKOAgeUxrkovdl1RUYh5nrKbHLheHyKc8un3N5fY2LjnfcL+hjwPkIi6ZrM1rzHNX4j+eOXTJZoS4XnYa0o222WQgDt1oD92Smt4Psq4LlfaiaH9f598Nd36f0h28B/7+spL8PhnUbRvV91r3Pf4Ns94XXeY2nH83bqkAzln57xhMr7OeJLz77nDocqCkzjxOFRQLNWUqZSa2x6Triak0ITqFIVZlVsRO6znDYJbX3SArSN1PjYDOIYy6WjGEaC6Wp0yoUSp2ozSISqMXQWkFao0i+AY4vULGjVGMrYIPQRU8pmXwcgKQM9QTS0Mdyw1ASEUwzi0bpQi1dpvzoR8U7JSlE6zG1kevMnGZSzdRqSA3yIi4tvoLRSVOeJ1KdqQ7IYI0jBMdmu+HBxYpHD8959Pic7XqFcxC8JYRA59XypguRVgt1nk4XgbzACXS4Vjkq+huUaVVzobRKaQUbDM1CsQVrhUqhloRzamUtS3/8/Pyc0Ri+uD5w+eUX/P6f/gsmJT745S958PCCy+koyqLqVyAnKIldNFORhsFhWsWijhPHoNrMUWz7fjjS7f7pfS2BI3717mP+NWFHt9cfBz/65u/5OjjWm/u+29D9+8Qxd5w43sZa3fdGp+wFPSFzzi/cdxtj9+IH5/Q7vIj/utug/z4f5PsGdbE6X55rwRqDX/ekkunPzvnrX/2Kj1vhM+Dw6WfUWohdpCEKbRJDs5bdOBFzxqipJ6vo6WNPDAa7PoMykbxSOVNppKTCLnOtjKlxSI0pNUoWxEZ8qEx5JBctI4/SGULVYNeAVjAUas14u5TuqZFlxFtLcIbWKsVxMj48aWLeEt84Cp+oDN7NdUzbgzfCyrDo5C5ZXqqqTVup1IVGG4JawETjwBbMMsQpkmi14SQTo+fRgzXvv/sWTx6f8+DBOdt1VEmBWjiKWYsUpumalhPBCM46ppxI06QlfQw0s4CuRUv6lot+0lqgFhVwCY7kYMoFyIipSmCYlQnmgDar5sO5czhrSZdXPP/N79iKQ35i6C/e4ZAziMEZS6GSS1VMcbjROjUCpjmkVR2w0dTy5p7z62UB9u5x/W1/vxtYv5nJ/nFmHS8L5K8TWL/ts77svV4WLO/Dsb7JPOj244/nwXEQ/SIW+H51sLuVhzu+2KtS3lft2Ps+xA+zDFkEQBqL2RycALUNtDTVi0ClYYzF9ys2Fw9oaSbv99Aac61MV9ekppRVsQ7X9RzmREqN0Qo+WFYGQvakXLFOszwRsK6jloYtlTLNtJRJcyFXQ86Naa4MU2WedSjWcFgLjnYyt2tUpW2CBh/R7RU0Da0VygzYQlgsjMytA+IYVFWQRcvoVqtygYxSS48WJseDJThPNAGLlv21NDLaR622YoJH3CICLZUmlWIqPlp6t6KMil7wDs43kbeePOD9dx7z7lsPuTjvWfUebwVEh361VqjqfppSUvqqM9TmKIueQWuGlrQFYBqkJJSUqcvFAdQOBVnMBJsqbWEbUkBFr1WrNWegJUxcsQ2BaB2HVJi+/JIPr3d88dlXvPf3/zMX77xLv9kyl8pQM85FmnWUOeFi0EOtyQ1D7XTs/RDPiX9fb7JeRgJ4Iage/3g3KH6XK8sPO6B+cx3JCw0NTMpIUcZYK0JZgNv9eoOpDd/AOUNG+PLTT0hXV7Q0460j0DEPO9I8ME+JYcrMeVIMaCnk5Fl5wVstxSVYbCqYGUpbFPhLYxgTh0NmN2Z2U2KcKqmBN077kAtVKVdISfuUdnlNHxyuCd7qe7as/VQMBCMncPtpNc1gNUg3MKpKf1RlOpazx2PAuYBg1VE0KdNK5fMCViq+i2BhTDNTmpmHSSfuTbCA9YkHZ8LDB+e8+9YT3n3nCY8fnbNZRbwDYUZSA2knDYVaK3POjONISZMKf0d1d7XGYLxHsHgR9auqjUahFNVh1e321JpJKZMaak8iKOm2HkVgtH1hAHLCOkdH03bNMLL76mu+/uqSZ5cHfvq3v+aDX/yCeH6BCx3FGZIRUruLg9Z6Qikj9Vhb/EWvuxjbf6vLvSo7vR1U3ySVPvbv/uzrNNk+BpbjRlVVOjqm+cZAU5m7Utri62EQH9g+ekjOmTkVxBgu/Rek6ytMzphWOOsCadwzjwdyGplSoe72qsXaIsWBsw3vItY7xYgubqOtQspVQf7TxGGcGcbClBsViwmLEIdVrc5W1c1ThzVVhyCtYozFBYPJhkI6DZloS7naNCuvVU90jErXueWzW+tuGeL5kyhya43aLGlR2ZfaoFpa1KEMApfDniGPaujXwDXoHLgQWPlI3wmPLgIfvPcOP/ngfd56eEEMhlYSOU3UWaFWiqHVoJqLkhTmeSKlSbWggRACdsHblpRPthd3+20Ac8mUuZCkIdHTrKWiVOBSdRApPuC9RSoM08hhmhFjaWLxpWCsUMY9f/iv/4Xr58+Zri/5xX/4j1y891cUYxWnbJQYcGzRLK1WrXr+DQTUu+tN2gM/9PW6UKvXAv/f/ttx3e0x/NBxqi/gUu+5v9aKW/CDWKtY1mo5qkI1G+jOtjx85x0VXTaGayPaChgPhOAJ/YrQeWhbpnlPmSdSLoxzpqaCt4JxDZccTYxmqFVFsFtDdUib0j2PykXGKnQnU1Udy6opnmkVMZzgRSlVgnWLrYfWnrVljBhaswQXNUNbrEMAhUP5o5TdEamg/1YTPrXqrqUw58bUmnpkpQQ503JaXq9wmCdSVbiWcXqzwbPqO9ax5/H5mvcedbz/3gVvPdrQdwbyTC4TJs86bFrsgGpp2IpWD9bRbMWJinAfXUhV7DsxpuHm8xiDX3yc7KIINufEPM8glk4cxizSe7kBKloj3iLNKGOtFUqaMeJwzmNFcMawMZapZIbPP+V3reGtQsnO332XYhy5ZLBHO5TlYiRAU8tr4I0Grj+m9bJM9S8hoL5s3Q2yIrcEVe77Et4EAHsXJaBDjx/ml3p7q2pVqJRFVFhDHE00Yy2L8pHpOtYPLtSITgQvcNkauzxzud8TpLHqHKu+J2TPfvecnDNTmnFRs1MpldIytcGYMqlUzVIXwWZxhhAC2RQkGepSipc8kVGa6zG7ssbAEVDfGs05cAGHwblKdUV7yMbgoj9d/GqtyDItd8FjXFhk6wRxVsv8qtuUSiWVwlAbU2mkNNOmmTJNkDOlFhV1iRBWQuyU1987xyYGzlYrLlYr/uavtvzsnTXb1ZrgLHU+MI0H6jyd+rSlaaCri5ygcZ5oHcYLczGUmlTxqhlVGUuJYZgopeBDoOs8iCV2HS54Ukrs93uly4oh1IXl0AAsYpW0oO/ZaEbbGD4Izni1NE+JkjMW4WHnuZorzz7+iH+aE0kMf993xIdPsNJoiKpvyYu6CEdxavmLYcZ/9/VDjQF/ivUCo+q+KfzdDPRugH0VYuDHtBRSpF7yR1sPEYdgtbx2BmMisTbOHzaiNfTe4VrDtMp1mcnjwGHMeG+xzuJDR6575pLxRS1BjFbOLEJTmgnWyjSpUDSA84ZoHc00MF4DnuiEPTUUrL9YeRir1s9e1EDPOqfK+LVhvQ5wjDScNRj7wgdeDOoWPrtdPJCaUKikWkk5McwTcy6MCEPW6XpJCdsa3lmc85r9WQgrz2az4uxsw8V6xYPNlrcfPuDJ2RkfPDQ8XhVqLqRpIM0DadiTpxlaW1hPhrrYsGAEj8UsgtBqa63fRQwd1lpKbtAmWq14H9U1wZqTTfQwDBzmhGmwEscar9WAMRRRCFiqjakUcskkoxcrY4xqC6QMSb8rT8WJp3lhmiaeff4p/+O//hPdxQN++utId3HBcOvrPQXWZUj2b68B8Je57ouFd2PdNxhVr3xBOFmSHKebp1tTN8raFj788THt5rk/iCXtNIu96fkqGP34BdXWlhMc9WCqFSNezdwiSBWs0b5jqcrssdFz/fWXpHHPoVZ6LBIcrnhaNcyp0EQV6EGnw6kokD3XxjjNpAK5CU2CluK1qQq/GOXl16M0mSin1BrEaB9P/ZCMZntSsSILs+fIVxeOwsenrFRU07SVohcOYxZTxMqc62noNOVEkgV0zwymYoKjj2v6PhJDYLWKrDeR7bpj1Vs2vePBpuPJgzMen69ZmZF52pGnmXmaKFOmpkzJmTxnvFH0QFmqG6PWfhhxiLX0cYXvPNDUUWERIRjngWYyLgi20z6r8RAcJCnYnPEp47z2ps2iviVioAi5ZOqcFoEZobZGbkKq40IeUE0I5wKtKqmjWUMbZ/ZPv+b3//LPXDx5wgcPHjIt3+MLsnELq6pVEHOsAHUX6oWSGwHqF3ykbhwC4Jj52pNKlbC0F47ouNOLnp69PO74gAX/cjof9Z56C2p1bDkd18mQVY794VdDvl91jp8q4lc85va6D4d6/PubrLtY+u/6OjfB8/5ba8dvp92U/3fxpbdvJ6D5Mik+eebc6iO0pkOFI371CEZ/GWvk9vO/rb3wXQLyfdi2G1G6uz3hm4P/to7izXMbxllCt6KmTE4Tc8rM1VDFUfo14fETtt5SosOdrTlcfk0Z99SWEQm4msnjSGmCs4G2yLsN08T+MDJMM3OumrkuNxa7Z7EGayzWGlz1y8Ras8iqmkenA7+hWqVtCZTWCBazZF3gvV8GcDrgMs0otMro1TE3tU5tTbPoVBJzyUwlU2pF7MQqFPy6p3NrYtjSxTV93NCFSPSW83VkszKYNtD7mbceRt57O9K7mb5ohjvMB9KUGHYHxt2INKultouUKozjjBhH1znEBLBu6aOqsZ8YaGmm1owhsdpYAh0mwmz2WDGUBaWwloYPjpwryQKdqAV5gTarNm2ZtJ0hs5I/jNgFYrZ8sQ6KFKpkjPNUaVgnbPpAcRaGPXW/w5WETYViHGG9ptRGmjIuBlwThmFPt+oVB0mDtohSaymxXFBUJ1FQkeSGUotFtOVhF3H15QBGBVxkQRy0F4bCpyHj8tNW8Dhs1fYRTfSCfTx2bh9Hx8P/1ltpJXH/yXgij7xE/OV2jLkdDd4Eh/pt62XDJBFOiJBvw/jexmy/yfqj2Knc1y74cZT/x4OgvfDzZtPbjaJQ0VK82IxxmolbabjVilgSF/Y98nZNv4rM+0sYB+p4ILVFgX2RCBxTZk46PElFoTZiFBJUEazVcrc1s2SYBmcD4gVjnZIT0Ay2iJ4Atd0CKRujPVUxeFGYlKVpVoss/b16ujBWYcGotlMfdZpnplxIOWsZ7gI+Orq14/z8EZv1A2LY4u2K6CLRR9bBEV3D1gOOysNtz3sP11x0lppHhsOO6XrP7nrPNMxMu5GaGl1QYWqMRZqopbe1uGBppiyZ9+IWVislJY6whkYiRksfA9ULY06Mw4E5DbS4Zusice3prWW0wt5WctVgOo2ZNM7ULDgjiHfknBcBaaX45lqY56TDrimTGzx4+ITNekvIjau5Ug57hmdPSfsd6+0ZlMo0DdSm0oZpVMRGCCpH2MwCq1vsq5toAK13zpfWmmKLq9J6TxnmMXtcHncKgHKTecry++3Ms5kj6uM45zieAou49qLJ2riBhh3fU3hRoPr2Nv65WV2vv+Se2937X6xebx7zcuD/6dm3/v6dg+rtF74L/P9xBNJXr7ufwVqLNJ1I0wqlOErLGONRfeoNQqUPnhojg3dMMTBfXzEvgcvNE6RCSaqFalrFS0ezmSKJkhspHWin/qnTTKZU5ecDwUWkFQRHbpW8aG2JLFqjRjNPt7B9grEqKLIM31JNJ5a8iIop16VFw2JM15oGfnGeYAPd2hL6jhgjq01kfbbm/PwBq/4MJx6phmDUImbtBdKBMh1Y2cDDTeSs6zA5M+8Hht3MsMvsd1lNE/PynhhtobSkFzBv8F4wvtEkUYCSRkrV4dk8DuQ8Yw3EzhJ8T+yiZtAtsfOQ5kJyleSgSqPkxNQa9SiGYhsuinLUsmAWiNU4NLx3S5AXpjxBy6RcmMY9u6sd5+sVq+2WYD1THpnGPVfPvuLy6Recrzu88xTUgcH7SEuZTKJf9RzNYxXtcVTlWkRrKMQYl66ACsGIaQgGU477a7GR4VaWd8pUbwXQ5diVJUrKUr/PcrQZl+XYkVPcELnp1QkvakXcDqh3B9s/rsD63dfLYtqrGFbfO1N9Uxzrj2VZa7Gi3vGIw9aCKcuB3fQEbLFnLgXxARdXpDhjphlbGtZHTC3k8UAeJ3Ael5WqasaZ1PbkaeSogncqo3KjlAyoGooY7eO2pX9Tq4o1H6+nBrVAVuC+Ve3Ok5lzXUqzm0YIcnMyVoNSTUWttb2z+Nix2qzZbDbEVU/X94SuJ8aItwGDLKpVlSjg2owxEz4I2z5w1jkYB6a0Jx0OkKpC1MRirKFbdThjsGJI07xQnc2y7R7rBOOEWmbmNOEkYIxT/C0K0I/Rsd52rM9W+E1PNhDXnaItmvZP85QZpsSUMoLHh8hmvVI5xqmQh0TNQk4FYyAsWF2soWuG6IXYWTprWTnHJnhsmSgUbMnkdM3nH/0Wu+n5wAkP3nmPLkYKKmSTK5Sk7zHOGeN0WlhQoWvvPcb4RQ1sYbXpDoKy0LqPA0TRnre0W73S2wHtJdnXqYdPpZl6cik43qzWPsuxdJMV28ZyZGm/9/YZ/pcYTF8Xh/pt67WD6gkZwItXqpdt0I9t3Ue3vTnwWERHVXjFOafYR4zaZZiAcRFKQ3xG3ARdxonHCQQL8+6KFHe0g0OmGVMKBYtLFRcKse81aIeo1NSiMnvHnpjI0gowAk1JA8eZ1d3et2X5fZkmVgFjb2DpbRkmliODTITUGsZa4mrFarNmvd6y2mzo1ytijGA7xAQN7s4SrBCp2DqrRul8jWfm8Znn4drj2kjeX5LHES8FYz2zC4iMWNvoQmSzWuGcYzwMHA5XlJrUB1Ya4i2h89jmqIeROR2oc2OaRxxgnSF2lhgswQnGqFq/69f4HEhpEWaNYG2PPUwK/fKG0DuiieQpcxCos5b9iAZiMRmxFmcsMaxZ1w4enGOrkFLhMEzUecSJ0PLMl598yL5MFA+pzNj1lqk0nAsasEolxJ5uu8Y53Ue5sqSAmZL1uLIuaBhsZinJVRhbFkWyuuxCLeuPx+1xr3K7b/VNFA9Lu2gRjTg5KQCtZSz2JqtdNk1EtXOP75H5y89SXxW/7stM78tYXyuo3vcid3//MQfU47o9PLsNkkfPN+1TeksqHttYhKsd1nnC+pziIjRDLShEqZsxNMWvrlYMu0uqu0IOAyklOpeoxuO6HtcdaFUhRaUKzWhG1prgjFWXz6UPR6u0rGeIWYLqERDvrVU90UX+jqLg/LnMJ1TGSY9U9KJgrGW97ulWPavNGZuzLev1mhDV70mcxdo1zXqCgT4YOlswZaIOI3l4ii0H1p2w7S2dm2jDnmnc0cYR43W7RQrGVGrTINutAw/Ozqn1nGfPPdfXV6Q6URftAB89nQ04B9fXe/b7AZFKDJH1es3ZekPX9YuJoNJWiUY1GMrE3BohWoLraMFQxkRrlSKJbB3FZKotVFshaIDJKatISjMnooHzFW8CvQ9cX+8Zx4LzwtkqkixM+4Hh6mu++vj3zPNIDR3TXLA20ocVm64nrFZcPHlEXPUYr9YyLgZ86FTBqlXs0n+voENDMVSsohKMNvuqNO4bB73gB3e7dNfDlwKIbaeh0xJB1Q1iyXy19SCn57BkqKeq5tjX/QsMpvDdEsNX9VffOFP9S1y3cbrHyZ8eNJxk3bz3+HJU69IDvi04ywKE0igNjHPkeaaVRC3K6HGt0jUDvsPOM3lO4EfsNGFjT5oXsH0uFHGUasi5gtWBklmyRJoho95PwL2ix8tIQgdQDVLJi3GewXhHsA7nI77vif2K7fk5/XrDarWi63ts8KdALdbg/BbreoKpeJPwbYC8p7VEq5mVFc4cBHNNmSbaNOJkxLqCKZlUkgbEqLqt1lbEZGyEPqyoJoFtHEbDNA3MSfn7fb+i7yNdt2K9PtBKZRUijy/OOduoQn8xldks8KQjUmW5EBpvFaLVjJbiuZBMxfuGMxHXKsUa2lxA9v5oAAAgAElEQVQpVUVyclMESy2ZVNUCRsQyxYhYYXXesbaBKoFshZHE82nPP/7n/4un+4GxaEOGYuljz4PNBZsH57z3s58Q1ytivyKuVzx6+x3+6qc/58GTd+hXaw7TRGmCLBbeRwTAUZcCygsB9WS+uQxWTvfJLUWyY8Bc4FrV3ARgvU8bDvYWdRtQiJ00Crod9dYQ6+a8+MsIprfX6ySF3/a5v1NPtbWbS+DLyv+XbUSt9Rsdnx/iug0Fu/t5xBpMs3jvdUyUq1IyayXPs058xSIuIkFr8zwJrTTmaYRqaDHijEV8pHCgzjNFLHG1Bpuoo57IxjXEWRUJ0QG4nmjLz8YyZRJtEYzzDEAyVkWaAalt6dWpiLTzBuc9vuuJ3Yp+u2V7fkFcb+j6XjOnhfvv3I3dhzFmocs2vKl4Sbgy4GUiOui3PZ3x+HqgDgfKsMdKYdU7JBiG/YGcExhDv3Kn46EwMpVBZQi8o1uvmKkMKTNMFT9V+k2k63qqTIwJkIRxkSaeUh1prEx1ZpIM2eMlIqiqlnOOGCM1z5S5cM1esaLREjcrXLM0Y5hkpIjSbqVaZOlv5lYpC821tMpaNlycPWDbrRATGIYZu8v4ltg4w+NNz5effkqaMn2/pU6VcrXTfTqNfD7sKVZUfcxbnrz7Lpd//w988Ne/ZPvgEdtHj4C2OCi4Ey7ciGjwayqLY45l+hHKtPz7NK1f/q1WWsuwqhS8QW1xOAbHpZphqX5Ee736IstxJoYmSwCt7QZ+8JJ1Xwx43eB7F496F6d63+93//a623Xfe73Oeq3p/zGIwA1Gsyyycq/aqNvrCDu6WxZYa2mV0+vdF3i/ywd60/VdduoRZysiN7YlbeHnVz3wXAiKMWxp8YcSjAvKmDIO4xzGWZqxZBT3WFuk1MI0i2IgjYMQIHSQG1POPLve8dXTZ+QE3WpN6Hqwmf1+T5ZGLYJfoFGFxlwyeXEjPfoeHXnmTjQj7b3HOYUoeW8J/YquXxNWK32P1RofVA80dFHFVI4tBW+0b9gazlW8L1iZcG2kCwVXMy5NrO1IJMG0IzPgY8GLwVZhHgvVFsRUumCIUZWlchUVbXGAs3jnIXYQVqTquby+YjdAHMCGQCqNIpHWDONsuNwlSkkYr+yoSYRGodhCf7bibHNOa4Was1JvzyzVCq3Apt+wXm2oc8UMCRc8VMFMCamyyAEeVa407xhKYpcnfE142+iCxVePsw1LIRp42AWerDs+232NmQsrt8IDbrfDlMw8XoN1dKset+oZv/icD3OhTRM//Zu/ZdVH8AEbOpBGqgq5Ml7wzlB2I90COatJ1btqrRjviT4oskSb7Iobr1UJFkWVu1KbaK0SY9QBZOxQc4SKsR7frzikiYzqNhQaQ5qoqDqYfclpeh9I//Z596Zg+7s41ft+v/u3489v4lRvyvVjvLtbwt+Hv7/9Wb4taB8f4+7e8bKM83XL/x9zT/X2unsFlOXLrgvIzzSLKXXxmWJRSULN6JoqxNtWsa2hbq2qWypVqDIpXdNYFeMwhk+/esrV8+dc7/bUCtkYejHkWmnWIM6SaaRpZM6JaZpOHH7vvZaJRnUDuhhVoT9G+tgRgid2Hh8CLmimaoNO80OM2BAx1mK8wRmltXqjma0VFEqWDlggSsYx0NsRb0ZMG4hmolsQChlLS4VWREW+xBP9BuegBYc1jtosrhms63BhA36Ndx2uWSazRwZwNWJcYGbN5WCpzTPRUZqhHAaeXieCG+n7SOgDxTVMhPN1pBZHHpU+bKtQkuqmWgKhD6z7NdZ4aktqgeIEH/xCDsjUuTCVQS+wTrUMqnMMTYFscyn4UvDWsOoiXmAaRrz1XIRAWXWkIWPThCkTYhJSZiRbmnWYmnCL1cr09Es++u+Vw9UlMTi6szNWFxf41YZohVTUbYKS2TqDGWZyzhwOBw6HA3UZnI7H7Vyqk5QS0zAwDAPD/qCmln1UkR1jCFFpvd1qw8XDh8QHkd2zr4nbLV2MDCVRaKxWgSKGcRzp9Ap4Oke+rbd6X8C77/4fWsz4vtvzreX/yyL0q9Lpm3/rDPPHtF5WbnCcsDftCToXqEWovp3KsKNCkdymGIpQvKPOjuQczQbSpPqg0sB0BVsbYbNhhUDo9fX9kjXWhiQVBymlMJVEyokqEPqO9XrNer3m4cOHp0AaYySEoAr8zi/DJoN1gnVBdUjdIqRiPcYvvVNpWCkIjWCaOhaIwo2mtCe2RC+V6DK9n4ktI1SCqZg8I+gAJ2EX1pdgQsCtAi44ahCs6zBicX5N6LaEsAHT8ez5nqdfX3O9r1xnR/Hn+H5D7XqGBqkcSAipOfbTzO7yink4IBa63rM9X/HkvSdsZUX0a7xALw1TKmm+Yn8YSGUirB2ZQk7XDFcD426kTk0hX0XLYtcsJhvqITOZil1ZXK8XK8EzXE9kSXQ+YJsK6/iWCaHn4SqSrh27ISEtEa0nSEPyBJMlM1JrwXhLFyxlEsavP+cPV8/4zb/8d568/z4//9Xf8tNf/pIn777HNvZqQ1ML01dfkvZ7nj59yldffcWzZ884HA60rJXgUaFL4BRY52FkmibmeVZd2kXVvgoIltVmy8O33ubBk8f8T//pP/H4vXfp3QNsy5SUmPKoXmwpE/3mW3Gqt8+ju/fft+57zg9hfVt8e9X6RlC9nULDN4PqXejR7cz27s/vujF/zvWq3k2VG1sYFkk80PaAcw5eKDNYlPhBJGIMlOwoQRWhxEfsNFDnGeMCeIsJkZ9stqcDf55Vt3WeE+M4kke1sm4AzhNDZNV1nJ2dcXFxwdnZGV3XnfqhIYRlwKSIAWcgxqDB07pFPMUixmlpbDUjFdOwDawUhUw5oeVELgdsviKamV4skUxPIZpEMwXXCnOe1bpELNhItoW5gfORuD4jrDe4VY8LK6z1iESajRTTkYtl9c5brN4OzFMhZ3A2sl3r52pVmMtAqTMlzQzXO55+9SXPvv6S3e6aXEa1BH94QVg90Mx7nthfPWd6+pzh2dc8nXbMweBGQUIlz4V0yKTDTB7ygldtdDHisKxND1LJKZN2iWAjjx89gdq4vn7O7nBgHTuMMaxdxG4c3XpDHiYunz/nQMZay6qPROOpuWCcZUozLQ/IFJAcic4SxVDJzIA9XDN8/glf1pnLP3zINGeurq6Yrve4OTEf9uz3ekspnfr/xhj6vsfKDWrBW0sQYdM5pI/snFHiSK6M48hhmLj+6gt2T5/y0W8iv/mXf+bB22/zi1//mr/5h7/n7MkjsjFI9PQPHnP9/HA6X75rlvo6AfOHMPy6G7veBNF0b1D9Jk7z9lT5/je4L6D+2NZLs1Q4aWMecYTcorC2WvFHEWipy7RVUYBiPMUZSnGL1JzFeEedJ5z3uC6QVrP2bXNmmjPTogtwfb1jQEtX30dV+Pee1WrFZrXm/Pyc7XbLarXS8tZafAha5i99XeccbqFGKj1SAypi1RXULoMoGs5UrLF4I0RTsS0xlwNt3mGTBlVvBCMVyVUJ5Xmi1kRNKpJtwhbxCuKpVkguInHLPgfauOKif8Tm7BzjVni/QnxHZzuM6zASF4sXZVsFG5TO2YQobeFPZuqUuBh2XD9/zvPLr9jvnmGl0PeWYhRB0ebEeJk4fLWDfSYajwp5F2Qu9M3TV0vBcygDw5hIY0aSx3uHQ00ID4tWQTOF+DhQ8ow5NOr1TBqhX0U2XU9s0Kzh4aMLxqLBbn95IDXFwPpgVEzHOKoYaJk6D1jb8LZXyF4pcP2U698N5C8+Q5zVC+0wMx8Gpus9Nc2nnqC1lrg4NQDIPNJEmI1Ql8B6rFiM84SLtTLYSmEcI/v9wO76wNVuz+Wzpzz78gs+/t2HfPXZp1w/e8ov/u7v2D56gAmBQ7gi9me05t8oS71vmPSyHuyfa70qhn2X4HqS/rsv4zze923p+8s2Ao7q/z/sQPuqLPW0mlkC64vPO2YJZhEmkapqT2DwziIoU+c4xXWiKIJqrcr0RU/si+Iba8WXQiyVbp4J2w1xt2EYJigVb3Wa3XUdXdexWrLTY7C9/VOWwdUxmJ4mwcYgYqnGwqKoZJ2BlnCm4aXiyZi2TMPLjJQRVwe6NhGKUHNSLKkVakm0WoDFBdZ1WKNar7YYmg+0bk1qK2z3GHP2Nv7iIWG1JcQVpt+A7wC34H0W18TKMm1uC5ZH9FYqphU2rbL5oPD2vGee9oz751w/+5L0/Cue7y+xlwPjl1ccvrymnxN+E/A2IAOYqWBRGNXh6sD4fEcakwbxUqkm6X6dBdlX6pg4TDs+bx9jxTAe9pQpUSPMpdGcoTnDVBrdZsU7779DBT7mU8b9AA2a95Q64xczSN93+BjwnccHhw0WYx05J+ZnA19/+gnTMCryYFa88oPt2Z1srtLyfDpebYynQWURwXhP6SKt66ghYpzQnMOaRhcdndtysVlz2G/ZDSMf/uEjnj97yh9++yH/7z/+P/wv/9v/yv/+f/yf/Oo//Bq7fcBuLGT542SpL4s1P5T1plkqvKL8v7teN31/1Wv8kNerslQdVCmERVNVUZU2Uc8jEaFZi+pD6R1ijErH4aAWnHHKuLKGYi3VOWrwuBwoJdPVXie0Rd+3AheLwHWeC1YM9lbL4WTHLIK0dsKUsmzPkVTYRC09QoinTFVxnJa2vJ6xikhwphEkQ5qoeaamgVZmLIV1MGyjXhTmlDClIovqUWuC9xEX1hi/wYY14iIr3yNxjeu3xPOf0J3/lNivIQS1kGlCqUIeFQ1hjB6ON59Dh3zSFu2m0mjNIFiMBWsqNkTCdks4P6PbnjH0K/af/Z7D11dcX008++wZ+auv2Jz3vPXe29pPdBFcTxkTh2c7Ds93tAI+Cs0UZNFrNVPDTA07wzzNPL3+QqfDJWEtlNwoc9KeZx8onWOcJoppbB6d8a437HcDeUqQwaRC3/es12vickE0Xvel1MbVs2fUlilzQoYJO030teGtEkzqYX+y4hZrkKPi1bKeff6JHjvC6XGhi0wh0GKgzhfYbkVwHlrDiSP4SHe+4Xy94fGDhzy7vOY3H/2BP3z6Gf/4f/9nQjOEWvnFr/8jJq7Aej2uXqNX+kMKkq+7Xp4gvv76Towqud1b/A4b9X0e96+5XjWJtGKo0qCqvN5RukcWQL2tFoVKG6RpZlitAq+NMXgEY8EVIYnQrFCSBtdWMq2pdCIpAQq4FxE2rZFLwTl16pQGqpe6qGuKILVqG8IsbQcRijEYcVjvsNZjUsVxo5mqveKGM021AazgZMa1RCkDZb6C+YAtE6YOrKKwWQWkGWoplNzI1oNzlGZx/Ra7OqN1W+xqS7c6w67P6bfnsNqCeUg1F+A8tUI1BmsCzhhk+c6rHPGr6N+PFZTCCLDOA2qCVWumtEquCZrFS0d39pjO95yvzhj6h1ysH7N58D5Pf/d79s+/5OPPDxiEs03gwcpjqiOQcZ0jz4l8mIh9z9oq08k2S5pmSmnEXMlTohQldEjnEb+oizWwK71APX1+xVASq+0Z77/3AZTG1fNrhusdAUMIbuH7K6heSNSk2WaMDVstOCFZQ3EOadD5Dt9FXNcrAqVWpjRzOBxIgxIlWmusY1Do3zKEMsZgSqPmQiGzf3pJ3Aqta0hrzDWRXMX7gIjlMI1szrb8wz/8A2+99z4fffYJH/6P/4/f/uQn/PyXv0LC6qQeIaKwvlfjNm/EW0CP1/qKxKvpHS+ci38snOoLJeYrEUztJbfXX+7uh7svlb+NW72LaT36Ah3N2o6PPX7YWr+J+fou7YU/1/rGcK61k0kgi92HANZr73JsVUtXARG7PD4jpiClQEl4gWYd3hpK8VSn/dJWMiklxHu8U3TB7e8oeMjOK620ZWxrWGZsK6ompK06RKCIoYjQCBQXqM7TjKergs2iuE1TcVZwVrA2Y8hQRgwDkvbU4WvseIVnJtiG7TOuJjCO0G3YNcvzyxFY020fY+IZpTuj9hd0mwvi9oLYrbFhBU7FSZA1YjxHwoJUgVooUpR/zlGI8cgLWo6j5V8qAlxPv9ulrWRRDy41AvSI95iHa/rVW/D458x/9QXpF58TPv6E8cMPGZ4953nKyNzxoIusNz1TuUTmA94JHkdnPcZqrzLEnmoDZphgEqbcuL7esXt2TX18xpOfvIvdeHZNdXadC5Aq+6fXhGy5WJ9j3RovM6uuI0aPD4a5zKQygjRMUBHyWo1KDE4F8Ybo11gJGPFUI9huhVg5DaiqMxAcIo2cktqFy/FbuzE4pECWSrWJOQ/YtXp4NRFSnYnW4fuOfrVinCeqMVy884TiDbvDyNfPnvHb3/6Wd3/1d2DllFyp4aTVtgzcKGgpIfrmvFnOpfJC7+zF882018ehvuz+2+tNSvcjNf0Y845Y9dtJ5eusU6b6XYPb3cf+KQOjeY3XfmUp8i1P/7a+jmk3YtZtaQHcvn6JyGKWJ0CmUPRgqgZpBUOmtXKi+NUqJ9V2awCxGONPWYjUFw+IImB90KBKxtWCxS5BtSJtEQNflKyqcRTjKXiaVbB9k4xxQnQB64RWJ1oZqeOBWgcCM1ZmSFfY+RpJOxwZQ6HWmbCNVBu5LsJsVpjzc0w4x5y/hVs/ZHPxLt36Ia5b48MKax2CZ7nKaIa8CIW8+N3e/K4BoS6DwLs76fQ/aJzcG5SqaRcJPQ0m1nrM2Zpu85CHj9+h+2CP/PQr5nd/z7OPPuL5Z5+wv9qRdjNdrqzjht4GpsvnzKmwH0aiMfjQsXKOstszXo+4rOSO5ntaUwTB/uqaPpwjwTIOEz4G+iiM+wPXT69Iz0faWCh55tH2nC56QufZmEiunioV4wFrmOeZrgvMUyOPlZwEQ8SaDuscRUBoNCO4GOjNGhcU9N+GiVSKDgtFDStzruS0+KwhtBBodVBURheRqJC61CCnmVYKcylYp8I+67MtYj3TNPG7336Ie/iA7uEjtmfn2BBJWR0iAKwLWlGgwVVOdNf2QmD9rhBL01B0jXn95/25q2B33Ig/1Yb8ELPQN1n3lR23S48jRvD479uq4SINwb1wNda+p5yu5sf3aK2dgurxsVWgGave8QK2WaQ5LPnE39Zgrylrs45mHBVHRkAKNhSszVhnkJKoZUeariENuDbRSAgzJo+QJloumJrUlK8ZLq8zT0fB9ZHNw8e8/+A9Vg/eort4GzZPQCK0qGpe4nWwV28PP4+B8lvcmu4LqPesk3mFaGBtRrCi4t5IQ4zFes8qBFarDTx8AD//Oe9++QXDJx/z9MM/8OVvf8Oz33/EZ8++xqfExiwtGgymCbaBE4tBjQlTnhQ4HwKhThx2e4pttM4TH57hrKWLPWI818+vuX56hSuGte8I3nF5eUkqPRvpib0GLmcrxuuw0BpHaxbvCoMkzfiqss2c98S12sm0pf0BSjo5HA7s93suL6+XY68xT4lpSqrW1YRmPGWcFqjejOsiftPjSoacaM7hY6/069ZwxrPueqKL1Jz56He/R87PePRBwjnHmfdagLRCLdyrYq3H7xE582asqmMQfp0e7cuy2n/tdW9P9fsEwj9lgP5zrfsGV3d/v2l31G98fhF1KL2bgeJefN6xvXC8uptF1VjV6I+9KYuhwfKacFM61aX1cFRSxZjTwMqvG60OTNNIHvcw7TF5IjDTkYmtYsoI84TME3mcqFmxk2Itu+oIm0c8eu9nvP3eB7iLtyBuIWzAraA4cjPUYpXCW4/XCgWjG3OrEnpZ4Dx9NfeUc/Liw6Qt3T05inQ7jKjjaqmVnBM235xgplSsVHjrCf3Dc95/9x3O337MH7ZrPv5v/8yzTz7m8nrg7YsL3HpLMzCM6tTasrZ6lDXXaE1bE2mama4ybrsinJ/x+OFDmveM85VqEhySCn6vO9brHh91KGVdUDlFV2ii0DQxBuMgp3raZ1jdj00qtWUOh4S15iaoynKsScUHy9tvPyGlwn5/YJ6uF8JIwxpH8Ja5qspVLYlpVHt0mSbswqo7WZPPjbkdCN2KLnhKaewOOz7+3YcMpeDEQIV+tSEYS2ZBgSy93Be8s5a8VVUo20no5d7d39oL1d/xb98V73r79W6vf60E7xtB9XYb4HUD5N3Wwc3zvunO+kNcr3MFfJ3nHLnDxz7MKSOtDZpTxv6d12qiQhilFNUWuAXluF3xOGNu2gfH/SM3wcksKIBWKgYWd9Wj0lGlupkpXzHlS8g7AjPRFfqWiTURW0PaTEozab/ncHmtflFisaFnd9Zz0b/Hxbu/wj1+B1wHJgAd06gQrWq86rMe1bMWyJa0m1L9j7VO8LZmqFJ1YPT/d3fmzY1c1xX/vaVfLwDI2aTRZllSpFi2EztKUlH8/T9CqlypOFWJZVuSpREHay9vu/njNUCQwxltY0WlV8UhOAAbYC+3773n3HNyPgGp6thkplzfk4aQFFYSjorq/gO6d+CRQFCaSYTP/vBf1FlYKUWjDBFPzEKOgkEVn6+Zg3o0VUxR8IeJNEZWzQVDKvoBzlR0zYLO1dSuxVqHVpqYCyDZT4L4yJRGMsViu+s6Yk6lZ4rGmLnySMXTLEukqorH2TQNxORPmIa1luVygZ9KBhtjnF16Q7mpK6GrHdkYYs74GBh2E3ko/VTXdYgIVdOiXV32WxVxriaT8cpweLohUjJ4lTKvvfUWi9UlRmvGmGCupOBmAMxzf/XbHP9nss6XwD76oRgJp6B6G0F7EUn3Ret5AejHHlhftI6AHDy7n87/Dzi97ihUU4C7XO7gWs9Idp4R/HlbQtEZPWa5tzJaTcahZgBAI6qowGcKUCBqliaUDClSKbCmqPKTExnPMF6R8hVOBmzlWTihSxk1Dki/L6pWIZF7T7/esr7acBgirl7Q3r+gWb3O4tX3qC/fBHdBSiCqQdsWbSwZXVB9uVavL9RdNds155Pg9tfu7290qhxNDwvEdQRFC/nBwAymHM893XRobYmxJ04TjTa4hw9Y5UzMiSkltvs9237gs82Wh8uORdPQWMcYwVQ1FxeWceyZhpGUIq1r0ZLIIXPYHthvD3gRdDIsuxWVqtFZSEk47AdEB7TJHMaaZexQVSKTMZXGKUOzWJIZyakEQSWGFBU+RUKcECXFWkVKCe/DWERynMU5S4wepRVtW2PMfZqmKdNX+4HJz5lkKrDgNPbs+wGfhartcN2AqQ8slhd0l5fUTTM73RbObqUg5sy03fJEfUqFLlQvpakWC4wyZCkmiXBtRng64iLYb9BPfbaE/+5Z6l0tux9inXqq5+vbol23X3vdD3wZH/GHWd+Uc3d+gzj/fnzNkWwP1+6NkOchrGtUUWuNytdB9Rx5lJRvbL9IFWeMKBKGpBRKlVIto4s8mzGFD2tUIfDrPNt99CS/JclTjNrgJNFpoZNEFUbiYYvf7eingHhhmIRh8IxBI2ZJd/8NHr/zAa/98+9Yvv8hpluAsoTsiaH0GpMU1XqMRSTMqLyam55ClkRxfjXXO5WznvNLOH4Ayhwz93KDSmcX1jAmeuXLnL6pqYyUaS5b83rb0nVLcs788T9+z5On61J6d5aFtQUUko5KyvixpJLpGWUwQBg9m6/WJFNRLVuUq6mrBrIhT4GcilGhtgalVemPdi3twmFrTbMoGg7GGCpbU1UT41BYADEFYo746AkhEIwmxogPIykFUI6YHCZpLKWvXzlzGhKp6zKyzPbA7rBDUSb//DQSJ1/8t6YJ9nvqxYLki8ZEXl2QY4ZWyni10TitCDkzbDZ8qY4OBomHj1+nXV2gZvPGzHVmKSJn7IDjPy9e36fkf/72vtcmvtV6Lk/1uzR8fyqg1O11G5SCu0uNU7C8FYBFilDyER0tLYEM+kz0N5XnVfGXLtnVmXWmpEyaWQdJUxwC5my1UFsEowsqoJVgVQSZEL8jHJ6i1Q5nJholNCSqGJB+hxz2MIzs1wf8lAg4hmDJbkW9eMijd37FO//4EfXP3ieaBdMkKC1o21Ipi4gqFiRGc41XCNYUmpBRhSpUWgLXQe8mYHXbCviuc+4unuHdfe7Ze7X0W3U5Jm5mWVSmjAj3hz2DH3GxjLB2rz7mrQ9/xZMvvuLJbss+JOpxBOdoqorWKHSMSApMw3jmqgAxRaa4Y5DMKj2ivafRs0aEKGaSP5hKIQR0VfjD1lWYylC5BlcX/y9jHdo4UD37OBByICRPkkhdV2XgQwsoh9aObtHStqUfmo9UPyUYK9iqQuvF6Ua+2WyAYlFugMbqkvWmhB8jzjmmwx4RIYVMt4xITHSrJVXbYREklzHg7dOr8l62wrmaul2gK0NSc3Yqhc89M+i+9fquwfTHgOncOVF1MiE7Q6rvKnfP+4fH7yklrC19H2PKxfQ8/+wjH+z/eyccP8vXPfcigOoufu915lozTRPa3NJROEP74ThJxKn8l3SWvdoywplEEZMQVEYZC6iieqQUqIzV5Uv8wLB7Qr/5Chm21PZAbScaXbylqhTIU8L3gXEzkqbMOMEhCYesGU3L22++z89/+zvqt96F9qL4cM3ldj6lHQqrKa0HBK2LBKCSOFtzCAoBU5Vgd9ZrP+4nyWcZ/8xzPrkZaJmBuFz6tWc95/NjcX48bvvPi8jseW+QkJEoOF2BVag84lWishUXrzzmZx+8z/bJEzZffEklwrLryiSXscXBwWhMVWbqMwqCZ/IDYRgZEKhrxhxZXVyQc0RXGj95urYmSqRy5RhPYaTVDavLC9plV64lV9G5CmUsY/CIyohKiC6jzsVdlZIhG0XbNaxWC0SEcex58OAB2+2eGD21dbjKFdttk3HOcLFsWa83hJhZrC5Y2o7N7sDmMOC0QoLHti1GYLu+YhiGIgrTdYRpIkWPqlzRvlWKqR/49I9/xFaOB49eRRmNpOJlpWehHhFI81RcOmO63L6Wbl9+z6Ns3nUt3tzOd5cTPPFpZ4db4DS9eK2tfP3+d9FQReQmT/V5H+Tr7hgvev6nmHX/RZUAAAtjSURBVL3ePnh37djz14I63WiUFlTOqNKAPGWsotL1cMGRIqWP28qk7E8z/TZrlNKoE7dVQQpYIlZFdJoI/Zpp/wQZNjgJqP0eST1BQJk5MAVP6BPTmDmMii/XAzsy3SuPeeu9X/Pubz5m8e6HcPlwniTLc0U/B0YpF/oxYywhHpA823OkU7YdyZSxUzm7gHIJlnm22563Z5Wey7UMx5v7sb8mhRmhjvtWzcaMZ9lr6WNfWzkrpTBJcLNgukqCJIVkIaPLSLFzuIsLHrzxOo/eeIPPtjs2h577U0ApTcoeJ2Wyy1qLqRw6JkQUEuU0suqHEU8mayHmkmAoMq2uQQlV7XBNVYRPQiADy4sV3aJls16XfnCx3CKKZ/IHplgUymrj5htu2W7XdVxeXmKtJoQV/bAvmbBWp3NGG+HycsW9e4boyzk0jlOxmUFTV4a2MowxIzFASIiNSE74sWezWWOspVkt0K4m48khoF2LRuF7zfrJEz798yc8euNNbNNQVe4Eph7HAW6nq8/rnT57HX3zttzLXt8VV/reFtXnb3rXG/8YstAfet3uB4lwCqrHrzwH1Rv7ba4QjufR6aBqjfcJpS3GWMSUMl8pmfsGsZjTScLlgdxvGDZ/ZXz6V2TaY7Wghx3+sKOfPCpFzMwcGHrPYcrsfGIfHe7B67z1i9/w3j/9O6/+3a/h4iFZWVD+xt94pPEXUOm8EsmznYfM+gglECkoHlDHv3WmJUlOJTtVBVE3urQvZAbdUkpkSSS5SatCdOl7zhbO5bs528cROJv6Q9AplkCYEknSPLOVyboAf7q2XDx8xOOfvcn607+wvrpiCJ5F3ZJltjmxutiMz44AKSWiD3g/0YeMXjgWy5pu0aCqol8QY8S1hqZpUAZCDkyHke2wYe/3bA9rumXL4XAoU1y2Bq1ZLjsAHgq09ZJVs6LfH1iv1wxjzzAcuLqKuLp8lv1+f5q2CnECKboMdV2MEl977RGr1YrNZsPQT0wxUleWUDlSnvBZigpXtGgRppjZbbZYV2FrNwOlCp8FEzONUmSBqydfYv7HEVHce/QKi8sLsBUppVmwZ+6lnwGw50nc7cd3rdvP305mXjYQdVdF9E3XSwmqt3uNP7VA+nVl/9dn+M/S1G7YNsh1K8QoNU9kAXLMxjRqJvUnCo1Hz+pXFkGRWNUKJo/v14Tdl8j+CoYtedgSJFLFSO4n/KGfLWNKG6GfMkNSPJ2ge/UNPvjoYz746GMu3vkFrB4QtKGPmVppqmd6n0cK/vXPpwzyNP1UTAjLjHxxdlVl55TsU1LxD52nwvTcLkoxzKPPRepOFKQ5qh7NCHUy1+PStmgclL0tKKNmCcaSyeooECMqJVSKZBKRiFCcW5Mkkp9QSlhcXtJdXPKUMhKqmg6tDUlSQbkVxEKsuGHNITnj/UiTPa6x3HvlftHTzZG2bam0op96wuSLq8I8YrrZrdnuNyRK2bloFqxWK9pljbIKozTLZsXCXUAW9ocdYRcYBk+MnkuzYrns8L5sL83AmJCL7ODMELi4XBWXiJk9ICEX3VUXMUGjciL6EWMdpnZYJWSJeO+JKaCmdBIQ07Yi5UD2wnCAp1dXiDGElDBVoWllBUqqm6wPuTugijybGd4AhXl+8P0+Jf/5ellx64b038tc18H1p1/+337u2dc/S3a/cYIIsxVGLj0wXTQvT9QiZXBVEUwRyWgiFsEpRaNBE6jGicPV5+y++At+9yU69FR+h0x7pqFHZUGFAFqoXE1GMY6JicSAhrbl9fd+yd//9l9ZvfMBLC7I2hCNQRmFpEDKnDin5XMVkPdkRHekvwAcAbRjIBZdMtAj3QpQWmPEIMeWQEr4GIh+KnYx8Vo7NBt1ckotELwtFDV1NBJMqErmPqzF6LOZ9AwiEZUjKUdijkQV8WTS7AaLeGKYUH4ka0XXdUXmb39gFENlIauIBF9sSqaRkBPGlAx04TTgGYJnvb6ivVdz//El3aqj7mqWbYfRsNs5tnvFGCYyiZAiQ4zkPNuijCMhBFzreHD5gHbRQBYa02DFnrzISgbsmXxCqSVt2zAMfcnwObJR5v2lSrAXTZmoU2V4IEYPmNmTjFOwzfpAU1mqqmSfIolxHHHOol2F1eV3yEIkQNCEcWDz9CndcsW9B/exzmErOwv+CDHnU1Vxd0X74iz1dCncUZL/LTLU2z9/q/L/ZQXU8ze/CyX/KazbgMjtu+3zMtp0LpCiSiZVnpvvsoBzpT9qbUJiegbAMzNIRfZobakIOCUw7oj9hs8//1+uPvuE3Rd/Qk97FpVQ60Qce+KwZ0oZqzR1vcA1jpxtUVtSmqZa8va7H/Dhv3zM6u33oGpLWVuVm6KGOaDPJfgpYdUojpNc5efTOuklzAiwVieVotIvnjP0HOcyP5QJpaEnTMUfSpGvrbe1nWUWmUGbIgaOhNPsf5QicGOPwEcq759zhhCwqUwRRRJeyldMofA7UyiBAjmp6SsR+u2OzRhZrhqylWJPcuiZxhGVcxGAdhU5G6YpFnBRZZRR1K3F1hpTgbLCYrEocrEmkzaZ7b5n9AO60tRtw/JiiTKlZ1tVlnbZ0DhHipnsNWoq54MxhrZtidHj/ch6vZ6FsA0oizZl/5d9VyqiECdiyIQpXTsGiJCk8KgrU0DFKXrCAElbXAeqcnjvORx2JXi7CmUMSpfAnLMiMxEmj6kjYz/Q7w8sVhcY52BmvWh1jAU38Ybrc/zunup5sH3R9fa3Kv+/y3ppPdWf+nreAbt9gO/MVLkLvLp+rM5OnMKi0Dd6sFkVo8FKNEYsmoSNinRYc/X5n1l/9glP/vTfDOu/Iv0GJxPWCcoIOiWsZDAgRhFNuRgGHxlE095/yP3Hb/PBR//G5Ye/hNUKYi6FvVJkIkHASjyV7KKuw6ecHp2pFwHMFzPHLF0iKacTs4RcsrMUPTlEYigB1Y89IQSsKb1AY3QZizT6OsCelIPk+sKTWdcqlu0XZ9kj/1dhcyRKIpAJKuNFGCXi84SPHhNGGjK1KZYnUz+QY4KQSNkjnUMM+Bjop5EYfJla06XkJkNKkaoyXN674OHD+1w+uCSKR3RiDD3siiqZtZZ7Dy5Z3uvIKtM0NYvVksvLFbvdjnEcy/GniJfv93v6zcS0FvabPTFGlsslq4uWvt+T5uGABw8fI1J6uCle9+5FICVh6PdM00RMgVmylpSOKHeZzPIS8TnTDwemlHHdgqhklvkrN0OTE1YpKjtvQ6SwW8aJp0+fUrcNddtx3xi0smRVMIXEs4Hx9uO71jFT/SH6qS8jCfxGQTUzi7GrW4/VUVno7g93LP+/7x/9Y8l1v1s/db4Hz4jssdt45KfqGRkNwc+/o0HPGj8y912VRokFNJVkqjyhpWe7+5yvPvlP/vyH3yPjgSqPOJ1pjaUiYmKmtpqmdriuJWoYgrAbApspk+ySy4ePeePDf+DyzZ9DdwFoRIN1FUlBThPW2GvO7JxR5NNP5/8/o7x3yIJJSkiaSkZ57JXGUObTQyRMI2EaiuKSJJqmoZ1HMI89VMycN8+bFxGylNJfdCHixySQygBCkuvzMAFWJSKKIJkoxfE2pUQOkTxO6JDptCZPgaHfIzM9sKqKbUmuEl6ByvMQh9aQ54w3eoxVuErjqrnVIYksgrUVrqoIITLm0rdtlg1Nd0lirkpspuocrRRvrBQiyU9les5P+LFnuxvo+4mmaUpQXnZstk958uRLxskzThOgyTOh33tPnKueEtH0aXz1KGIdUgCYXSOgwRTDv8kzzQaBrdEEpdjtdkXwPGUW2lI3mcq4IpyTAmN/YAoeq2G1WtG4iqpuCr2qMmfaVc+i/1mpkwTk+XVzHl/uutJubOfsdXL79Wen590rn75kzt7v/jLP3cJx/R9GGefAriDt0gAAAABJRU5ErkJggg==;" vertex="1" parent="1">
          <mxGeometry x="2148.8" y="57" width="306.2" height="176" as="geometry" />
        </mxCell>
        <mxCell id="nsCz9Y8PYD3TY0NwCHBe-141" value="Selectize?&lt;br style=&quot;font-size: 17px;&quot;&gt;&lt;br style=&quot;font-size: 17px;&quot;&gt;https://selectize.dev/" style="ellipse;shape=cloud;whiteSpace=wrap;html=1;dashed=1;strokeColor=default;fontSize=17;fontColor=#808080;fillColor=none;" vertex="1" parent="1">
          <mxGeometry x="470" y="80" width="420" height="90" as="geometry" />
        </mxCell>
      </root>
    </mxGraphModel>
  </diagram>
</mxfile>
